<mxfile host="app.diagrams.net" modified="2023-04-25T09:11:23.780Z" agent="5.0 (Windows NT 10.0; Win64; x64) AppleWebKit/537.36 (KHTML, like Gecko) Chrome/112.0.0.0 Safari/537.36" etag="zbhXADJ-0us7HHiVqvUf" version="21.0.6" type="github">
  <diagram name="第 1 页" id="yqKiMHpDsg1I6G4hGvAZ">
    <mxGraphModel dx="1064" dy="499" grid="1" gridSize="10" guides="1" tooltips="1" connect="1" arrows="1" fold="1" page="1" pageScale="1" pageWidth="827" pageHeight="1169" math="0" shadow="0">
      <root>
        <mxCell id="0" />
        <mxCell id="1" parent="0" />
        <mxCell id="fgFVk5qCwl_wAebh072X-8" value="&lt;font style=&quot;font-size: 18px;&quot;&gt;IOV traffic data1&lt;/font&gt;" style="text;html=1;strokeColor=#6c8ebf;fillColor=#dae8fc;align=center;verticalAlign=middle;whiteSpace=wrap;rounded=0;" vertex="1" parent="1">
          <mxGeometry x="120" y="130" width="170" height="30" as="geometry" />
        </mxCell>
        <mxCell id="fgFVk5qCwl_wAebh072X-9" value="&lt;font style=&quot;font-size: 18px;&quot;&gt;IOV traffic data2&lt;/font&gt;" style="text;html=1;strokeColor=#82b366;fillColor=#d5e8d4;align=center;verticalAlign=middle;whiteSpace=wrap;rounded=0;" vertex="1" parent="1">
          <mxGeometry x="120" y="160" width="170" height="30" as="geometry" />
        </mxCell>
        <mxCell id="fgFVk5qCwl_wAebh072X-10" value="&lt;font style=&quot;font-size: 18px;&quot;&gt;IOV traffic data3&lt;/font&gt;" style="text;html=1;strokeColor=#d79b00;fillColor=#ffe6cc;align=center;verticalAlign=middle;whiteSpace=wrap;rounded=0;" vertex="1" parent="1">
          <mxGeometry x="120" y="190" width="170" height="30" as="geometry" />
        </mxCell>
        <mxCell id="fgFVk5qCwl_wAebh072X-11" value="&lt;font style=&quot;font-size: 18px;&quot;&gt;IOV traffic data4&lt;/font&gt;" style="text;html=1;strokeColor=#b85450;fillColor=#f8cecc;align=center;verticalAlign=middle;whiteSpace=wrap;rounded=0;" vertex="1" parent="1">
          <mxGeometry x="120" y="220" width="170" height="30" as="geometry" />
        </mxCell>
        <mxCell id="fgFVk5qCwl_wAebh072X-12" value="&lt;font style=&quot;font-size: 18px;&quot;&gt;IOV traffic data5&lt;/font&gt;" style="text;html=1;strokeColor=#9673a6;fillColor=#e1d5e7;align=center;verticalAlign=middle;whiteSpace=wrap;rounded=0;" vertex="1" parent="1">
          <mxGeometry x="120" y="250" width="170" height="30" as="geometry" />
        </mxCell>
        <mxCell id="fgFVk5qCwl_wAebh072X-13" value="&lt;font style=&quot;font-size: 14px;&quot;&gt;Original traffic data&amp;nbsp;&lt;/font&gt;" style="text;html=1;strokeColor=none;fillColor=none;align=center;verticalAlign=middle;whiteSpace=wrap;rounded=0;" vertex="1" parent="1">
          <mxGeometry x="115" y="314.77" width="175" height="20" as="geometry" />
        </mxCell>
        <mxCell id="fgFVk5qCwl_wAebh072X-14" value="" style="shape=image;verticalLabelPosition=bottom;labelBackgroundColor=default;verticalAlign=top;aspect=fixed;imageAspect=0;image=data:image/png,iVBORw0KGgoAAAANSUhEUgAAARAAAAENCAYAAADHQjpQAAAFqUlEQVR4nO3dz25UBRjG4a+0KTQttlUZAgaJkfFPN+KGDYnGBWGnolvvy4VX4BVoYnBnYNfEYgFLtYmpxYY0ZSKtFNpxaQiu3pnD6ZTn2fedL+nJb3EWM2P9fr9fAIFjbR8AjC4BAWICAsQEBIgJCBATECAmIEBMQICYgAAxAQFiAgLEBASICQgQExAgNjHIH6+srNStpZ+HdQuMnGtffNn2Ca0aKCBVVavLN2rh/OQwboGRsr5ztu0TWjdwQKqqrlzqDGMGRsbi3e1a32n7ivZ5BwLEBASICQgQExAgJiBATECAmIAAMQEBYgICxAQEiAkIEBMQICYgQExAgJiAADEBAWICAsQEBIgJCBATECAmIEBsKN/K3pQbi7/X8upG22fAc9Y3d2u9N111bKyxzzjVOVuff3atsf1hONQBqaqamHlS7y7MtX0GPONMb7Iu7B6vC91Hjew/eLBb/aeH/3dnDn1Aqqo++PD1tk+AZ2z1ntT27vG60G3m2bz+wx+N7A6bdyBATECAmIAAMQEBYgICxAQEiAkIEBMQICYgQExAgJiAADEBAWICAsQEBIgJCBATECAmIEBMQICYgAAxAQFiAgLERuJb2Zvy3ferdfv2ZttnMIJ2Hx/U46fjNT9/t5H9tbVe9feXa3lpsZH9qqqPP7laly9fHmjjpQ5IVdXF89P13luvtH0GI2bvyUHt7Y/XzMmTjezff2eq6mCuzp2bamT/p6XeUHZe+oBUVb15upl/EkfXfwFp5tmZPOhXHUzVuYaezWEFxDsQICYgQExAgJiAADEBAWICAsQEBIgJCBATECAmIEBMQICYgAAxAQFiAgLEBASICQgQExAgJiBATECAmIAAMQEBYgICxAQEiAkIEBMQICYgQExAgJiAADEBAWICAsQEBIgJCBATECAmIEBMQICYgAAxAQFiAgLEBASICQgQExAgJiBATECAmIAAMQEBYgICxAQEiAkIEBMQICYgQExAgJiAADEBAWICAsQEBIgJCBATECAmIEBMQICYgAAxAQFiAgLEBASICQgQExAgJiBATECAmIAAMQEBYgICxAQEiAkIEBMQICYgQExAgJiAADEBAWICAsQEBIgJCBATECAmIEBMQICYgAAxAQFiAgLEBASICQgQExAgJiBATECAmIAAMQEBYgICxAQEiAkIEBMQICYgQExAgJiAADEBAWICAsQEBIgJCBATECAmIEBMQICYgAAxAQFiAgLEBASICQgQExAgJiBATECAmIAAMQEBYgICxAQEiAkIEBMQICYgQExAgJiAADEBAWICAsQEBIgJCBATECAmIEBMQICYgAAxAQFiAgLEBASICQgQExAgJiBATECAmIAAsYlhjHx7/f4wZp6z8ttW7R3bqbWNfxrZ/2trr17r79ej3f1G9jnixto+oH0DB+TSR58O447/1atbtd1brJn5NxrZn5rp1fjjrRqfnGpkH466gQLS7Xar2+0O65bnTExM1J1fN6rT6TSyPzv7Z032durEiRON7MNR5x0IEBMQICYgQExAgJiAADEBAWICAsQEBIgJCBATECAmIEBMQICYgAAxAQFiAgLEBASICQgQExAgJiBATECAmIAAsaH8LkyTHj7cr2++vtfI9i9LG/X+qb9r9dXpRvZhENMj8Fge6oDMzc3V1StfNbY/Of5jzR8s15kzpxv7DDjKDnVAFhYWGt2/t7JS49vrNTs72+jnwFHlHQgQExAgJiBATECAmIAAMQEBYgICxAQEiAkIEBMQICYgQExAgJiAADEBAWICAsQEBIgJCBATECAmIEBMQICYgACxQ/2t7C/CzTu7dfPOWttnwAv39sXBN8b6/X5/8JnRtLm52fYJ0KpOpzPQ37/UAQEG4x0IEBMQICYgQExAgJiAADEBAWICAsQEBIgJCBATECAmIEBMQIDYv1keoJ2FIvuQAAAAAElFTkSuQmCC;" vertex="1" parent="1">
          <mxGeometry x="440" y="110" width="222" height="219.55" as="geometry" />
        </mxCell>
        <mxCell id="fgFVk5qCwl_wAebh072X-15" value="&lt;font style=&quot;font-size: 18px;&quot;&gt;IOV traffic data1&lt;/font&gt;" style="text;html=1;strokeColor=#6c8ebf;fillColor=#dae8fc;align=center;verticalAlign=middle;whiteSpace=wrap;rounded=0;" vertex="1" parent="1">
          <mxGeometry x="492" y="164.78" width="148" height="30" as="geometry" />
        </mxCell>
        <mxCell id="fgFVk5qCwl_wAebh072X-16" value="&lt;font style=&quot;font-size: 18px;&quot;&gt;IOV traffic data2&lt;/font&gt;" style="text;html=1;strokeColor=#82b366;fillColor=#d5e8d4;align=center;verticalAlign=middle;whiteSpace=wrap;rounded=0;" vertex="1" parent="1">
          <mxGeometry x="492" y="194.78" width="148" height="30" as="geometry" />
        </mxCell>
        <mxCell id="fgFVk5qCwl_wAebh072X-17" value="&lt;font style=&quot;font-size: 18px;&quot;&gt;IOV traffic data3&lt;/font&gt;" style="text;html=1;strokeColor=#d79b00;fillColor=#ffe6cc;align=center;verticalAlign=middle;whiteSpace=wrap;rounded=0;" vertex="1" parent="1">
          <mxGeometry x="492" y="224.78" width="148" height="30" as="geometry" />
        </mxCell>
        <mxCell id="fgFVk5qCwl_wAebh072X-20" value="&lt;font style=&quot;font-size: 18px;&quot;&gt;......&lt;/font&gt;" style="text;html=1;strokeColor=#666666;fillColor=#f5f5f5;align=center;verticalAlign=middle;whiteSpace=wrap;rounded=0;fontColor=#333333;" vertex="1" parent="1">
          <mxGeometry x="120" y="280" width="170" height="30" as="geometry" />
        </mxCell>
        <mxCell id="fgFVk5qCwl_wAebh072X-21" value="&lt;font style=&quot;font-size: 18px;&quot;&gt;IOV traffic data4&lt;/font&gt;" style="text;html=1;strokeColor=#b85450;fillColor=#f8cecc;align=center;verticalAlign=middle;whiteSpace=wrap;rounded=0;" vertex="1" parent="1">
          <mxGeometry x="492" y="254.78" width="148" height="30" as="geometry" />
        </mxCell>
        <mxCell id="fgFVk5qCwl_wAebh072X-22" value="&lt;font style=&quot;font-size: 18px;&quot;&gt;IOV traffic data5&lt;/font&gt;" style="text;html=1;strokeColor=#9673a6;fillColor=#e1d5e7;align=center;verticalAlign=middle;whiteSpace=wrap;rounded=0;" vertex="1" parent="1">
          <mxGeometry x="492" y="284.78" width="148" height="30" as="geometry" />
        </mxCell>
        <mxCell id="fgFVk5qCwl_wAebh072X-23" value="" style="html=1;shadow=0;dashed=0;align=center;verticalAlign=middle;shape=mxgraph.arrows2.arrow;dy=0.6;dx=40;notch=0;fillColor=#fff2cc;strokeColor=#d6b656;gradientColor=#ffd966;" vertex="1" parent="1">
          <mxGeometry x="307" y="190" width="126" height="40" as="geometry" />
        </mxCell>
        <mxCell id="fgFVk5qCwl_wAebh072X-24" value="" style="shape=image;verticalLabelPosition=bottom;labelBackgroundColor=default;verticalAlign=top;aspect=fixed;imageAspect=0;image=data:image/png,iVBORw0KGgoAAAANSUhEUgAAAOAAAADgCAIAAACVT/22AAAgAElEQVR4AYzBPdI0yZaV0b3PcY+MmGdpKGhISEhoSEhIZWD8WEF303abhguGMaqMTA/fD9Uj+N61/Psfv+kH2rM9y7M927M92rM9S7M927M927M827M926M9y7M927M927M8y2OVlr1Kj/W1nvKyVmnZq7SsVVr2Y31Lj7XKy1qlZa/Sspa1yttAIBCxIRCICGwIRAQFNgQiAoENEYHAhlg0arlRo5Yat9SopUYtN2qpUcuNSmo05EYlNWqp8Z/iSlVcqYorrlRtV6pSFVfsVMWVqrhSFVeq4kpVXKmKq+QDT3SgiSc65IkOPNGBJzrQxAea+EATH2jiA0104Ikm1pe82bdys9/kZr/Jzb7JW/smb/ZNbvab3NpvcrNv8mbf5NZ+k5v9Rgdc4UInXNEFZ3TBFZ1woSuc6IIrOuGKLjijCy50hgtd4UTWL/n3P37TD7Rne7ZnebZne7ZHebZne7Zne7ZmebZne7Zne5Rne7Zne7Zne9pjWau07FV6rFVe1iote5WWtaxVfqxVWtYqL2uVlr2sVVrWKm8DgUDEhkAgIrAhECkQ2BCICGwIRAQCG2LRqOVGLTVq1HJLjVpq3KilRi03aqlRyY2GVKjlRrbjSlVcqYpru6jaVbh2Vey4U44rVamKK65UxZWquFIVV8kHnuhAUz6iiad04ANNPNGBJj7QxAea+EATT3SgA080sb7kzb6Vm/0mN/tNbvatvNk3ebNvcrPf5Ga/lZt9kzf7Jm/tm9zsNzrgChc6w4UuOKMLzuiCC13hRBdc0QlXdMEZLnSFE11wRSeyfsm///GbfqA927M827M927M926M827M1u2Zrlmd7tmd7tGd5tmd7tmd7lmd5LGuVlv2UlrXKy1qlZa3yslZp2ctapcda5WWt0rJWeVnLWuVtIBCI2BAIRAQ2BAUiNgQCEYHAFoFAYEMsGrXUuKVGLTVu1FJLjRu11KilxiU1GnKjkhq11PhPcaUqrrhSlaq4dlVcqYodV6pjpyquVMWVqrhSFVeq4ir5QBMfaMpHNOWJjviQJp7oQBMfaOIDTXygiQ488UQHmlhf8ta+yc1+k5v9Jjf7Jm/tm7zZN7nZb3Jrv8nNvsmbfZO39k1u9hsOdIULnXBFJ1zRBRc6w4WucKIrXOiEK7rgDBe60BkuuKITWb/k3//4TT/Qnu3ZnuXZnu3ZHu1Znu3Znq3ZNUuzPdujPduzPNuzPduzPdvTHqu0rFV+rGWt8rJWaVnLXqVVWvayVumxVnlZq7TsZa3SslZ5GwgEIjYEAhEbAoGgiA2BiEAgsCEiEAhsi0YtNW6pUaOWW2rUqOVGLTVquVFLjUpqPKRCLQ8kO65UxZWq7aIqrrh2VariiivluFKVqrjiSlVcqYorVXGVfOCJDjTxlI54Skc8pQNNfOCJDjTxgSY+0MQTHWjiA02sL3mzb+Vmv8nNfpObfStv9k3e7Jvc7LdyZ7+Vm32TN/smt/ab3Ow3HOgKJ7rgik64oguu6IQLXeFEV7jQCVe40BldcMEZXXBFJ7J+yb//8Zt+oD3bszzbsz3bsz3Ksz3bsz1bsz2rZmu2Z3u0Z3m2Z3u2Z3u2pz1Wadmr9FjLWuVlrdKyVnlZy1rlZT2lZa3yslZpWau8rGWt8jYQCERsCAQiAhuCQiIFNgQiAhsCEYHAhlg0aqlxS40atdxSo5YaN2qpUUuNW2pUcqOWGg25kO24UhVXXKnaLqp2VVypip3q2HGlKq5UxZWquFIVV6riKvnAEx1o4okOeaIDT3TgiQ408YEmPtDEB5r4QBNNfKCJ9WW/ya3c7De52W9ys2/lzb7Jm32Tm/0mt/ab3OybvNk3ubXf5Ga/4UBXONEVLnTCFV1wRhdc6AonusKFTriiC85woQuu6IQrOpH1S/79j9/0A+3Znu1Znu3Znu1ZHu3Znq3Znu1Znl2zNdujPcuzPduzPduzPe2xSste1io91iova5WWtexVWqVlL2uVHmuVl7VKy1r2Ki1rlbeBQCBiQyAQsSEQFBHYEAhEBAIbIgKBwLZo1FLjlhq11LilRi01btRSo5YbtdSo5IFKajTkQrbjSlVcqYorVdsVV6pipyrVseNKVVypiitVcaUqrlTFVfKBJzrwRAeaeKJDnujAEx1o4gNNfKCJDzTxRAee6EAT60ve2je52W9ys2/yZt/Km32TN/smN/tNbu03udk3ebNv8ta+yc1+owOu6IQLruiCM7rgik640BVOdIULnXBFF5zRBRec0QVXdCLrl/z7H7/pB9qzPcuzPduzPdqzPcuzPduzPduzNNuzPdujfZRHe7Zne7Zne9pjWau07Ke0rFVe1iota5WXtaxVXtZTWtYqL2uVlr1Ky1rWKm8DgUBgi0AgIrAhEBG0IRARCAQ2RAQCG8XQqKXGLTVqqXFLjRq13KilRi03aqlRyY1aatRS4z/Flaq4UhXXroor5bhTFVdcqYqdqrhSFVeq4kpVXKmKq+QDT3TgiQ405YkOfKCJJzrwRAea+EATT3SgA0808YEm1pe82bdys9/kZr/Jzb6VN/smb/ZNbvab3NpvcrNv8mbf5Ga/lZv9Rgdc4UQXXNEFZ3TBFZ1woSuc6AoXOuGKLjjDhS64ohOu6ETWL/n3P37TD7Rne5Zne7Zne7ZnebRne7Zna5Zne7Zne7ZHe5Zne7Zne7Zne9pjlZa17Ke0rFVe1iota5WXtaxVXtZTWvYqLWuVlrXKy1rWKm8DgUDEhkAgIrAhKBCxIRCICGwIRAQCgW3RqKXGLTVqqXGjlhq13KilRi03aqnQkAu11Kilxn+KK1VxpSquVG0Xrl1OdVyxUx07VXGlKq5UxZWquFIVV8kHnujAEx1oyhMdeKIDTXygiQ808YEmPtBEB55o4gNNrC95s29ya7/JzX6Tm32Tt/ZN3uyb3Ow3ubXf5Gbf5M2+ya39Jjf7jQ64womucKELzuiCE13hQlc40RUudMIVnXChK1xwRhdc0YmsX/Lvf/ymH2jP9mzP8mzP9myP9izP9mzN9uyapdme7dke7Vme7dme7dme5Vkeq7TsVVrWY63yslZpWau8rGWt8rKe0rJWeVmrtOxlrdKyVnkbCAQiNgQCgYgNgaCIDYFARGBDICIQ2CiGRi01bqlRS40btdRS40YtNWq5UUuNWm7UUqOSG9mOK1VxpSquVG1XquJKVexUxZ1yXHGlKq5UxZWquFIVV8kHnmjiQ5rRgad04IkOPNGBJj7QxAeaeKIDTXygiQ80sb7sN7nJrf0mN/tNbvZN3to3ebNvcrPf5Ga/lZt9kzf7Jm/2rdzsNzrgCie6woUuOKMLLnSGC13hRFe40AlXdMEZLnShM1xwRSeyfsm///GbfqA927M827M927M92rM8W7NrtmbVbM32bM/2aM/ybM/2bM/2bE97rNKyl7VKj7XKy1qlZa/Sspa1yst6SstepWWt0rJXaVnLXqVtIBCI2BAIRAQ2BIIiAhsiAoHAhohAYKMYGrXUuKVGLTVu1FJLjRu11Kilxi0VGnKhIRVqqbHlVKUqrrhStaviip2qVMUVV6riSlVcqYorVXGlKq5UxVXygSc60JSPaMozOuSJDjzRgSY+0MQHmniiAx9oogNPNLG+5M2+lZv9Jjf7Jm/2Td7aN3mzb3Kz3+TWfpObfZM3+yZv9q3c7Dcc6AonusKFTriiC67ohAtd4URXuOCMLnTBGS50wRldcEUnsn7Jv//xm36gPduzPcuzPduzPcujPVuza7Zna5Zne7ZHe7Zne5Zne7Zne5ZneSxrlZb9lJa1SstepWUva5WWtcrLekrLWuVlLWuVl7VKy1rlbSAQiNgQCERsCARFCQpsCEQENgQiAoENsWjUUuOWGrXUuFFLjVpu1FKjlhu11Kilxi0VGnIh23GlKq5UxZWq7aJqu1KOO+W44kpVXKmKK1VxpSquVMVV8oEnOvBEhzTjKR34iKY80YEmPtDEB5r4QBNPdKADTzSxvuTNvpWb/SY3+01u9k3e2jd5s29ys9/KzX6Tm32TN/smt/ab3Ow3HOgKJ7rChU64ogvO6IILXeFEV7jQCVe40BldcKEzXHBFJ7J+yb//8Zt+oD3bszzbsz3boz3bszzbszXbs2uWZnu2Z3u0Z3m2Z3u2Z3uWZ3ms0rKW/ZSWtcrLWqVlr9KylrXKy3pKy1rlZa3Sspa9Ssta5W0gEIjYEAgEIjYEIgUCGwIRgQ2BiEAgsC0atdS4pUYtNW6pUUuNG7XUqOVGLTUqeaCSBiq5keVUpSquuFKVqu2KnepUxY475VTFFVeq4kpVXKmKK1VxlXygiQ880YEmntKBJzrwRAea+EATH2jiiQ480YEOPNHE+pI3+1Zu9pvc7Ju82bfyZt/kzb7JzX6TW/tNbvZN3uyb3Oy3crPfcKArnOgKFzrhii64ohMudIUTXeFCZ7jQBWd0wRVOdMEVncj6Jf/+x2/6NbdHe7ZnebZne7Zne7ZnabRne7Zne5Zne7Zne7ZHebZne7Zne9pjWau07Ke0rFVa9iota5WXtUrLWvZTWtYqL2uVlr1Ky1rWKm8DgUBEYEMgIrAhKBAR2BCICAQ2RAQCQdvQqOVGLTVquVFLjVpu1FKhxi01GlKjlhuV1KjlRrbjiitVqYorVXHtqrhSFVeq4kpV7LhSFVeq4kpVXKmKq+WJJj7QxIc08UQHnujAEx1o4gNNPNGBJzrwRAeaeKID68u+yVv7Jm/2TW72m9zaN3mzb/ImN/tW3uyb3Ow3udlvcrPfys2+0QFndMEZXXDBGV1wRSdc6AonusKFrnCiC65woitc6IQrOpH1S/73//Wf6QfKoz3boz3Loz3bsz3KszXasz3bozzboz3bszzaszXKsz3boz3tXuVlPaVlL2uVlvXYq7TKy1rWKj/WslZp2au0rKe8rGWt8rK2BYENQYFAIBAIBDYKBAKBQCCwRVAgEIigpUYtNW40pMJDatRSo5YbtdS4pUaNW2rUUuOWGtmOK1WxqYorVXGlCjtVccWVKspxxZWquFLGlaq4UhVXyxMNPKWJJ5p4ooknGniiiSeeaKKJJ5p44iFNPNHEE+mrvMlNbnKTm9zkJrdyJ7dyk5vc5CZvcpOb3OQmN7nJTW5yixmdcMEZnXDBGV1wojOccKETznChE87oghOu6IQTruiEE1m/5P/wN/9cv2K5NNqjPcujPcqjPVujPNqjPdujPNqzPcqjNdqzPNqjPdujNNrDHk9p2au07MdapWUv6ykte5WWtcqPtaxVXtZjrfKyVumxl7VKjwWBQCAQFEgIBAKBoIRAIBAICmxICARi0ajlRo1abtRSoyE3aqlxS40at9RoSI0btdRyo0a246IqNlVxpYwrZVypwk5VXJTjShV2qnClHBdVsXGVPOQRTXmggSceaOKBBp54oIGnPNDAEw088EQDDzzRwPrCh9xwkxs+5CY33OSGD7nhJjfc5AM3ueEmN3zIDTe54QMTTjjRGU444UQnnOFEJ5xwhhOdcMIZTnTCCSc6wwknOtEP+D/+7b/QD7RHabRHe5RHe7RGebRHebRHe5RGu8uzPdqj3O1RGu3RHuXRHtZ4Ssta5cda9iot67FX6bGWvUqPvUrLeuxVWtZTXtayV+mxlv0YCCQK/yQhEJQQCAQSBQIJQYGEPwUSBQIRNGqp8ZAatdyopYEbtdS4pUYtD9So5UZDatxSo8Z/wk4VNuW4KONKGVfKuCjHRTkuyrhSxhWbKspxYZc85MYDDTzwQAM3HvKIhjxwo4EHHrjxQEMeaODGAw/kr/KBGz5wwyfc8IEbPnDDB274wA0fuMOH3PCBGz5wwwdumHCiM7zghBNO9IITTniFE73ghBNOeEUnnPCCE054oRPO6Af8n//uX+oHyqM9Wl0e7S6P1ih3e5RHe5S6Pdqj3K1R7vYoj3aXRnu0R7mtfsrLesrLWtZTXtZjrfKyHnuVHmvZq/TYy3pKy17WU17WY63yI6GEQKJAwp8SBRICCUGEQEJQQsKfEoISAhG0PFBLjYfUqHFLA7fUqOVGA7XcqKWBG7XUeEiNW7JMGZsq7NhUYVPGRTk2VdiUcVHGThU2ZVyUsVNVcqOBGzdu3Higlhs3Hqhx48YDt9yo8cCNGw/UcmN90Qd94AM3+sAn+sAHbvSBD/qEG33gAx/0gU90wwc+6AM3+oQpzvCCF5zwghec6AUvOOEFLzjhBS840QtecIaXeIUTXvBC1i/5v/z3f6UfaI9yt7o82l0erS53e5S71eXR7nK3Rrnbo9TtLo92l7vV5WH3Yy37KS37sVbpsZf12Kv02Mt6Sst+rFV+rGU95WUt+ykt+7EeKwQlEAKJEv6UKCFASJQQICQKJBAlBBKIIhio5YFaatxoyI2G1LilxgO11Higlhq3NHBLAzVuyTJlbJWxcVGmjI1NFTZlbMrYVGGrHFtlXJSxsS23XLhx40YlN25cuHHjxiU3blS4ceOWCzduXLiRl/RBn+gDH/RB3+iDPuiDPugTfeCDP/CJPuiDPugbfdAHfeATfWCiF3nBC73IC17wghe84CVe4SVe8IIXvOAFL3jBC17wghe8kPVL/uPv/7V+oD3KXep2l7vdpW53uUvd7nK3utztLnW5210erS53u0td7nIv67FW+bGW/ZSW/ViPtcqPtezHWuXHWuXHWvZjPeVlPdayn9JjBUKiACEhESEhESEhiE0gESEhESEhiJAQSY0GarnRkBs1GnKjITdqNORGA7U8UMuNBm6p8UAtWVYZm7JsytiUZVPGVhmbMrZsytiUZVOFTUk2ZasKNyqqUOGSCzcuXLjkwoUbFy5ccuHCjQuXXLiwF/rgL/rgT/RFn/iLPugTf9EHffA3+uAP+kYf/EWf6IO/6BN98BcmHPCCA17kJV5wwAtecMALXnCIV3gpLzjgBS844CVe4RAv9AP+b3/5N/qBUrW73KVuV7lbXe5Stbvc5W5VuUvd7nKVut3lLlW7y13qci37sZ7Ssh/7KS3rsZf1lJf12I+1yo/12Mt6yo+17Ke07Md67McKiRIIidgkIiQkIiQQJRASERIlsElESEiEYOCWBmq50cAtDdxoSI2H1HiglhsN1PJALQ/UeEiNLaksm7JsSrIpY6ssm7JsSrKxKctWGVslbJWx8T8pXNi4sOXChU2VXNi4sHHJhY0LG5dc2LhwUZa98Df+4C/+xh/0xd/4g7/xB3/RN/7gb/zFH/yNvvgbf/AXf6MP/kZDOeAFB7zgIId4wQEHvJQDXnDAAYfyggNecIiDvOCAA176Cf/tP/xb/UC5Sl2uVperXK0uV6nL1e5SlbtV5S5XqdpdqnK3q9TlarVdj7Xsp/TYy3rKj7Xsx3rsVXrsx1r2U3rsx1r2U36sZT32Yz+lR9pKIEpgK4GQiA0hESFbhESEbIgSCNkiJCJEqKWBWxq40ZAaD9TyQC0P1HhIjQcacqOBWxqo8ZAal4WtsizZlGWrhK2yLJWxVZKNrbIslbFVlkVZtkqSC5sytmxsbGzKsrGx5cLGpowtGxubMrZsbFwP/uIv9Ym/8cKf1MIf/E198Tf+Ut/4i7+pL/7GX+qLv/E39cVf/A0DDnGQAw5xkAMOOMRBDjjEAQc54FAOOOAQB3nBFC9ywETWL/nv/se/0w+Uq1XlKnW5WlWucpWqXaUuV6nK1apylatU7S5VuUrVrlLZ9dir9NiP9diPvUqP/ViPvayn/FiP/Vir/NiP9dir9NiP9djL2taGiE0iNonYJBCxScSGKIGtBDZE2RBlQ8QmEYKBWxq40ZAbDXmgxkNqPFDLAw3c0sCNhjRwoyE3HqhsWSrLkq0StkqyVZKtsiyVZaksS2VZsinJVlmWypaFjSWbEjaWbErY2LIoY2HLooyFLYsyFrZsyg/1jb/UN/WlVuqLv6lFfVPf+Et9U4v6pr54pb7UN/XFK/VNfalv6guDHHCISQ5xkAmHOMghJjngEAeZcIiDTDjEQQ4xyQGHmGD9kv/+H3/XD5SrVOVquVzlKlWp2lV2qUpVrnKVql0ll6tU5SpVu0oul1WP9ZQfe1mP/VhP+bEee9mP9ZQf67Ef67GX9ZQf+7Ee+7FX6bEfKcoWgU22CGwlsMWGKBu2CNliQ8QmERu2EtgQBTSkxkMaeOBGQ2408JAaDzTkgRoNufFAQ2408JAaD6lkWSrJVsm2SrJkq2RbJVkqy1JJtkq2ZaksSyXZLkkWFiVZWJRkUcLCUgkLSxYlLCyVsLAoycKiJPuhvvQ3tVJfeqUW9U2t1JdeqW9qUd/0or6plVr0N7VSX2qlv9RKfcMQkxxikkNMMsVBJkzlgCkOMpUJh5hkioNMcZApJjnERNYv+S//6z/pB0pVdqlKVXa5Si5V2a0qu1Rll6rsUpVcrrZLVXK5SlW25af82I/12I/12Mt+So/9WI/92I/1lB/rsR/7sVb5sR/rsR/rsbe1xSYbttiwRcQmW2zYImSLDVtsiNhkiw1bbBKxATHwkAdqPKSBB2o8pIEbDXmggVsaeOCWBh5oyAM1HlLJslyS7ZIslWzJVsmWyrJckuWSbJdkqWRblkq2VJYMlgwlDCUZLAoZShhKMlgUsigwKmGwVGBRfuiVXvRKrfQ3vaiVXulFr9Q3vdKLXqmVXvQ3tdKLXumVWukvvcIgU0wyxVQmmWKSKaYyYZKpTDHJFJNM5YCpTDHJFJNM/YT/4a9/o1+jVG1bLrtVJZddctmlKrnsUpVdctkll1yukssuVdklW37Kj/XYj/1Yj/3YT+mxH+uxH+uxH/spPfZjP9ZjP/ZjPeXHfqxH2mKLDVts2GLDVjZsscWGLTZsZaOtbLFhiw1bbNiK0JAHajykgQduaeCBBh5S44GGPPBALQ808JAbDTTwkEuypZItlWy5JNslWyrZkuWSLZVsqWRbJVsuybKlkmQwKjAUqmAoZCgwMhQUMlQwKjAUGBUYCrkeeqUXvTKe9KJXeqVXemUseqWf9MpY9Eqv9Eqv9GI86ZVe6ZVe0DCVSYaYyiRTDGXCVIYyyRSTDGWKSaYyxCRTGWKSqUz9hP/xf/9FP1B2ySWVXXLJZZdcctkll11yybZaLttyy38queSyS/7TYz32Y2/rsR/7sZ7yYz/WYz/WYz/2Yz/WU37sbT32Yz32Yz/2Y22xYSsbPWKLDVt5YIstNmyx4RFbbNhiwyM2bLHFBqSBhjzQwI2HNPBAQx5o4IFbGnjgIQ08UOMhDzTwkAYuySVbtlSy5ZItl2S5sOWSLVsq2XLJlkuybLlk4xJyKORQoZBDoQoOBY4qFHIocFShwFEFQ0UVjKoexko/GSvjSS/Gk7HSK+PJWOknYzFW+slYGU96ZayMh14ZT3plrIwntDLIFEMZylQGTGUokwxliKkMMpQphjLJUIaYZChTGWKA9Uv+n//nr/oVS2VbKrmskksuq+SSyi7ZUtkllVx2SSWXXVLJZVku2dZjb/uxHvuxH+uxt/2UHvuxH/uxHnvbj/XYj/1Yj/2UH2mXH/uRtnjEhkdsseERW2x4xEZbPGLDFo/Y8IgtNjxiwyNtIWh5oIEHHtLAAw154IEHGvJAjQce0sADDXnggQYe8kAluWTLpTIq2SpLpTIu2XLJxpZLtlyyccmWjUu2XEIOjipUVBuHiio41FYFRxUqeKtChYocKtSWQ0UVXJvxMNfuh/lkrIwn48l4Mlbmk/FkrIwn48lYGQ/z2eNhrIwn48lYGU/GE7UyyFCGMpShDBjKUIYylKEMMpQphjKUQYYylCGGMpRBhn7Cf/2//08/UFLJZZVUsqWySi79f8bgRuXWbUvP8n233t/xU+d/OmIMiUVSe+/ypzCYYEgwKIgIopBvjLe39jiXOYA1r4uSArGgpLCgoFQoKC0oENTWI0ePth45evRI6ymPHjnaeuTo0dYjR4+2HD1yoJNDmpykySEnaTikyUmanKThkEM6OaSTA00OOQmww44bd9hxxw077rjDxh132LjDjjtu2HHHHXfYuENBFYoVpQqNhabEQlOForEoY6GxKLGiKFUZnFRTnWqcVFOdmthUp5qa2KmmOjWpxk4N1anGTk2qqdXZZ64z+8x15jqzz1xn9pnrzD5znbnO7DPXmevMPnOd2WeuM9eZfeY6s89cZ1KZzWxmMZvZzGYWs5mdbGYxm9nMZhazmc1sZmU2s5nNLGbzO/yv/tnf8xsKCpSCgoICpaCgRCgoKCgRCgpKhIKCEuHo0aMtR4+2Hjl6tPXI0dajR07ZevRI69GjLUdPckiTEw45pJMDhxxykoZDTtLkwCEnaXLgkE4OOSRh44477LjjBTvuuMPGHXfcYeOOO+y4cYcr7rhhxx1LyihVUaqiqUJTYqXESomVMhZllKooVko0VQw21bFTh+pUUyfV2KlOHapTTXWq8aQ61dRJNdWpTh3s1JpcZ64z15mr5zpznbl6rjPXmcfpq+c6c525eq4z15mr5zpznbnOXN3XmceZqyfFLGYzi1n0ZhazmcVsZjGL2cxiNrOYxWxmMZtZzGYWs5hN+HP+1//NX/kNQkmRAqGgjFBQpEAoUyAUFCkRihQIZQqEo0dbjh5tPXqk9WjrkaOtR4+0Hj3acrT16NGWQ0445JADJznkwCGHnHDIIQ0nOeTAISc5cMghB04C7LjDxh132PGKG3bccccNO+54hR037rjDjht3uOKOSzRlqtBUpcRKmRIrZapSYqVMiZUyVWiqUqbESvBQJ3Wok+rUoU7qUCceVsdDnawTD3VSTZ3UoU6qqZM6qUOtzqPn6nmcvnoeZ66ex5mr59HzOH31PM5cPY+e6/Sj5zrz6HmcuXqunsfpR891JotZTDGbWfRiFrOYxSxmMYvZ9mIWs5jFLGbRi1nMYhazmA3In/Gf/fN/4s8IkjJCkSJCkRJJEaFIQRFNgaSgiKSkiFBEONpytPXokdajrR/g+JwAACAASURBVEdbjxxtPdpytPVo69EjrUcbbjjkwCEnOXDIgZuccMghBw45cJIDNznkwEkOHHIgYYeNO15hx407XmHHHTfusOMVd9yw445X3LDjjlfYcUmZqpRoqlKmKmWqUlKmKmWqoqlKmSrKlKlKmaqUGbxZJx7WnTrUSd3USd3USZ3UTZ3Uoe7UoU7qpk7qpk7qUHfqsFbPo+fR8+h59Dy6Hz2PM4/uR8+z59FzdT96nmcePY/uq+fZ8+h59Dy6H2cePY+eVGbRyylmMYteTDmLWcyii1nMshdTzGIWs+hilrOYRS+mQP6U//xf/Ft+QxFJEUmRIpIiSjEFkiKSIpIiRTRFhCKSIpKjrUdbj7QebT3a0taR1qNHW1uONp6y8Ujr0aOHHLiTA4ccuMmBk9xwyIGbHDhwkpscOOSGQw6ccJPAFXfcYccLd9xhxwt33GHHK+644Yo77rjxCjvuuOMVlpSpSpmqLFOmKmWqUqZMVcqsSpmqlKlKmWWqUqYqZQZv6k7d1J26WXfqpk7qpu7UTd2pm3WnbupOHepO3dSddVN36qbu1Jo8e57dj5lnz6P70fPseXQ/Zx49z+5Hz7PnOf3oefQ8ux89z55H93Pm0fPseXSnmGKWXcxiii5nMUUvppxFF1PMsotZTNHLKaboxZSz6OJ3+C/+5X/gN0iKkRSRFJEpIilSjKSMRFJMEUkRSTGSIhLJ0daWo61HW1uPthxtbT3YerS15Wjr0dbWIwcP3OTATQ7ccMgdDtzkwCE3HLjJHQ45cJMDNxxyw4GEHTZecccdr7BxxyvuuMMVN+54xR12vOLGHa+w444XLlKVZcpUZZlyqrJMVcqsSjllVqVMVZZTlWWqUmaZqikzeFNf1p36pm7qy7pTX+pOfak766a+qZv6Zt3UN3VT39TNulNf6k59WXvy7H7OPLufM8/u58yz5zn96HlOP3uePc/pZ89z5tn9nHl2P2ee3c+ZZ89z+tkTmaKXU3QxRZdTTNHlLFpn0cWUXUwxZRdTdDmLLqac4nf4L//b/43fUESmGEkxkmIkxUhkisgUkSkiU0SmiIykGI1M49HW1qOtrUfaajnY2nq09Whry9HW1oOtrUcO3HCTG0644ZAbbrjJgRtucuCGQ+5wyx0OueGGQ24I7HjFHa+w48Yr7njFHXa8cMcr7rjDFTdecccdLtxxxw3LqcpyqrLMqpSzKmWWU5VlylmVMqtmmaospyrLLKcqyzR+qW/qS31Z39SX+mZ9qW/qy/qmvtSX9U19qW/Wl/qmvqxv6kt9s77UN7WTV/dz5jn9mnlOv3qeM6/p58yz+zXznH7NPLtfM8/p58yr+znzmn7OvKafPc9ptIsuRqfosouRLqfocorWKbqYsmXKLqbsomXKKbrkN/j3f/9/8huKkcgUI1OMRKYYGZliZIrIyBQjU0RGphgZM5rG1qOtrUdaW1sPtra2Hm1tbT3a2NJ6tLX14E1uuOHADTe54YYbbnLghhtuuMkNB2644SY33HCH2yRecYcLd7zijlfceA0bd7zijlfccMUdr7jjFTfucMUrLlg1y5SzKstZleUsUzXLrMpyqrKc5azKcqqyzKpZZjlVs0zjl/qwvqkP65P6Up+sL/VhfVMf6pv1ob5ZH+pLfbK+1CfrS31SX9aH+matzGvmNf2aeU2/Zl7Tr5nn9Gv6NfOafs28pl8zr+nXzGv6NfOafk6/Mq/p18xrOjLaResUrS1TtkzZ0uVI6xStXYx20Tply5QtXYD8Gf/Vv/p/+HORMVOMjEwx0jLFyMgUI2O6HDMyxcjIFCMjXQyktaH1aGtra2vj0dbW1qOtja2trUdbWxtbjt5www033HCTG2644YYv3HCTG2644YYbbrjhJjfccENgxyvueMUdr7jhilfccccrXnHjFXa84o5X3HjFHa54xQWrZplVs5xlVs1yVmU5q7Kc5ayaZVbNMtupmmV2TTnbrJoyLZ+sD/XJ+lAf1if1YX1SH9Yn9WH9UJ+sD/VhfVIf1if1YX1SH9aH+mR9qD15pV8z7/Rr+jXznn6l3zOv9GvmPf1Kv2be06/0e+Y1/cq8p1/Tr8x7+jX9zgRauhxtaW0ZbW0Z7aK1daS1tWXKltbRltaW3+G//tcffkPRMqaLkZaRKVpGujLSMtIyxUjLVFpGWka6GJjWxi4bW1uPtja2tra2tjYebW1tbWxtbW09cMMXbrjhli/ccMMNX7jhhhtu+MINN9zwhRtuuOGGryTseMUrbrjijle84o5X3HjFK+5wxSvueMUdL7zijle84iKrZjurspxVs51lVs1yds1ylrMq21k1y1nOrixn1Sxnm1WznKOf1A/rk/VD/bA+qR/WD/XJ+mF9Uj+sH+qT9UN9WD9ZP9Qn64f6sH6yfqgPa0/e6Xf6Nf3OvKff6XfmPf1Ov9LvmXf6nX7PvNPv6Vf6nXlPv9PvzHv6lX6ngyOtjS2traMNra0tow2tra0Dra0trY0jrfwG//IPzW+QLsa0jLR0MdKmZaSLlpE2LVO0tIy06WKkpWFaWxtbW1tbG1tbW1sbW1tbWw+2tra2NrYeveGGL9xwwxduuOGGr9xwwxdu+MINN9zwhRtu+MoNN064cMcrXnGHK15xxytuvOIVd7ziFXe84oZrvHDHK15xx012ZTmrZjurZjvLWTXbWZXtLGfVbGfVbGc5q2aZXbOc7aya5TT+UD+sn6wf6of1k/VD/bB+sn6on6wf6of1k/WfqR/WT9YP9cP6Sf2wflg/qR/WlbzT7/Q7857+u/Q7/c680+/0O/136ff0O/NOv9N/l35n3ul3+p1+z/xd+p1+p4MtjaONLY2tjS2tg60NrY2tja0DrY2tDa38Bv/6D1/+jCAjLWNapmgZaRkz0sVIy5iWkZYpWkbGtEzRMK2tja1HR482tra0Nra2tra2Hhw92tLa2Hr0wA033HDDDTe54YYbbrjhhhtuuOGWG+5wmxsOfOGGhCtuvOKOV9xxxyvueOGOV9ipK+y44xU3XnHHK+54xR22LGdVlrOcXVnOclbNMqtmO6tmmeWsmmV2zXJWzTLLWTXbWZWDn9QP64f6yfqhPqyf1A/rQ/1k/bB+qE/WD/WT9aF+WD+pH9aH+sn6oX5Yn9RO3pl3+pV+p9/pd+adfqff6dfMO/1OvzPv9Dv9Sr8z7/Q7/Z5+p9+Zd/qVBlobWwdbG1obRxtbGkdbG1sbRhtbG0caW/kN/uM//Gd+g4y0jExlpGVkZEzLFCMjLWNGRka6GBnTMjIwra2NrS2tja2trUdaG1tbW1taD7a2tja0Hj1wwyE3HLjhhgM3OXDDDQduOOSGAzfccOAmB264IeHCHXfc8Yo77rDxGjfuuOMVd9xx4xV33HGHK7XDjhs3LGdVlrPMqllm1SyzapazzKops2vK7Joyy1k1y6yaZVbNMo0/1If6yfpQH9ZP6sP6SX2oH9Yn9cP6UD9ZH+qT9UN9qJ+sD/XD+qQ+rB9qJ+/0a/qdeaXf6Vf6nXml3+lX+p15p1/pV/qdeadf0+/MK/1Kv9PvzCv9SgOtjaONo40tg62tg42tgy2No42jrY2jDY38Bv+7v/y//IbKyMjIyEibSMvImJGRKUbGjIyMjIwZGZliYBpbW1qPtja0tra2NhxtbW1pbWw90tra2NJ6wyEHDhy4yYETDtzmhAOHHLjhwCEHDtzkwIEDNwnusFM7XHHHHXfcuOOOO+644w47tWHHHa+44447btxxwXJWZZmqWWbVLFNm1SyzKuWsynKWWZVyVmWZVVNmOatSpuWT9aE+rE/qQ/2wPqkP9cn6UB/qJ/VhfahP6sP6pH6oD+uT+rA+1Cf1oVbyTr8yr/Qr/c680q/0K/NKv9Kv9DvzSr/Sr+l35pV+pV+ZV/qVfqdfmVc60jjYOtg62jjYOtg60DrYOtjaONo42jja/CJ/xv/hL/83v0HGjIyMjMSMjIyMjIlMMTJmZGQkMmZkJDIyB1taW1taG4+2tLa2NLYeaW1taG090trY2nLgkAOHnNBwyIEDhxxockPDgUNOOORAkwMHDhySsHHHHXfccceNO664w4477rjjxh1X3HHHHXfcuMOOC8qsyqqUKWdVlqnKcsqsSlWWKWdVyqzKMlWzTJlVKbMqDR/WJ/WhPtQn60t9qE/qQ32yPtSH+qY+rA/1SX2oT9aH+lDf1If6ZH2onbzSz/Qr80q/0q/0K/NKv9LPzCv9Sr8yr/Qr/cy80q/0K/3KvNKv9DPzSgdGB1sHWwdHG0cbRxtHG0cHWwdbB1sHRxv5Df6Pf/m/+HORyJjIyEjMyEiKgTGRKSIDY1KMRMaMREYG0tjSerSltaG15WhrQ2vrkdaWxtaWoy2NrS0Hmhzo5ECTA00ONDnQyYEmDQcOaTikQ5MDTQ4EdtxxxxV32HHFjTuuuOOOC3fccccVd9xhxR03rrjjgqosU5Uyq1KmKsuUqcoyVSmzKmVWpUxVylmmKstUpUzrJ/WlPllf6kN9Ux/qm/pQH9Y39aG+1Cf1pT6pL/VhfVJf6pP6Uh/qm1rklX5mXuln+pV5pl/pZ+aVfqZfmWf6lX5mXuln+pV5pl/pV+aZfqZfmVc6MNo62Dg6ONo4OtjWwGhTI0O1Do4OtDXYOMpv8J/+8n/wZ+SXFCOBVAYiU4REpgiMiYxEYkYiIzEjkchAGltaW1oPtLa0thxsaW1pPdLa2NJ6pLWhtaXJCU0amjRpaOjkkIYmDU06aWjS0ORAk04amgR2XHHHFXdcuOOKO664w4o7blxxxxV3XHHHhTuuuENpmWWqUqYqJVUpsyplqlKmijJlqrJMVUqqUqYqZVal8UN9U1/qm/pQX+qb+lDf1Jf6sj6pL/WlPqkv9aW+qQ/1TX2pT+pLfamVvNLP9DPzTD/Tr8wz/Uw/mef0k35lnuln+pl5pl/pZ+aZfqafmWf6lX5mIoODo41jDY42jg6ODo42jg4Oto4Ojg7VOMpv8H/66//ObzCRyEhMJBIZkiIQGROJxERGIjGRyEgkkIbWI60tjUdaW1pbDrS2tLY0HmltaT3S0NrSpGGSJg1NJmlo0mSgkyYNQ5p0aDKkoUknA02AFVfcccUVN66w4o4rrrhwxxVX3HHFFXZc1Ao7rrjikpIyVSmpiqYqJVUpqUqZqpRUpcRKmaqUlKmiTFUav9SX+qa+1Df1pb7UN/XFb+pLfalv6kt9qW/qS31TX+pLfVNf6ovf1E6e6QfznH7Sz8wz/cw80s/0M/NMP9PPzDP9ZB7pZ/qZeaaf6UfmmX6mn5nI4OhQg6ODo4Ojg62DYw2ODg6ODo7VODo4ym/w3/z1P/EbJCYSicREIjGBFIGYSCQSE4nERAKRSEyOtLa0HGxpbTnS2tBytKW15UBrS0vrkcaWlkmaDDQZMknDkCGdDGkYMknDkCZDJmkYMqST4Q8rrLjiigtX3HHFFVdcceGKK+6w4ooLV1xxxRV3XLGkTBVKVcpYlJSpikWZKko0ValCKVOFpooyFmVGv6kv9cU79aW+qZv6Ut94U9/Ul7qpb+qLd+pLfalv6qa+8Uvd1De1mGfmkX6kn5ln+pF5ph/0M/NIPzOP9DP9yDzTD+aZfqSfmUf6mX5knulHBhkcHWpwdHB0qNHB0cHB0aFGB0cHRwfHGhzlN/g///U/8hskEBNBYiKRCCYSiIkgkZhIABOJRGKAtLQeaWk42tLSeqShpbXlSGvDkdaWlgOtLS2TDBkYMsmQIUMmGTJkwpAhQyYZMmRgkiFDhkwCVFxxxRUXrrjiCiu1wsIVV1xxxRVXXFhxxRVXWHHhQk0VipUSizJVKFVoqtBYlFShqUKpilKFporGL3XHm/pSd+rGb+qmvninbuqbuvFL3akbv9Sd+lJ3vKlv6qa+uJJH+pl50I/0I/NIPzLP9CP9yDzoR+aZfqQfmUf6kXnSj/Qj80g/Mo/0MxMYHWo0ODo41uDoYHSo0cHBsQZHB6ODYw0O8hv8t3/99/wGicQgAUwkgsQgASQmgsQAkRgkgsQEONLS2nKgpeVoS8uB1paWIy2NLUdaWo42tLQM+WXIL0OGhEwyJGSSISGTDAkMmSRkkpAhQ34BVqy44goLK6644ooVV1y4YsUVV1hYccUVV6y44sICixILRamKhWJRolRhRbEosVAsylgoVSiNN97UnbrxTt3UjXfqizd1p268Uzd145268Zu6qRvv1I136qZW5pG56EfmkX6kH5lH+mIe6UfmkX6kH8yVfmQe6Uf6kXnQV+aRfmQe6UcaHRxrcDA61OhgdKjB0eBYg6ODsQYHR0ONDvIb/Hd/+3f8GQlBkBjklwgmgmACmAiChCARDBJAMAFaWo60NB5paTnS0NpypOVIS0PLkdaWIw0tLSG/DPkDGfIHEjKZkJBJQv5AhoT8gUwSEvILpOKKFVdcWHHFiisWrLhixRUrLqy44ooVV6y4sGKBhVKFYqFYKBaKhWKhVKlYsVQsFAtFGb3jTd14UjfeqZu68Y6HuuNN3dQdD96pm7rxTh28Uzfe1B0XeaSvzJV+ZB70lXmkr/SDudKPzJV+ZK70g74yj/SVedBX5pG+Mo/0lUYHYw0OjhUcDY41GB1qMDrUaHCsweDoUNFBfoP/y9/+Db/BIH8wSASCIAgmgGCQP5gIAkGQGOQPR1paDrS0HGlpONrScqSl5UhDy5GWlpYDLS35hYQhCfkDCfkDk19IyB8ITH4hfyAhf2CSCBUrrlhxQcWKK1ZcWLHiihULV6y4YsUKCyuuWFG0sFAUS8XCArVQLBRLxUKh8JdCsVAsGw/e8VA3ntSNJ3XjwTt18KZOvPGkbjypG288qRtP6sZDVebKPNIXc6Wv9JW56EfmSl+Zi74yj/SVudIXc6WvzCN90VfmSl+ZBx0MDjUaHSo4Gmo01GB0qOjgUNHBWIPRoaJD8Rv893/7J36DYJA/GASBIAiGXwQjIBjkDwZBIMgfWo40tBxpaTnS0HKkpeVIS8MxLUdaWo40tLSQhIH8AvkDQxICSQbyC0wSyC8wIb9AkoH8IlSoWLFwxYoVK1ZcWLFihYorFlasWHHFwooVK5aoFP5SIJYKhb8UqIVCaaFQKpaIhb8U6OiJN57UwYN3PNTBE2/qxIMndfDGkzp44k2dePBQdzxYyUVfmSt9ZS76yuz0lbnoK31lLuZK7/SVudIXc6WvzEXvzJW+Mlc6Gow1GGswOFYw1GhwrOBQ0cFYwbGCQ0WDY/Eb/A9/++/5DfIHo/zBIIgEwQgIhl9Ewy+CUf5gEIEjTbo40HKkpeVIQ8uRNkdaWg60tBxpOdLQpoUEhgSSDARCBpIMhARCBkImhASGBEImhIxQsWLFwooVK1SqoGLFihUrFlasWLFiYYWKFSv+FxQqhSWiUlqgFCqFSqlQKpQWqAVKOXCoEw8e7NTBEw8ePKmDJx488VAHTzx4UgdPbDx4UsXszJXezJXemSt9MTt9ZXb6YnZ6M1d6Z670xez0ldnpi9npnblocDBUdKhoqOhQ0eBQ0VCDsYJjBaNDBWMNxuI3+B//8W/8BoNIEESCCBgFkSAYAZEgCkZANPz/bDmkpeVIy5E2DUdajrRpOdBypKXlmJYDXTS0MYEhgSGRIYEhgTGBkIGQgZiBkIGQmIHAGCoaKxRWrFjRWFixYsWKYsUKFSuKFStWrFjxF4QStaRAKX+hoPyFEqH8hRKhRC0oUUtk9KQOdjx4YuPBExtPbOrgiY0nHux4sKkTD3Y8eLAyO7OZK70zm96Znb6Ynd6Znd7MTl+ZTe/Mzmz6Su/MpndmZzYNBmMNhooVjA4VjBWMNRgqGio6VDBWMNZgLH6D/+s//gN/LkRRIIqgQSQKIkEEDSJREImCSJRfPKbhSEubIy1HGtocaTmmpeVAmyMtR1raHGhpYyJDRkLGBMYExoyEjISMCYzEDIkMiQwZiUlFY2FFY0VjYQVTFSqKFSsaK4oVKxorVhRESpQSpUQpUUpKhTJqiVJSopQoJUpBOdh4YmPHgx0bT2xsPLGx8cTGjofqcLCpDgc71WhmMzu9M5vemZXezE5vZqd3ZtMrs9M7s5md3plNr8ymd2anNxMMxgqGihWMFQwVHSpWMFQ0VDRUcKxgqGgofoP/6R//nt8gEkUjKBBFoigSRZEAikbQKL9oBMEmLUfaHGk5puFImyMtbY40HGlzpM2RliZHWsaQMZExkTEjMWPG/48xeMHBNmyTqrqrrof5D8XgKYhKxKChaaCbQRiNGkHOJu9d257B/62FcWHRMFw0LC4YFxeMC0ZjakJqIjUxNSExNTElMTUxJVkCNTE1ITUQGhIaEhtaEhoSGhIbGhIaUhobEhoSGhKaRx555JlHnnnkmQfPPPLIM48888gjzzzyk0ceeeaRZ8rOfex8nzve5873sfN97Nzn+9zxzn28c5/v2OfO97HzfQwiMZVKTCWmUompRGoqMZVITSVSE6mphD+Q/+1v/gl/ICQGEooJgcSEYEIgMZAYSAgmJBYSggmB/PCFX3zhF1584Rcf/MKLv/DiL7zwwxd+8YUXf+GFH76wGBcNq4sL1oXFRcviwqpxYXXBuLqwaF1YNCamJCamJiYkpiYmJlATExNSExMTUxITE2JDQmNLQmNKY0NKY0JDYktjQktiQ0NqQ7LkmZFnHjzyzMgzD54ZeeSZB8+MPPPIg5lHnhl5ED338c4d79z5jn3ueOfOd+zc8T53vmPnO3bu8x073zGIxFQKMZWaSCWmUFOJVGIqNYFKTaSmEv5A/ve/+cf8kYTGQGIhIZhQTAgmFBIDCcWEYEIxIVDIw1948Rde/IUXf+HhL7z4wi/+wos/ePGFX3zhF3/h4Qsv1lXL4urK4uqKcXVlcXVl0bqyuLqyuGJdNCYkJqYmJiQmEhMTEhMTExMSUxMTE4iJgdjSmNLYktiY0pjS2JLYmtDYktiS2NqQ2kgemTwy88jgmZEnI88MHpl5ZPLIyOSRmUcmj8QdO3e8c8c7V9+xc8c7d668c8c7d+x8Zec7d7xzxyQQU6mEVCo1gZpKpKYQqSnEVCoxhUpN+AP5P/72H/EHYqAx0BBsCDYEGgONgcZAQ7AhmFBMKAT7iy/+wou/8PAXXvyFF3/xhV988Isv/OKLv/DiLzz8hRcX6+rK6uqqZXV1ZXV1ZXV1dWV1dWV1dXVllUhITEwMJiQmJiYkJiaCiQmJiYkJiYnBkJDamNrYktrYmtKY2pja0pjamtjSmtjamEpGHswMZkYmIw9mRiYjT0ZGJiNPRmYGI0+K9R2rO1/Z8erOlXeu7Hxl5ys7V9+xsvPVHavvGERiCpWSSKWmEKkpxBQqNYWYSiGmUqgJfyD/59/+9/yRxkCxIdhQTCg0BhoLwYZCYqEx0FhIqOaFX3zxF178wYu/+MIv/uILv/jgF1/8hRd/8YVffPCLv2isO1dWd67uWF3dubK6c3XH6s5XV3au7lzZuWhMCCYmBhMSwcYEMDExMZCYGExIDBIbITW1sTW1tTWxNbW1MbU1tbU1sTW1tTWxNV0ykQxmBjODmYFkMjIZmYwMZgYzwsxgJK6srr5j9ZWV1XeurL6yuvLOldVXVl/ZufLqyoNKSKVQU4gpVEoqgZpCJaZQKakUYgqVQPhL8n/97T/gjyQWGgsNxUJjoTHQWCg2FBoLwYZiQ6GYX3jxF1/4xRd/+Asv/uKLv/DiLzz8xV988Rde/IWHv/ji4rm6c+eOV3fu2Lm68507dq7u3Lljdec7d+xcXTUEE4PEQGIwMZgQTAwmBhKDhMRgYjAhElNb26W2tqZrTW1tTW3XmtqarrU1tbU1XSsZaAbKyEAzmEgmwshEMhFmhJGJMDOIlldWV15dWH1ldeXFldVXVldeXVh9ZfWV1YVBIKZQqClUQiqFkkpJpFBTKNQUIiWVQvkD+b//1X/NX2RCobFQbCg2FAuNB8WGYqGh2FAsNBYuVvLCL774i7/44Bdf/MUXf+EXX/zhC7/44i/+4gu/+OIPX1w8d+5858597Hznzp073ufOnTvfsXPnPne+Y+fOnauLgWBiMJAYDCaGv2ORGAgmBgOJwWBiIJC15tbamq61XWq71pztUtu1pvbWmq41tV1rbokiTCTCjKAMNIIyIigDjTCRKANBExZXFl9ZXHlxZeHVhdUXVhdeWVx5cWXxlcWVB5WQQqWkUKgp1AQKhZpCSaVQiCkUSirlD+T/+Vd/nz9hw2HhYqF4oVhoOCw0Fg4biheKhcOGYqG/+MIv/uKLP3zxF3/xhV988Rd/+OIvvvCLL/7iD1/8xV8wO/e5z3fu3Mc79/nOfe7znTv2+T537vOd+9zxPnfu852rhmAwGAwEicFAMBgMJAaDwfB3DAYTgpGutV1urel6tkvXs11qb+1Se2uX2ltrut5S27USjSAoEkVQBEEjKIIiEZSBIlEEBAwvLqy+sLD4wurCiwsLiy+sLry4sPDiyuLCg0JIpVBSKNQUCiWVQkmhEFIplBQKNYXyB/Kv/9V/wZ/wQvGgeKFYuFg4LDQeHDYUD4oXigeNhYP+4g9f/MUXf/HFX/zFF3/x4S+87Bd/4cUXf/EXX/zhi79oPN/nPne+z33u8x37fJ/73Oc797nPd+zzfe5z5z7f5z7fx6oYDAbD3zEYDASDwWAgGAwCwWAwGAhGunatubXrLbVdb+l6tsutXWtu7XpL7a1dup7tciaKoAgCImgERRAQiSIoAiIIGkEJiwsLLy4sLry4MFh8ZbjwwuLC4guLCwsvLgwCJYVCTSFQUijUFAolhUJIpVBSKJRUyh/Iv/7bv89fEv5O8aBYuFgoHhQPCw2HxYNiw2GheFBsOO2Lv/jii7/44i+++OIvvvjiL774iy/+4sse/LIXXvYLL1v83OfOfb7PHfvc5873uc997nwf+9y5z33ufB/73LnP97kqBgPBYDAYDKDBhKAjIgAAIABJREFUYDAYCAaDQTAYDAQjWc926Xq2a5faW7vW3Nq1tsuttV1vqe3a9UzXSiSKICgSRVAEQSNMBEEDKIIiSBRYXFhcWVx4cWFx5YXFhcWFxRdWFxYXFl9YHYkUQiolgUJNoFASKSlESgqBmkJIoRBT/kD+zd/+l/wJC4eF4kGxeKFYOCwWDorFg2LhsFg4LPQXX3zxZb/44osvvvjiL7744osv/uKLL3vxxV988cUXFz/3uXOf72PnPnfuc+c+97Fznzv3uc8d+9y5z33u3Oeq/B2DwWAwGgwGgmAwGAwGg2AwGgwEI7G3dqntWtu15tautV1rut5a27W2S9ezXWu71EQyERRBIwgTiSIIE4kiCJqJIGgEXFlYXF1YXFlcWFx5cWF1YXFlcWH1hdWFxUFIpCRSCKmEREoClZBCTKASUogpBGoCgfCX5N/8zX/FXxIC1ULxsFAsHBYLxYNqsXBYKB4Ui4XDSl/24osvvvjiiy+++LJXX3zxxRdf9uKLL7744osvvmzxc+c+97HTz5373LnPHfvc6efOfezc58597tin5z5XxWAwiAaDwWAwCAajwWAwGASDwWgwJGtt15qut8bW3lrbpWtt19qutV1ru9R2re1aiTCiDDSCMJEoA2FGUIQRRZgRJoIkLqwurC4urK4sLqyuLqwurC6sLiyurC4uDAIxgZhCTCAmUBOIhFRCIiGRkkggJhBT/kD+37/5b/gTFqrFg2KheFooFqqHhWLxpFgsFE+Khb74shdffHHZiy+++uLLFl988cUXX7b64osve/HFF42fO/e504+d+9zpsc+dfu7c5w7Pfe7cp8c+d+7Tc0UMC0aDQTAYDEaDYDAYDAajYWAwGIzJWtulXk13MV1ru9bWdq3tWtu1tjZrbdea7ioZaITJiKCMCJOBRhhoBjOCMCNMBpK4uGJdWF1ZXVxZXVxZXbCuLqyuLqyuLK4MIiGRmEBMJAQpQWICMYFITCAmJBITiIQ/kH/7L/9b/oAUD6rFQrVYOC0WqsXDSrFQLRZOi4VqX7f44uLLXnxx9WUvLr5s8dUXl7344uLrXlx88WXGz50e+/Tc506PfXru9HOH5z53euzTc5+eO/zcuQoGwWhYMAgGo8FgWBCMBoNBWDAaDEZiu6uN7Vpbm7W2tmtt1trarrWxXWtrs9Z2rclEMphIJgPJZEQZSCYjwmRkIowoI4NoXVldXVi1rqyuLqyuWlZXVxZXLaurK4sSJASJiUAiMQFMJCSCicQEMJEQTCQm/Jn823/5D/gTVorVQrVYqBZPitVipVisVoqHlWK10mWLry57cfF1iy8ue3F12YsvLnt1cdmLqy9bfNHs09Njp587Pf3Y6bnDT8+dnvv08Nynx04/d3paZMEoGBYMRoNgWDAaDAOD0WAQDIsGkdp6sV1rY7vWxtZmra2XtbY2tmttbNd6sTVdGJlIBjODEWUwMxhRBiOTkcGMMBkZzATr6spO4+qO1VXL6qp1ZXXVsrq6smpdXVEgSAwSg4RgIpgIJgKJQWKQGCAGE8GEP5B/9y//O/6AFquVYrVYqR5GitXDSrVYLVSLlWK10mUvrltcfNnqssUX1y2+uGz1ZYurL1tctvriMuPpx05PTz92enp67NPT03OHn56eO/z09NzhaQVh0WAwDA0Gw8BoMCyIhgWDaDAsGAW6xquNrc1aWy+2Nmtsbb3YrrG1sfWy1tbGdmFmMDIZGcwMZgYjg5mBZvBAM3hEGRnMRMvqqmXnqnV1xXN11bK607qyat25Yl1dlSAYBBODYDARDIKJQFgCGAwSg2BikD+Sf/cv/iF/wkq1WqxUi9VKtVgtVqrVYqVarFaq1dq9uGx12eK6xRftXly2umxx3eKy1ReXrS5bNPv08PT09PTw9NyHp6enh6enpx+enh47PT2tIBgXDIZFwbBgFBaMhoHBaFgQjAsGkdp4sV1jY+vF1sbWi81aG682tjZe1trY2ngZGRnMDB6ZjAxmRgaTR2YGI5ORwTODkclItO6wru607LSueq6ueK56rq54rlp3rFp3KpoYBINBMBgEw8BgEAwGwWAQDAbB8Cfy7//F/8Af0Gq0cDNYrVaqxWq1Ui1Wq5VqtFitVLtucdk646tmy1aXLa5bXLa6bNXsxXXGZavLjKeHn56eHp6eHp6enB6enh6enp4enp6eHlZYNAgLRsOCuGBYFAwLomHBODAYFwzDxNaLja2NFxtbLza2XmxsbHexsfFqY+PVxmbJzOCRwczgkZnBM4ORJyMjg2cGz4wMZh6MRM9Vj1XPVc+d1h3Wndad1h3WnZ6rnqseq4ILBsEgLBoMgtEgLBhEg2FgMAqGBZGEvyT//p//j/wBrVSLncFqpVqtVquRarVarVSr1WC10mXrFu0W1y0zrlu0W1y2zrhucZ3Z6rJFu2XG04PT08OT09PD05PD09OD09PD05PTw8ppBWHRMDAaFsQFw6JhYFwQFg0LomFBXEhsbL3YeLGx8Wpj48XGi42tFxsbLzZebG28jAxGHpk8MvJk5JHJI4NnRp6MPBh5MjLyZOSR6Om507rTc8XTc6d1p+eqp+cO605Pz1XPnRoN4oJBXDAaBkaDuGAUFg3GgcG4IBr+RP7DP/9H/AGtdlarkWq1Wq1WI9VqtVqNdFar1WokxnWLZuuM68xWl9kt2i2zLrNbXGdcZ7ZqZjw9PDk9OD0tnJ4enJ4cnlZOD05PD04PTiMsiAvGgWFxQVg0LIgLxoFh0TAwLgyMiY2NFxsvNlxsvNhavNp4ofFi48XGi42NF5slg2dGHjwz8uCZkQczjzwYeebByDODRx6ZPPJI9fRc9fTc6em509Nz1dNjp6fnTk/rTj+tngMXjIvCotGwKC4YFwXjorBoNCyKC8ZF/kD+w1//T/wBrUSrndVotdoZrVSrndFqtVrJrFar0a4zW2e0W2dcZ2a3aGe2zmi3zrjOzG7Rzsx4cnhyWDk9OTw5qJ4cnlRPDk8OKyeHJ6cRjAsD44JxsGAcGBcGxgVxYcE4MC4YhsSLDRcbLzYeXGxsvHix4WLxYuPFhouNFxsuL8w88siTkUceefLIyJNHHnlm8MgjTx4ZefLIIzPB03M3Tw9Pz3168/TY6enpbYenp+dObx5+7lRcNAyNi8ZF49C4uCgYFxeNQ+OicVFY5A/kP/71P+YPzGq02lmtZlaqmdVqZ7Razax2VqOVzmisZnbLrHZm64x2ZnbrjHZ2ZnaLdnZm1mXEw5PK4clJ8eTkoHpwclI8OSmenBxWTg4iDBcMwwXjwtCwMDQsDowLA+PC0LA4MBIuFi82XDxsuHix8bDhYuPFg8aLDYcXGy80C4888syDRx555sEjzzzy4JlHHnnyyMiPzDx45JFnop+enp47/fT09PRzp6enn56envvm4c3T00/PGY2LQ+OyReNw0bi4aLYoLi4aF2WLi8ZF/kD+41//z/wB7ax2RquZ1c5qZjXaWe2MVjOrndXMaqTL7OzI7OwW7ezM7OiM68zs7MysdmZ2dmbEg5PqQeXkoHJwWjk4qRycFE5OCycnhZMIi8LiwtCwOFgwDhYNw4VFYXFhUVgYGoiHDRcPGy4eNlwsXrh42HDYeOHiYcNhw8VjyY8888gjTx555JlHHjzyM4888uSRRx555gePPPLMI9FPPz09/fT09Junnzs9/fT009NPb55+evrp6TnicNmicdni0Gxx2aJx2eLimHHZ4qLZ4uIY4S/Kf/pn/4Q/MKOd1cxqZ2Y1s9oZ7cysdkY7o53VzGpHzOzsyOzszOzorOZZ7czo7Mzs7Mzo7Ix2ZAeVkyOVw8qRyslJ4aRwUjg5KZwUTioHGRgXhguLwuLC0DBcWBwYFxYHi8LiwnAhsXDx4GLh4uGFw4bDiw2HB40XDy4eNB5eKEt+5JEnj/7gkUee+ZFHnjzyI4888yOPPHnkRx555kceqX56+unNT08//fT0m6effnr6yblPbvv0k3OfnPuG2eKyZcZly4bLFpctMy5btrhscdnQbNniskWQvyT/6Z/9L/wB7cys68gW7eyMdmZ2RjurmZ2Z1czOama0dnZkdnZ0ZnZ0dnRmdnR2ZnR2dmR2dnRmxIPKQeVM4aRwUnNQOaicKZwUTmoKJweVGIYLi8LiwnBhuLAoLiwOFheGhuHC4mAx0Hhw8eDwQvHC4YXiwcWDiwfFiwcXDwoXjyU/8swPHnnmRx75kUd+5pFHfuaRHzzyzI/8yCOP/MwjP1L99Jsnn3766c1PP/309JuffvLp6aff/PT000++eWq2bJnZi2PrxswWX96i2bJlyxaXLVu2bNmyxWX8gfznv/pf+csyMzujnZmdmdVsHdk6o52ZnZnVzM7Mzmhn6OzIs6OzozOjo7OjsyOzo7Mjs6OzozOjIztSOagpnNQcVEpOKkcqhTOFM5XCmcJJSQbGweLiYHGwuDBcWBwuDBeMg8WF4eJgEbhweHB44fCg4fDg8MLhwUHjweGFw4ODxmPJDx79kR888yOP/MjPPPIjz/zIjzzyM4/8yI888yOP/MiPdH76yaff/PTTTz795qeffvqNTz89/eYnn3766Tc/+VS2bN3Yspe3uLxly5YtW/ayZcuWLVu2vGXLli17GX8g//mv/il/YGZ2i3ZmdmZmdmZ2y+yMdmZ2ZmZ2ZuvM7ICOjM6Ojs6OjI4+Ozo6OzoyOjv66Ojs6MiIhTOFmoOak5LKkUrJSUnlSKXmoKZwplATYXFhuDhYXBguDhYXhouDxYXhwnBxYbgAHhxcPDg4PDg8uHBweHB4cNB4cHB4cHDxWPjRH3nmBz/yI8/8yI/+yDM/8iM/eORnfvRHHvmZH/mRH3lS+eTTT7/5yad/b376yaff/OTTb3769+TTb37y6Tc//eSbZsuWt+xly1u27OUtWze2vNctG2/dy5a3bNnylr1sefyB/H//9K/4A7MzM7MzW5+ZmZ2ZndkyOzM7MzO7ZXZmZnZCR0dHR2cfHR0dGR19dHR0dHb00dHRkdHRRz1TKakpnCmpOagp1JScqZRUjtSUnNQUSrIwXPj/GYMXAwmQI7eCD5lVPeu/UeTyc8eTOVIXAEkW7ESERo0IjRoRGmFa1RA1NCJqIGrUQNTQiP9n6cLCwtKFhYWlCwtLFxZWnHbgwNAjBg4sXSJe9dBjHnrVQ0YPveqhhx566FUPPWT00Kseeugxr3poymlvetpTTnrLaU96ym1PesptTznpaW97wmlvOelpbzlpFctRIluJHMVy5CiWM4lsJXIUy1EiW4kc2UrkKOWv6X//+S9+IVWidFKlcidVonRSuUonVTKpUrlKJ1WidFKlcqeFCRMmjJkwYcKEMRMmmjBmwoQJYxQmbFAYM9EEdWCrQVMNmmpgq0FTDZqyaKpBUw2aamGqQVNNNaCKqKEWoVEjQqMGrAaiRg1EDbUIjRoRGjUQFVhYWLqwZWHhwNKFhYWlWxYWDiwsXVhY2LJYeuihVz30mIe+6FUPPfTQqx566DEPPfSqh77ooVc99JhpbznpKTe95bQn3PaUm572htPectJbTnrbU056y2lvOG1JxpajWI5sObKVyBlbjmwlsuXIVjK2HDmylciW+QX9nz//zV8qrtJJlcpROqlSuZMolat0UiVyJ1UqR+mkcpVOqhQmmjBhzEQTJow1YcKYCRONmTDRmAkTJhozYcJY6qCpFk01aKpBUw2aatBUi6YaNNWgqQZNNWiqQVtRiBo1YDU0IjSqIWpoRFTTqIGooRahUQNWIwRLtywsHNiysHRh4ZSFhYUtC0sPbFlYWFg4tfSqh77oocc89K0eeugxX/Sqhx76olc99JgveuhVDz30Zabc9JaT3nLbE257w2lvOektNz3lhtuecNtbTnrLSW+5aZTIljO2HNmy5ciWI3teZMtWIlvOPMuRLUexXsaW+QV9//5f/JVCOqkcpXKVTiJXqdxJ5CpVKmdSuUrHUapUrtJxVMSYicZMNGGsCWNNmDDWhInGbDRhrAkTjZlowpiJJtMZNNWgqQZNZ9BUg6YaNNWg6QyaatBUi1Qto2qRqoZaDUS1GhoRajUQ1TRqIKppRGhUq4FQqxGCLQsLWw4s3WrhtAsLWw4sbFlYOGVhYcuBha2lh77ooYe+nYe+6KEv86qHvuihL/PQq77oocd80au+6KGHprrpKTfc9obbnnDLTW+56S0n3PaG295wym1vuOktp9y0ivUiW7bseZEtW46ex5YjW89yxpatF9my5cyzbNkyv6Dv3//DLzhK5SoZV6lcJXLlKplUrlwlcpWOq0SuUrmTyFUqjZlorQljTRhroglrTTRmojETTbRmorEmTDTWhLGmUw2azqCphplqkDqDBk01nUGDpjNoqmGmGjSdQVOpalTTiNCophGmUUMtQqOaRoRajRowjRrVEIo4ZWHLgS0LpyxstfRUS0+1sGXhlIUtB7YsbDlYeuhbPfRlvuihL3rVl3noix76Mt/qoS/z0Bd9q8c89EVf9JgJt73hlpvecsMtN73lhtvecMtNb7jltjfccMtNb7nhtsEeR8+yZet5HD3Lnmc5epat57H1IlvPY+tZtl5kz7PML+j97X/4K4VUrhyl48pRKleOUrlylI4rR6lcuUrkKh1HrlKlYqyxNhprwkRjTbTWRGPGmmitiSaMNdFYE62ZaKyJJtMZNB2h6QyazqBB0xlG1aDpDJrOoOkIDTPVMFMNo6qmUU0jQq2GWg2EWo1qiBpqNdQQ1TRqwGpUqgNbFk7ZcmDLwilbLZyysOWUhVO2Wjhl4ZQti8VjvuiLvsxDX/TtfNFDX/TtPPRFX+aLHvqib+eLHvoyX/TQtzPlU256yw033PaGT7jlhtvecMsNn/aGG2654dPecMsNN1S2nudZz7L1PM96lq2XeZatZz3Ps2w963lsveh5bD3reR6/oPe3/8UvuHKUypWjVI5cuUrljKtErlwlcuUqlSNXjlK5SqWxJloz0VgTrTXRRGNNWGuisSZaM9FYE6010URjbaSImWoYVcNMJWY6g6YjNJ1B6gyaziAx05lKzKDpCKmqRajVgNVQi9AI06imEaGGqKYRplEDVgNWBVtOWbTllIVTtiycstWBLVsObDll4ZStFk7Zsnj4Vl/moS/6Ml/0qi/zRV/00Jf5oi/zqi/6osd80Rd9O1/00JeZ8gk33PaGT7nhhls+6Q233PApN9xw2xs+5Yab3vIJN9wSOXrWs57nWc+y51nPep5n2XqeZz3reZ7l6FnP86xn2fOsxy/o/e1/+AVXiVy5k8hVIlepHLlK5SiVo1SuHKVylciVo1Qp2jDRmI0mGmvCRmMmmmjDWBNNWGuiCWtNNGGtiSaog4Smo0rMVGKmEjOVGHWmEpqOkDqD1BmkziB1xCgiENUQiDCNMESERhgiQg0RhqgBi9AIQwTlwJZTFrZsObDllIVtT7Vw2q2WbjnVtge2LJyyjfRFX/SYL3rVl/mih77MQ1/0mG/10Jf5ooe+6DHf6ose80UPTXXTT7jlhhtue8Mtn3DDTW+54YZPuekNt9zwaU/4hFtuqGw963meZc+znvUytp71PM+y50XPeh5bz3oeW896mWfZ8/gFvb/9D7/gKpGrVIlcJXKVylEqV4lcJXKVyFUiV6kSuSQKYqIJa02YsNGEidZMNGGjCWNtmGjCRhPGbDRhoo1UVWJUCamjjpAqMVOpI6SOkCp1hNSZSowqMapUqUMgYCkQYYgIBCyCIgIWgUCEUUQgwhAR/r8tB7Zse2DLloVTtiw9ZcuBLVsWTtl24ZQtC1uPHvpWD32Zhx76Mg990WNe9UUPPeaLHvoyD73qyzz0RY95aMoNN9z2hhs+4Zab3nDLDTe95YYbbnrLJ9xwyw03veWGytbzPMvWyzzLnme9yJ7neZaj53mWPS96lj3Peh5Hz/Ms8wt6f/8Pv5DIVaJUjlIlcpXKUapErhJSOUqVylEqR6kSuUrRhA0TTdgwYcNEEzZMNGHDRBsmTNhowoYJE22YMFWljpAqdUDqqFIlRhUdIXVUCalDJUaVKjFU6qgiKJIhKCIoIsgiKBDJECkoEBFkKRApYBQh2HbLgW23LJyy7cKWU5Zu2XLoli0Lp92ysOW0S8SXeeihh77MQ696mld90WMeeugxX/TQQ4/5olc95qGHvmirm95wyw03veGWG256wy033PSGG2656Q233HDTG265obL1PC+y51nOPOt5HD2Predx9DzPcuZZ9rzInmc9j6PnMZS/ovf3//ALiVI5SpXgKlGqRK5SJUrlkChVIlepEqVylCohFRsmbJgw1YYJGyZsmDBlw4QNE22YsGHKhA0TNqhCdFSpQyVERxWVGCpVdIRU0aESo4pKHZA6VKoUFCkoyFIgUlBQpCBLQUGRgiIFgiwFRQoKCLZd2LLtgS1Lt2y7cMq2C9tuObDtlgPbblm65dTSQ4951UMPPeahhx7z0EOPeeihh77MQ66+6DEPPfSYh6Z8wgk3veWGG256yw033PSGG257ww03nPYTTrjpLTfcUD3LGVvP48yznHmWPS+y52VsPY+j53H0PLZexp5nOXoe8wt6f/8Pv5CSKFEqR6kSpSRKlchVopREqRKlcpQqIVEqRwWmbDphw5QJG6ZsmLBl0g0TtkzYMGHLhA3TbpgwVYeKio4QFR0qVSA6VKroUIHUoaKiI0RFh0qVwkQKCmOpyCiaoGiCgiKFCYoUJlJQmEhBQZGgW7Y9sO3Ctlu2PbDtwrZblm457cK22y6cdmHbbaSHHnrMQw8ZPeahhx56zENGj3noodd50qseMvPQQ4+ZctMbbrjtDTeccNMbbrjtDTfc9IZTbrjpDTfc9JYbTlol8yx7XmSPM89y5nkcPY8je57H0cvYsudlbL2MrZexx1D+it7f/5tfSJUoVUKiVIlSJaRKlCpRSqJEqRKlJErkKlFKq26YsumUDdNumLBl0i0Ttp2wYcqmUzZMu2HDlE0FFRWIDhUVHSoqKhAdKio6VFRU7Qi1UqcVlaoJiiZMmEhhwkQKE01QmGjCBEUTJiiaMEHRhIlQWbpl26XbLpx2y9Jttyzd9pSlW5Zuu2XpttsunFqYeeghMw895OppHnqVNa96kqvHPGT00GOMHnqM0UNTbrjhpifccNsbbjjpDTfc9JYTbnrDDSe94YZbbnrCTStnbDljz8vYcuZF9jjzPI7seZE9L2PLGXte5Iw9L7LH/ILen//NLyRKaJUoVUKiVIlSEiVKlZAqUaKURqkSJUpJlMK2UzadsumWSbdMu2HLtBum3bDthG2nbDpl0y2TDlRU7VC1oqKi04qKqhUdqlZUMK2oqNqhomqlasJEEyZMtGHCRFMmTDRhwkQTJmw0YcJUEyZMNEGi0x7Ydum22y5su+3SLdsu3fbAttsu3XbL0m23XSIeY/SQ0WOMHjJ6jNFDZh4yesjMQ0YPmXnI6CEzU256wg03PeGG295ww0lvuOGkN9z0hBtue80pN73hhpNWybyMLWfseRlH9ryMI3ucceZZztjjzIvsccbR8zjjjEv5K/Kf/8VfKTRKlJIoVUKjVIkSUjVKSZQoVUKjVIlSEjVKCOqUTbedsu2kW7addsO2026Ydtstk247ZdtNp92yrUrVqh2qVlSt2qFqRdWqFZ1WrahaUbXTiqpVK0VbTdgwYaINUzaasGGiDVM2mrBhog1TNpqwYaINiG7Zdum2S7fddum2W5Zuu+3SbQ/ddtuFbbdduu020kNmHjIyMvOQkdFjjB4yMvOQkZGZh4weY2T00JYTbrjpCTfc9ISb3nDSG2457i03nPSGG056w0lvuOGkVTIvY48jZ5yx52Uc2eOMM848yxlnnLHljDPP44wjZ175a/Kf/8UvJKRK1JAqUUOqRAmtEiWkapSQqlFColaJElK1dNtpt90y7bbbTrvpttNu2XbabbfddtpNp92y7bbTTlu106oVVaNWrVq1aqdVq1ZUjdpp1apVq1atWinasNWGCRtt2bBhqw0bJtqwZaMNG7ZstGHCVhs2SHTpttsu3XbbpdMeOu1ph267dNttl267zcI2C9tsIxlZcsfSqyyZMTIyesiMkZEZo4eMzBgZGT3GaMtJbzjhpifc9IYTbnrCTU+44aYn3PSGE256wk1PuOGklTPJvIwz9jhyxhln7HHGkTMvY48zzjhy1pYzzjjjjEv5K/Kf/+YXUjVKSJTSKFFLokYpiRoStUpI1CglUaOURgmtus2202677bbTbrvttNtuu3TabbfdZtptt9122m23Fa1atUrVqlGrVqlatWrUTqpWrVo1StWqVat2ElRtteGEDVudsGGrDSds2eiELRttOGXDRltO2GjLCf/fNtsu3Xbpttss3Xbptku33Wbottsu3XbJttsu3UYyMjIyY2RkZGTGyJIZIyMjIzNGRmaMjIyMptxwwk1PuOkJNz3hhpNec9JbjnvDTU844aY3nHDSG24aJeOMM84444wzztjjyBlnnHHmZZxxxhl7HDnjjDPOmF+Q//FvfiGhUaKGVA2JWiU0SmiUqiFRS6JGCY1SGiW0SujSbbbddtol22477TbbLt122m2WbrvtNNtuu3SbaYdWqRqlapWqUapWqRqlapWqUapWqRql05JOqwRVJ9pywikbnXDKhlOdsOGUE2045URbTjhloxO2nHAiqV26zdJtp1m67dJttl267ZJpt12y7bZLt1k67TZLRCQzRkZmjIKMjMwYBRlZY2RkFGTGyMhMkNGUG056wk2PuekJNz3hhpOecNMTbnrCTU846TWnveakN3SSccaRPc4444wzzjjjTDIvk4wzzjjjjDPOOOOMM84Eyl+R//FvfiGhUUOqhkYJjVIaJWpoldCoIVFLooZErRoStWTbpdNsu2TbbYZuu83SbbYdsu3SbbbdZuk0S7fZVqRqlSpRqlSNUqVK1SjC35DBAAAgAElEQVRVqkSpWiVKlapVolSpGlFOdMoJp5zolBNOudEJp5xyohNOOeGUE51ywiknOuWEEVk6zbZLt9l2yLZLt9l2ybZDt9l26TZLt5l2ybZLhFGQGaMgS2aCjIyCzAQZWUrHklGQkZkgI6OtTnrDSY97wwknveGkN5z0hOuecNIbTnrDSU846TUnvaHjTDLOOOOMM8k444wzzjjjTDLOOOOMM+4k44wzzjhjfkH+x7/4hUYJrRoaJTRKadTQKKFRQ6uERg2NElo1JGpoyZJtl2w75DRDt1my7ZJtl0yzdJsl2y7Zdsk2Q7cZUiVKlShVKketXCVKlSpRSqJUqRKlSpTKVSNXqk645YRbTnTLCbec6oZTTrjlRLeccMuJTrnhlFtOdIug22y7ZNol22y7ZNuh2yzZdpql22y7ZNol2y6ZZptRkFGYIKMgozCWgoyCzAQZBUVjFGQUZCbIaMtJT7jhuCc94YaTnvSak55w0htOesI1Jz3pCTc94bondJJxxhln3EnGGWeSccZZZ9xJxhlnknHGGWfcTcYZZwLlr8j/+Ce/0KilUUKjhkYNiVoaGjU0SmjV0KghUUOjhpZUHbLNkm2WLtlmyZJtli7ZZsmQbZcs2WbJtkuWbDMkcpUolaNUjlKlcpSSyFWiVK4SpXJIlchVolRUN9xywi23uuGWW2441Q233HLDrW445ZYbbnXLCbfcMCJLtp1mybZLplm6zbZDtlk6zTZLtxmy7TZLpl2yjRRkFClVNEZBQUFmIgUZBYUJMooUxigoyEzQlpOecNyT3nDSE457w0lPOOkJ1z3hpCdc96QnnHDSmx7TcSYZd5Jxxlln0nEmGWfccTYZZ5xJxxlnknXGnWScMb8g//Of/EJDo4ZGDY0aGlolNGpoaNTQqKFRQ0OqhkYNLVmyZMmSbZYsWbJkmyVLlizZZsmQQ4acZsiSJUsGVwmOXKVy5CqRg6tUjlwlckjlyFUiV45SHKUiuuWWT7nhllt9wi233HCrT7nlhk+54Va33PIJt9zqhltGZNol2yyZZtsl0yzZdsg22wzdZpsl0y7ZZsg22w4R1gQFBQVFExQUFGQmKFJQUJigSEFGQWGCgqbccNLjnnDSE457w0lPesxJTzjpCdc94aQnPeakJ9z0hMqZdJxNxpl0nHE3GWeSccadZN1Jxhln03EmGXecTcb8gvzPf/ILDQ2NGhoaNTQiNDRqaWjU0KihoVFDQ6OGhlZZvGTJkiXbrLzNklW2WbzkkCWLlyxZsmTJ4iVLBkeOXBy5cuTIxZGrRK4cHLly5MrBlSNHLolepeiWT/mEWz7lU93yCbd8yqfc6FM+5ZZPueFTfcotn/Apt3yqgWyzzZBtlky7zZJplkyzZJtplmwzZNtthmyzZJptpKAwkYKKgoKiCQoKCoomKCgoKJpUkYKKwgRNOekxJz3pCdc96QknPeakJxz3hJMe94ST3nDS455w0mM6zqSTrDvOJOtOMu4k60w6ziTrTjLuJOtMOs4m404y5hfkf/6DX2jUQGjU0NCooYHQqKGhEaGhUUNLoxpKo4YWDzlk5SWLlyxesmTxKocMPmTxkiWLlyxZecniQ4SrFzm4cuToVQ6OXuXgyJWjF7k4cuXwIkeuHLkQfcqnfMonfMqn+pRP+ZRP+YRP+VSf8imf8gmf8imf6lM+5RM+ZUS2GbLNkG2WTLPNkG2WTLNkmyHbTLNkmiXbDNlmGykoqChMpKCioKBogoqCgqIJKgoKqiYoKKjShBOOe9ITjnvSE056zElPesxJTzjuSU847gknPeakJz2hcifZdJxJ15lk3E0mHWfTcSbdZNxJ1p1k3E3GmXSSNb8g//Mf/EZoaNTQQNTQQGjU0EDU0NBA1NBA1NDQ0Kgli5esvOTgxassXrJ4lcWLj7J48ZLFqyw+ZPHKS0YvOHqVw4scveLoRS4vcvQilxc5epHLixxe5ehFDlSf8lM+5ad8qk/5CZ/yUz7lU37Kp/opn/IpP+EDP+FTfqpP+ZSfMiJTL516myXTLJlm8TTbDNlmyNZLptlmyDZDth6yjVQUqSgoTKWgoqCiaIKKgoKqCSqKVBQUpijShpMes+lJj3vCSY856XFPOOlxTzjpcTec9JiTnnDckx63k066yaTrTDrOppOsO8mk606yybiTbjLuJpOOs+kkY35B/tef/IZp1EBoIGpoIDRqIDQ0IjQQajUQGhoRGlq8ysErL168ysEjH7Ly4sUrH7J45cWrHLzy4sWrHCy98qIXveDoVS+86AVHr3rRCy9y9MqLXvSCo1e98KIXVP2Un/IpP+Wn/FQ/5VN+yk/5KT/lU37KT/VTfsqn/JSf8lN+yqf8lIEsmWbxNNsM2XrINoO3GbLN1EumWTzNkmkWT7PNkCFMUVGkoqBqioKKgiqVCSqKVFQUplJQUVE0k55w3JMec9JNjznpcU846XFPOO6mJxz3pCccd9NjTnpSlGw6yabjTrLppOtMusmk426y6biTbDrJpuNuMum4m/LXlH/9yV8pEAgNtQgNhAaiBkIDoRahgdDQQNRAaCA08sErL175yItXXrzywSuvfPAqy1tl8ZFXXrzywSsvb+ToG170wqte9MKLXnjRi175Ri964UUvvOiFV73ohRe9iPJTfsof5af8VD/lp/yUP8pP+Sk/8FP+KD/lp/xUP+Wn/FF+yk/5KT9lhadZMvWSaRZPs/WQrYdMs3iaxdMsmXqbIVsP2XqoiFSmqCioUlFRNUFFRZWCyhRVCioqqiaoqNKEkx5z0nVPesxJT7rmpMc96TGbnnDck6456XFPesK6J0XJppNuOsmm424y6aaTrDvpJpNuOuk6k246yabjbjrhF5R//Z1faERowDQQCI0IDQRCDVEDoYFAaMBqIDRQvHorH3nxyouP3sorH3nxykdv8corH3nxyqt38Morr97wole+1qte+IYXfaMXXvQNL3rRN7zoG171wou+0Qvf8KIXUf4oP+WP8lP+KD/lD/RT/ih/lP/LGN4z3QKua1rWed33Mz7mDzE1NTYlNTU1JiUlJSY1NSU1JrApu1sEGmhEWqCwsCzLItzzHeO5TtfqvXF3tuZxvOQtL3nLG17ylpe85S0v8pa3vGRih7t0vGOXO3a5Y4e7drxLx7vcsUPXO9y1wx273LFrE4nERCIjMZFImsCUSEwkEhMZiYlEImMy9ZRz3Xoup+711HM5da+n7uXUcz1lr6eey6lbz+XUvZ5K2q1bp26dduvUrVO3nevWrVO3nbp16ta9nbp16pY/kP7Tf8IfsFAoFm4oFgqF4oVCsaFQvFAoFgqFxotyN/fku9yTu/lu7uaefDd3uSffzT25m+/mbu7Jd7mbe/Ld3JO7+W7u8Gk+zad8m0/5lG/zKd/m03zKt/mUT/Mtn+ZTvs2nfJpv+TSf8m0ob3jLW97ylje85S1v84a3vOUtb3nDW17yS97ygre85S1vWLhLxzvcteNd7tjhrh3ueJeOd7hrx7vc4Y5d73DHLnc0MZFITCQSGBOJxERGYiKRQEwkMiYSCcmUU/d6LlvP9ZS9nnquW89l67mestdTz3XLuZ66l1P3eiqp226dunXr1K1Tt247devWqVunbrt16tatU7dO+QPpP/0n/AELhULhQrFQKFwoFgqFG4qFQqF4oVAolnvy3XxP7uZuviffnbt8z9zN93B3vpt78t3ck+/mbr4n383d3JPv5nvyTb7l03zKp/mUT/k0n/JpPuXTfMqn+ZRP8ymfm0/5NJ/yab7lp/kWyht+yVve8gve8kve8Da/5C1v+CVvecMvecsbfslbfskbfslbNtzxLne8Q9c73uGuHe54h7veoeNd7niHu3a4413ueMcuDTIQEwnERAJjIoGYSCQkMhISicQEImOydS+n7vXUc9l6rlvPZa+n7vWUc916rlvPZeu5nuuWc93K1KmrW6du3Tp167ZTt26dunV16tatW6du3Tp1yx9I/9n/iT9xoVAoFi4UChcKhULhYkOhcKFQKBQuFuS7+Z7czXfne3I335Pv5ntyN98z3813c0++m++Zu/mefDd38z357nxP7uYz+ZRP8ymfm5/yKZ/mp3yaT/k0n8tP+TSf8tN8yufmUz7lp/mUT/MplF/wS97yC37JW37BL/klb/glv+CX/JI3/JJf8oZf8kt+wS95wy/ZcIc73uGuHe54h7ve4Y53ueMd7niXO3a8w13vcMe73PEOBhOIhIwEYgKRmMCQSCQkEogJjIREAjGZcq5bzvXUvZ7rlr2eutdz3XKuW89167nu5dS9nrqXc93K1NGtW7dO3bp1derWrVumrm6dunXr1q2jW7dOCX9Tfv+zf8KfKJRcKBQKhQuFQqFyoVAoXCiUFC4UCsVyT7473813c0++O9/Nd3M335Pv5u58N9+T7+bufDffk+/mbr6b7849+W6+k0/5aT7l03zKT/Mpn+ZTPuWn+ZRP8yk/zad8yqf5NJ/yI5+bj3wayi/4JW/5Bb/kl7zhl/ySX/BL3vBLfskveMsv+QW/5Je84Zf8gl+y8Tt0vMsd73DXO9zxDne9wx3vcNc73PEud7xDx7vc8Q537AQiIYFISCQQEgmERAIxgUBMYCQkEgjJlHPdutdT9nquW/dy6l73espeT93L1nPd6yl73Xoue93K1NWpW7dsnbq6devUratbt07dunVl6tato1u3/IH8T//8P+JPlBQKlxQKhZILhUJNoXChpFAoXFIolFSbu/lu7uY7uZvv5m6+k+/O3Xw3d/Od3M13czffyd35bu7mu7mT7+a7ucnHfMrHfMrHfMrHfMvHfMqn+cin+cin+cqn+ZhP+ZhP+ZhP+TbIG37JW37JG97yS97wS97yll/wll/wll/yljf8krf8grf8krdsvMNd73DXO9zxLnfscNc73PEud7zDXe9wxy53vMsd73BHJ/IXgZhAICQSCMQAw1/FBAIxgUBM+KtIVva6Za+n7HUvW0/dy163nOvWvWw9l6172XquW/a65Vwd3bpl2i1bV6du3bp16urWrVO3bh3ZunXr1K0rfyD/4//l/8yfKCmUFK4plBRKCpdUCiUlhZILhZpCSaFQ7uRuvpM7uZvv5E7u5ju5k+/mTu7ku7mTO/lO7uZOvps7c4fvzF2+ydd8zFc+5ls+5ms+8jFf+ZivfMzXfMrXfORrPuYrH/NtPvAtmDe85S1vecsb3vKWX/CWt7zlLW94y1vf8oa3vOUtb3jLWzbc4a53uGuHO97ljne46x263uGOd7njXe7Y5Y53uOsd7uiEv4qEhL8KREKAQCACCQQCmEAg/EUigUzdspdTt+x1y1637GXrXraey5ate9m6l6172bLXLaca3bpl69Stq1O3bt06dXXr1K1bt45s3bp16tYV5G/Jv/qP/xl/oqSmcInkkkpJoaSkplBySaGmpFBSUqgplDu5kzu5k29yJ3dyJ3dyJ3dyw3dyJ3dyJ3dyk+/kTu7kTu7kTr7JV77mSz7yNV/ylY/5wtd8zdd84WO+5gtf8zUf+Jqv+cLXfEzkDS95y1te8pY3vOQtb3nLC97ylpe+5S0vecNb3vKSt7xh4K536HLHu9zxLh3vcNe73LHDXe9w1zt0vcNd73CXO3Y1AST8VSAECASQECD8VSCAhACB8FchAaZs2euWLXPZupctW/a6Za9btuxl65a9bNnrli173eLolK1bt47udXXq1q1Tt65O3bLt1pGtW6du3ToS+VvyL/6v/5w/kJKSkpqSS0o0F0pKakpKSmpKCiU1JZeUKOUmd3KTTr5Jkzu54SZ3cpM7uckdbnKTO7nJndzkhju5yZ1c8iVf+JJrvvAlX/I1X/iSL7nmC1/yJV/zhUu+5ku+8CVf8yWBl7zlJS95yVte8pI3vOQtL3nJW1/ykre85CVveMlL3vKSCXfscse73LXDXe54l453ueNdOt7ljnfpeJc73LXjXe5i+NfCPwiEvwgQ/ir8g0CEBIgQIn8R/iojW/eyZctctmzZ65Ype9myZS9bpm7Zy5a9TNmy1y2Mbp26devU1a1bp26dunV16tatU7esbp26deuUP5B/+p/8x/yBlNSUlCmpKSmpKSmpU3JJSU1JSU1JmZqSgjS54SY3uUnDTS65ScNNbnKTG5rc5CY3abjJTW5yQ5NLvuSSb7jkSy75khu+5EsuueRLvnDJTb7kSy5c8k2+5JIvCbzkJS95yUte8pKXvOQlL33JS17ykpe85CkveclLXvKSl0zscoe7drnjXTre5S537HqHu3S9w13v0PUud+h6h7vehSCEvwj/IPyj8A/CX4QQIfy98A8CTNkyZcuWuWzZMpctW6bsZcuULVvmsmXKXrZsmbKF6NatU7euTt26derWrVNXt07ZOnXr1tGtW6du+QP5D//T/4Q/kDI1JTVlSmrKlNSUKakpU1JTpqSmTE1JmYqU3ORCk0saLmly4SYlN5Tc5EKTSwo3aXLhkiYXbnKTS25yyTdc5oabXHKTS77JJTe54TLfcMlNbnLJTS75JoGXPOUlL3nKS57lJU94lZc+5SVPeclLnvKSlzzlJU95yUsm3uGuXe5w1y53vEvXO9yl6x3u2uWOd+l6h7t0vcNduxj+/8LfC/+G8PfC/yz8vfBvCEyZZsuUKXvZMs2WKXuZsmXKNlP2MmXLlG2m7GXKFkanbp26dXWuq1unbt06devq1C1Tt26dunV065Y/kP/jf/af8bcEUqekTkmdMiU1ZWrKyNSUqSlTUqekTkmdMgUtKVxScqGk5ELJhZLCJSUXSi4plFwouVBScsNNmtzkJje5SZOb3OQmN7nJTZrc5CY3uclNmtzkJje5SeApL3nKszzhVZ7y1Ke85ClPecqzvOQpT3nKS57ylKe+5Fkm3KXrXe7Y5S4d73LXLne4a5c7drnrXTre5S5d79D1Lobwb5Dwj8I/Cv8o/KPwr8nIlG2mbJmbKVummbJlyt5MmbLNlClbppmyzVy2TGF069StU7euTt06devWqatbpt0ydevUrVtHt04Jf1P+g3/xL/hbAilTp6ROmToldWTqlJSpU6amTB2ZmjJ1SuqUSKWkckmlpFBzoaZQU7imUFK5pFJSqLlQU+jkJnemSSc3aXInTe6kyZ00uUknN+nkJk3upMmdNLkzgac85Vke8pSnPOWpT3mWpzzlKQ95lqc85SlPeepTHuUpT5nQ5Y536XqXu3bocte7dLxLl7t2ueNduty1yx273OWuBOQvgvxr4e8Z/kHk7wWB8D+T8BeGvxqZZso0c9lmyjRTtpkyzZRtpkyZZss0U6aZss1cpjC6derWrVNXp26dunXr1K1bR7ZO3Tp169apW0eQvyX/h//8v+APTJ0ydcrUKaNTpk6ZOiV1ZOqUqVOnTB2ZOmVqSqWkUlOp1FRKWgo1NZVKTaVQU6mpVGpKOunkJp100kknnenkTpp00kknnXTmJp100kknndxJMwlPechTHuUpD3nqozzlIU95lKc85SGP8pSHPuVZHvKUhzxLQte7dLlrl7t2uOtdunS9yx263qVrlzvctctdu9ylqwEJAuEvDH8VRMLfM4AE+deCQAQM/2BkbkbmZmRvxsxlzFzGzM3INFOm2WbKNFOmmWbKNFMYnbp16tbRrVO3bp26deqW0b2uTt06devUrVO3/IH87/+Lf8nfpCNTt6RuGZ06ZeqW0SlTp04Z3TJ1ytTRLVOnpNYoLTWVlhqlpabSUqO01FRaapSWmkpLiZNOuulMJ0666aQznbjppJNunOmkk24604mbTjrpTMJDnuUhD3nIozz0IU95lIc8ykMe8pRHeehDHvIoD3nKozwkoetduna4S9e7dL1Ll7t2uUvHe+h4ly5d79L1Ll3uSgAjfxEEokAQiAJBIBBEgkAQAcNfBaeZMs00KWOmmWaaKdNMM2WaaaaZZsqYaaZMM800aZg6devqXEe3bp26deqWabdO2Tq6devUrVO3Tt3yB/Lv/5f/FX+TjGydOmV1ytStI1O3Ttk6OmXrlNWpU7aOTtmaYqm02LS0KG0sLS1KmxZLm4qlpY2lYmkpcdKNO524cacTN904042b7jjpxk1n3HTjpDtunHTzFw95yKMceZSHPOTUhzzkUR5y5FEe8pBHfcgpD3nIoxx5lIl36XLXLnfp2uWuXe7S9S5dut6l6126dL1Ll7t2uSsBDQTBSBAIRoEgEgwCUSAYBYJAMBKZZppp0kwZM800aaYZM80006SZMs00Y9JMM800MaRunbp16tbRrVO3Tt0ydevU1albp26dunXr1C1/IP/ev/yv+ZtkdcvUrSNbp25Znbp1ZOvWKatTt4xu3TJ1dcpUi6WXNhYvLZYWm14sLV4sLTa9WFosvVjaKG7c8cSdbty448aNO564cacbN+64ceOOJ26648adhIcceZQjpzzk1Iec8pAjpzzklIee8pAjpzzklIccedSEu3TpepeuXe7S9S5dut6l61269NjhHrrepUvXu3QxRoPhL4wGgWgQDQSjYCAKBiNBMBgBR6ZJZ5o0Y6ZJM82YNNNMk2bMNGmmmSZmOlPSGTONU6dO3bo6devUrVO3Tp2yderWqVunrk7dOnXrlD+Qf/df/jf8ga2rW6esbl3dMnXr6papq1u2rm6dsrp168rUqV4sXnrxxtKLF4uXXrxYvHhp8eKljRcvXlq8KJ5x4xk2nrjjCTueuOMJO5648YwnbjjjxjNuOOPGk784csqRUx5y5NQjp5xy5JQjR0498ihHTjnlyJFTjwTuoWuXLnft0uWuXbrcY5euXe7S9S5dut6lS49d7kKMgsFoIAoGo8EgGgxGg0gwGA2iwWCaMWmmk2ZMmmniTDNNmphpppNmTJrpxEyTZkya6Th16tbRrVO3Tt0y7dQtW6dO3Tp169Sto3sdnbrlD+Tf+a/+FX9g68rW1a1bV7ZuXd2yunXr6patq1u3rmxd3TrVGy9+8eLVixcvXvzipRcvfvHixYsXL1784sWLF8UznLjDY9xwwhlPOOMZTjzhjCec4YwnnHiGM55wxhNOMnPqyimnHNly5NQjW045suXIqUe2HDnllJVTj2xJ6NrlLj107XLXLl3u2kOXrnfp0vUeunTpepceu9yFGA0Go8FoEA1GQ4PRYBSMBqPBYDQYjaQzJp00Y9KZJiadMWnSGZNmOjFpphOTZjox6Uzj1NWpW6dO3TLt1inbTpm6derWqVunbp06devolj+Qf/v/9t/yB1a3nrq6ZXXr1qNbV7aeurp1despq1tXT926OoUvfvHqFy9+8YsXvnjxi1+9+MUvXvzihS9+8eJXL36x4RHO8AhnOOExnOERznjCYzjDCY/hhDM8xhMewwlneIQzPCbDllNWTtmyesrKllNWtpy6suXIli1Hth7ZsuXIX/TYpctdu/TQ9S5deuxyl649dOna5S49dulyl649EKPB2GAUHA1FB9HgUDQYDcYGo8FoaDRmmjhp0hmTTkw608RJEyfNOGnSiZlOTDppxkkTx9TVqVunbp06Zdsp206ZunXq1qlbp26dOnXr6F7+QP53//V/z98S2Lp66uqpq1uPbj1l9dTVrUe3Ht16dOspq1uPbvWLX/zAV7/4hS9+8atf+OIXv/DVL37gi1/8wle/+MUvfLHwmDzCGR7hMXkMj/AYzuQRHsNjeCRneAyP8Jg8hhMew2N4JI/hkcxs3bKyZcvK1i1bVrZsWd2yZWXLli2rW1a2bCF26dJjl7v00LVLD13v0qXHLl16vEuXLj126XKPXYjR0GgwdjAaGo0NRoOxwdjgaGwwGhoNTRMnnZh04qQZJ02cdGLSiZMmTjox04mTJk46Mek4OtfRLdNunbJ12ilbp26dOnXr1Klbp26dunXqlPA35X/7f/8f+Ns89cjqqaeunrp66tGtR7cePXX11KNbj566euqpo3zwA1/8yBc/8NUPfPEDX/3AFz/w0S988Csf/MIHv/LBD0gew2PyDI/JY3gkz8ljeEwe4TF5Do/JI3kMj8kzPCaP4TF5Jo/hMXlMli1TVrZM2boyZcuWKatTtmwZ2bJ1ysqWKVtGAz3cpccuXXrs0uUeu3TpoWuXHrrepYcuXXvo0rUHYjQ0GhsaHYyNhsYGR2ODsbHBscFoaOxgGpx0YtKJEyedmHTipBOTTpx0cMakQydOTDpx0nF0ytapU7dOu2Xq1K1Tt06dunXq1K1Tt06dunXKH8j/5r/5f/IHTj166uqpR4+eevTU1VOPnnr01KNbj5569NTVU0/1Kz/wwY984Qc/8sUPfOQHvvoDX/jRL/zAVz/wkQ9+4CM/UPKcPCfP4TF5Js/JY/KcPCbP5Dl5TJ6T5/BInpPn5DF5Tp7JY/KcPCePyWbqlikjW6ZOmbIyZcrULSNTtkydMmXLyJSpWwhdeuja5R669tClxy49dOnaQ5ceu9ylh649dOnaAzEaOjY2GDs2GBsdGhsdGhsNHRsNjR0NjY1JJw5OOnHipIMTJ5046cShExM3DU6cdOKkgxPHyNapU7dOnbp16tapU7dOnbp16tStU6dunbp1yh/Iv/Wv/kf+wKlHj5726KlHTz166tGHnnr01KNHTz321KOnHj31VD/wIx/4yA985Ac/8CMf+JEP/MgHP/IDH/mBj/zAB370Az+m5Dl5Tp4zr8lz8pw8M8/NM3lOnjPPyXPynDxnnslr8pw8Z56T5+Q585w8k52pU6aMTJk6JWXKlKlTpoxMmTplypSUKaNTpvxFD1176NJD1x669Nilhy736HIXD3f1cJceu/TQpUfi2GDs2NihsdGhsbGxg7FjY0NHY0PHxkaHxtCJE4dOnLh04sShEycOnThxcNKJg5sOTpx0cBidOnXr1Klbp07dOnXq1qlTt06dunXq1K1Tp275A/lf/z/+X/yBU48+6tGjpx770FOPHn3Uo6c+9GnJjRkAACAASURBVNhTjz7q0aOnPuypW/MDP/KBH/mBH/mRH/iRH/iRH/iRH/jID/mRH/wxP/AjP/AjP9LMK3nuPDOvyXPmNXnOvGaek9fMc/Kaec68Js+Z1+Q585p5Tl4zz8lr5jnzmmympkxJmTI1ZSSXkdQpKVOmpE5JmZIyNWXKFEPXHrr00GOXHrr02MXDPXbpoUsPrj106bHLPbj0SIwdGzs0NnY0dLzRsaGxY8eGxo6NHRobOzY0TVycOHTi4KaDExcnDp24OHHoxMVJBycObhw6jE6dunXq1K1Tp26dOnXr1Klbp07dOnXq1qlTp/yB/K/+2/83f0vg1KMPe+pDjz7q0Yc99aFHH/XYRz360KOnPuypDz36qKfyI7/lh/zIb/iRH/lNfuS3/MCP+S0/8CO/yY/8lh/4Mb/hR37kNynzmnnOvGZeM6+Z18xr5jV5zbxmX5PXzGvmNfOaec68Zl4zr5nXzGvmNfOaeW02KVNTUlJSp6SkpKSmTElJSU2ZkpKSmjIlRfB4D108dumhh649dOmhxy49dOnBY5ceeujaQ5ceSMfGjg0dGzvesaGxY8fGjg0dG+/Y2LFDY2PHxuDExaETFwc3HRzcODhx6eDGwcGNQzcODi4O0a1Tp26dOnXq1qlTp26dOnXr1KlT9zp16urUKcjfkv/lf/f/4Q886sMefdSHHvuoDz36qA979KGPeuxDH/Whxz70UY8+7KOeym/zG37kt/ktv8lv+S0/5Lf8Nr/ht/ktP/Lb/Ibf5rf8kN/y2/yG3+Yy79nXzHvmNfOaee2+Z14z79nXzGvmNfueec28d14zr9n3zGvmNfueec28Zt+TndSUlBRqSkpKSq6UlJSUVEpKSmoKl5SUVEIPXXrosUsPXTz20EOXHnvo0kOPLj300KXHLj30kDR2bLxjx8YOHW/s2HjHjg0d79jYseONHRo73rEY3Dh0cXHi4uDi4KaDi4MbBxcXJ10cXBzcOI5OnTp169SpU7dOnbp16tSpW6dOnevqXKeO7nXKH8j/4r////IHHu1DH/pojz70oY/2oQ992Ed96LGP+tCHPuyjPvRhH3rqQx8tv8nfyW/z2/yd/Da/yW/5bf5OfpPf5u/kt/ktf2d+k9/y2/yd+S2/yd/Jb+cy79n37GvnPfueec++Zt8z7933zHv2Nfveec++Z18z79n37Hvmvfuaec++Z9+bk1yoKZQUai6UFEoqhUsKNYWSwjWFkkJJFXrosQeXHnrooWsPPbj02EMPXXrw2EOXHnrswaUH0rHjjR073tjxjh0b7tjxxo53bOx4x46Nd+xwx8amgaUDSxcHN65OXFwcXFwcXFxcHLph7MbFxXF0/n+MwduOrtuSntUnInr/M9clsBMgEAgECAQCgTjhkItHMgVlF2WXyy6Qxd6nIzO/eB9yzLUWdThHa7HjxI4dO07s2LHjxI4dO87a2mvHjhM7duw44RfUv/Z3/5LfU3D1mqtXb3L16jWvePWaqzdec/XqNS+98ZqrV29y9UZ+WD+sH9aH9UN+WB/WD+qH9cP6kB/WD+vD+iE/rB/Wh/WD+mH9kA/rh/XDWuZ95r3nvecPPe8z7z3vPe89f5h573nvee95n3nv+UPPe8/7zHvPH3ree95n3nveu//QfbpWQwUCkYVAYCESKhBYCQQCkYVAqMhCsMghxwwecsjBY4YccsjBY4YccsjBMYcccsjBMYccqLRpt0275bZpt027bcpt026bdstt026bdtuU224bLBwcHBxsHBwcHBwcbBgyOjjYMDhkcHCgcSztOLFjx44TO3bs2HFix469TuzYsWPHjhM7duxQ/K76V/7uX/ILrl7z0qtXb3L16stcvfGaqy+98ZqrV1/m6o3XXL16Y/2wfsiH9cP6YX1YP6wf8mH9sH5YH9QP64f1IT+sH9YP68P6Yf2wPuQH9cNe5r3nvee9533mvee95w89bzN/6PPe897zPvPe897z3vM+897z3vPe533mvee9573nffoUgUggEFgJBAORhUAgEFkIBCKBhUAkWOSQ0UMOOeTgmEMOHnLIMQeHHHLIMQeHHHLwmEMORcq0226bdsu0226bdsu029k27bYpt0277bYpt902WDg42Dg4OjjYODgy2Dg4ONg6ODjYODg4OnZsndixY8eOEzt2nNixY2vHSTp27DixY8eOEzv8gvpX/+7/5Re89Mar11x96dWbXL360qvX3Hj16stcvXr16iu5evXE+rB+WB/Wh/ywPqgP60N+WB/Wh/XD+pAP64P6YX1YH/Jh/bA+rA/5oH7Yy7z1vPe897z1vPe8zbz3eet573nreZ9563nvee9563nveevzPvPW897z3vPW89bzPn2KQCQQWIgEgoFIIBCIBBYCgUggEIgGigw5eMwhhxw8ZsjBQw45esiQg4cccszBQwaPOeRQlUrabdNuuW06W6bddtt0tky77bapbJt2y7Tb2TbtYmNr48Bo42DjaOPAYONo42Dj6EBj4+hg49jaScfRjh1HO3ZsM7Fj68SOnbRO7Ng6sWObiR1+Qf3r//z/4RdcvXr1pTe5evXq1ZfeePWaqy+9evXq1auv5OrVqzfyYX1YH9aHfFCf1of1IR/Wh/VBfcin9cP6lA/qw/qwPuTD+rA+rR/ySS/z1vPW89bz1vPW89bnreet563nbeat563nreet563nree959Xz1ue9563nreet5216ikAkEAhExMBCIBIIRIRAIBAJBAOBaOEho4cccvCQQ44OOeTgMYccHHLIwWMOHjLk6CGHKsvtbJl2Oym33U7aLdNuZ8u06Wy5bTpbpt12Oym3DRa2Ng42tA62Ng62DDY2jjY0jja2DjQ2jratrRPbdBztpHW0Y+skHVtHO2ntONqxzcTW0Y78vvo3/tn/zS+4+tKrV69efenVG6+5cvVlrlxz9epLb7x69erVl55Yn/JhfVCf8ml9WJ/yQX1aH/JpfVCfqQ/4tD6sT/mgPq0P+bQ+rE/4sJd563n1vPW89bx63npefd56Xj1vPa+et55Xz1vPW8+r563n1eet59Xz1vPqeet5dZ8iEAkEgkogEAhEAoFIQAgEooGAEIgWHjLk6CEHDzk45pCDhxxy9JCDhwwec8jBQ44eMlBp09kynW1TbifldlJuZ9uU20m7lbTbbiXtdlJum8piYUNr42hDY2tjS2PrYENrY2vDYOlgS2Nj26TjmNbWiW1GWzsZbR3TsbXNaOskra1jOo62/IL6N//2/+IXXL169epLr169evWlV665cvXqK169evHGl169evVGPq1P+LQ+rU/5pD6tD/m0PuWT+rQ+5dP6hE/r0/qQT+sTPq1P61M+6WVePa+a18yr5tXz6nn1vPq8et56Xj2vnlfPq+dV8+p59bz6vHpePa+eV8+r59U9RUAJBANKIBAIKIFAQAkEAwElEIiIRQ4OOXjMwUMOHjLm4MFDjjl4yMFDRg85eMghRw9gu5Vt09kynS3T2UraLdPZzpbpbJnOlulsmc62qWy7WNja0Nra0NrY0tjYWtDa2NLa2NrQ2NrQWjZpHW0z2qZ1tM1om9bRNqNtRlvHdGwy2slgB4rfU//W3/6f/IKXXr169crVqy+9euPVCze+9OrVq1deevXq1atXb6wv+LQ+5Yv6lE/rU76oT/m0vqxP+LQ+5cv6hE/ry/qUT+pLPq1P65MK86q5Pbfn1fPquT2vPrfm1XN7Xj2359Vza149r57b59Vze141t+fVc3te3VMEIkIwEBECASESEIJKICBEAkIgIJYZPOTgMQcPOXjI0SEHDzl4zMFDDh5zcMjBQ44eKDtbSWfLdLbcTirbprKdlNtJZdtUtk1lOym3k8q2qSwWlDa2lDa2NJY2tLYUtha0NraUNrY0ljZ0WpuMthltM9imdUzrmMYxrWMax7SOaR3SOqblF9S//U//D35PwdWrV6+89OrVK1evvvTK1atXr7z06tWrV1569eoJ9SVf1id8WV/yZX3Cl/Uln9SXfFmf8GV9yaf1BV/Wl3xSX/JlfVpfVJhbc3tuz+25PbfO7bk9t+b23J7bc2tuz+25fW7N7bk9t+fW3J5Xz+3uIqAExIASCAgBJSAGhEhACCgBMRBpcnDIwWMOHnLwkKMHhxw85OghBw8ecvSQwUOOHigr20ll21S2s2U6qWwnlS23k0o6W6azle2k3Eo6qWy7WFrSWNpS2FLYWtJY0lrSWNrSWNJY0lrYUmlsM9hmsM1okzGNY1qHtBlsM9pkTOOYwTajjfy++nf+5n/nF1x96cUbLl65+tIrV69eufrSK1evXrn60itXr165ypf1BV/Wl3zJF/UlX9SXfFmPfFFf8mV9wZd8UV/yZX3JF/UlX9ZDLXNrTs/tuTWnz+m+dW7P6bk1p+f2nJrbc3pundtzem7N6bk9p+b2nO4uhIggBIWIEBAiQlAIKEJAiAoBIdg65ODBQ44ePOTgMQcPGTx4zMGDhxw85uDBQ44OlJ2tpLJtKltJZyvpbCWV7aTcSjpbSWcrKbeTylbS2UoQaSwpLWksLWkpLCltLCltKSwpbSksaS0pmzQOaTPYZshgmyGNY5oMaR0y2mRI65AmYwabX1H/7t/8C35PUVevXrn6kqtXr1y9cvUlF69euXrlpVeuXr3y0itH+bIe+LIe+JLH+oLH+pIHvqxHvqgveeDLeuSxvuDLeuBLHvmiw5ya03NqTs/pOTWnz6k5Pafn1pyeU3N6Ts+pc3pOzek5Pafm9Jya091FQBGCghIQhIDfICBEBCEoKAFBCJYecvDgIUcPHnLw6CEHDzl4dPCQgwePOXjIwaMHsLKdVLaSzlZS2Uo6qWxnK6lsJZ1UtpJ2K6ndNpWtTbtaiLSWlBaUlJaUlha0lJaUFpSWlJSWFJZUutI6pMmQwSZD2gwOaTKkcciQNoNNhgxpHNJkAPk99e/9k3/BL7j60iMvvXLxypWXXrl65eqVl165eOXqS65euXrlaD3wyEN9ySMP9chDPfLIQ33JIw/1yAOP9cgDX9YjDzzWQ4WZmtNzaqbn1EzPqTM9p2Z6Ts30nJrpOXWm59Scnqk5PVNzeqbnVFchKAFBFCKCIEQFQQgoohAQFCEgFh5z8OAhRw8ePOTg0UMOHjzk6OAlg0cPOXjw6AGsbCeVVLaSzlZS2dp0tpLKVtLZSipbSWcrqU1lO6lsJYiUIiWlBRULSkqR0pKS0oKKBUhpSWlJSdmkyZAmQ6Yy2GRIkyGDTYYMaTJkKo1DhjQZ0mT4FfXv/+P/jV/wkisXr1x9yZWrVy5cfcnVK1evXLn6gqtXrlx9yREeWeuBRx5q5ZEHHmvhkUeWeuSBx1p45KEeWXngsZYKMzVTMz1TMz1TZ3qmZmqmZ2qmZ2qmz9RMz9RMz9RMzfRMzfRMdRdCRBQEQRECgqgIQsBvIAhCRBDEIkcPHjzk4NGDhxw8ePSQgwePHnJw8OIxBwcPHilrt5LKdlKbylZS2U4qW5vKVlJJ71ZS2Uo6W5tKKltJZxUtQUpLkNISpLTkW8UCpGIBUlqClpSglSFdGTKkK0OGTNlkyFSaDBnSlSFDujJkyFQah0yl+RX1H/z1/8ovuHDl6kuuXLxy5epLrly5eOXK1ZdcuHL1ykuuXD3CWg+sLKz1yMIjC2s9sLKw1iMLjyys9cDKUo8sFWZqumZ6umbqTHfX6ZrpmZqumZ6umZ6uMzXdMzVdMz1dMzXT09VVCIogCoIiCKKgBATBbyAIguA3EAuPHjx48JCjBw8ecvDowYOHHD148OAhRw8ePHiA1G4lldRuJ2R7U9lKKqndSjpbm8pWUpvKVtLZ2lS2NpX4jRKwAlKCIiWlCFKKlCClSAmhFEFKyVSaTGUqQ7oyZCpNpjJkKk2mMmQqTaYylSFdGTKVIV38gvoP//rv+AUvuXLl4pUrL7l64cqVK1deeOXKlasvuHLlypWLN7CwEllYa2FlYWWplYWVhZWFtRZWFiJLrSwVpmu6pmu6p2u6Ttd0T9d0Tdd0T9d0TfeZmqqZmu7pmq7pnq7T9Q1BEURBUARBFBRBFAQk/CQKiiAWHjx68JCDB48ePHjwmIMHDx49eMjBowcPHjzkWFhJ7VZSu5XUbiWV1G4n7HZSm8pWUruV1G4ltalsbSrprCIoQihBEaQEJSAlKIIgFVAEKUERMpWuncpUhkylK0OmMpWuncqQqXRlKkOmMpWuDDuVqXRlCuT31H/0v/xzfsGVKxeuvOTKxStXrrzgypUrVy+85MqVC1euvPTCERYiC2sFVgIrgZWFWAuRhchCZGGt4FKRtWSqp2uqpmuqpnu6TtV0TfV0TdV0TdV0n6rpmqrpmqrpnqrpOvUTgvJNFARFEAFBEUT5SREEURAQsfDg0YMHDzl68ODBg0cPHjzk4NGDBw8ePXjwkEORSmq3ktqtTSW1W0ntVlKbytamsrWpTWVrU0ntVlK7ldTGbyAIAUUQhICgCAFBELQCgiBEBCFTaTKdqR0yna4MmdrpDJlK9w6ZylSmMpWuTO1UpjKVrp3iF9R//Ff/jF9w5QVXrly48pILV65cuXDlJVcuXLly5cJLrl7rwlUDS0UCkcBKIBKIBAKRhUioaKiVQCQQKkzXVE3VVE3VqZqqqZrqqZqqqZqqqTpVUzVVUz1VUzVVU3Wqpn5CUOSbgqCAgiAggig/KYIICIoIFB48evCQgwePHjx48OjBgwcPHj148OAxBy4OOUAq6d3akNRuJbVbm0pqtzaVrU1tKlub2lS2Nmw6W5vaJUEDgiIGBCEgCEFFEAKiEBCUgCgI25WpTGV6pzKVqXTtdKYytVOZynSmtitTmdrpTGVqpzKdqXRR/K76T/7qb/k9BVeuXLlw5SUXrnXlwkuuXLlw5cqFl1y5cOXKtV5whEhACUQCASUQCQiRQEQIRAIRIRKIJVM91FQNNVVTdaipGmqqhhpqqqbqUFM11FQNNVVDTdWhpqooBOWbCAgCKj8JAirIT4IKyE+CChQePObAwUMOHHPg4CUDx1wcOOTqwYMHjx48ePBQhE3t1qaS2q1NbWqXpHZrU5vK1qY2tcumktqtTW0qW5vaVcSAKATEgCAGxICopPAbBEQhIAbEdO10pjK9U5nK9E5leqfSnVPbnalM7XSmdjpTmd6pdOfUdmWa4nfVf/qP/im/4MpLLly51oUrF15y5VJXrly58LKuXLhy5QXXunLhCEpAUAJCRFACYkRKDQhKQAkIihBKhhoYaqihhjrUUEMNNdRQQw11qKGGGmqooYYaGOpQTQkooPwkIKL8JN9UvslPIiI/iYAiNh48eOSQAwcPXj148ODRgwcPHj148ODRgwcPHiC1qd3a1KZ22VRSu7WpDbu1qU1la1MbdmtTm9qtTW1qlwQNCkExIAbEoBAUxGBAFIJCUAyIgXRlaqczvVOZ3ulM7XSmM7XTmd6pTO90pnY605na6XTvVKZ3muJ31X/2D/+G31Nw4cqVa1248qKuXLlwrZdcuHKpK1cuvKwrF65c6soVREUQFEFQREUQFPkpIt9Uwk9KAEvGGmqsocYa6lgDYw011FhjDXWokbGGGmqsocYaOFZRyE8KCAiICMhPIvJNvikg30RAflIbDx48cvDgwauDFw8ePHrw4IGjBw8ePHrw4MEDpDa1Wxs2tVub2rCp3drUpnbZ1KZ2a8OmdmtTG3ZrU5vaVYNCSjEoBgNiUAwKQTEoBsSUQTEgblemdzrTO53pncr0Tmd6pzO905na6Z3O9E5neqczvafTvVOZlt9X//lf/hN+wYUrL+rKlUtdudSVKy/qyoUr13rBtS5cudaFK5d6yZGfFBEQEPmmIj8p3wQVkJ8U+abyTQsmNdSkhho51lhjjTUy1lhjHRlrrLHGGhlrrGONNdKWgPIb5U9U/kT5jYj8RgEB+RO18eDBA0cPHrx49ODBA0cPHjx49ODBAwePHrw4QGpTG3ZrU5va5Ult2K1NbWqXTW1qU8+yqU3tsqlN7daGjUYMBsVgSjEoBoNiMGgZFINiMJhSDKZ7pzO90zud6T2905nZqczs9E5neqd3OtM7nemd2elM7/ROZ5rid9V/8Zf/mN9TcOVSV65c6sqLunLhWlcudeVFXbnUlWu94MqlrlzrwpH/n8g3AQEBAQH5Jt/km8gfKSDfLBlrUmNNGGtSRyY11qRGJjXWyEmNNWGsSU1qZFLHGqtFAfmNgICAgHyTbyLf5E9U/kz5qfXgwQNHDx68ePTAwYMHjx48cPDowYMXjh48eMDUhk3t1oYntVsbNrWpZ9nUhmdrU5vasFtPasNubdjUs7VRQ1KKwWCImDIoCQYtgyFBMZiKGAyKITu905nZ09u9ZzK90zuT6Z3emZ3O9J7Z6UzvzE5neqd3ZqczvWf4BfVf/s9/ze/zWpe6cqmXXOrKpa5c6wWXunKtC9d6wbUudeVSV671gkOJ/JklfyZSfBP5o0K+CViA/EZ+KpgwqQmTmtSEk5owqUlNmNSkJpzUhElNasKkJjXhpCbVIt/kN8qfKT8JCAjI3xP5Jt/kJ1sOHjxw8OjFg0cOHjx44OjBgwevHDx48MjBgwdIPWFTu/WETW14tjZs6kntsqkn7NaGJ7XLpp7Uht16Uhs2mmCIZUgwxDIYEgxJKQkGU5EEgyGWIcFU0rPTO7PTe2anM7PTO7OnM7PTO7PTO7PTmdkzO70zmd6Znd6ZnaH4XfVf/U9/xS94Ude6cK0L17rUSy51rQvXutRLLnXlWpe6cK0XdeVSVw4FWPKtoBApvllQiBQ/FRagBcVPpUAhUBbM1qRmmdQsJzXLpGaZ1GxNmK0TZmvCbE2YrQmzdcJsTWhLQED5eyK/kT8SkL8n3wTkT2w8cvDA0YsHDxw8evDAwaMHLxw8euDgwYNHDh4gPKlNbXi2NjypDc/Whie1y5PasKln2dQTNvVsbXhSG3brSYxlSEjKkJCUIWJIKiHBkJSSkJQhwVRCQsSd3pmd3jM7szOZ2ek9szM7vTM7szN7JtM7szM7s2d2emd2JtN7Rn5f/dd/8Y/4BZe61LUuvKxLXbnUtS5c60Vd68K1LnWtCy/rUlcuda0Lh6KgsKCksKCwoKSwoKCwpLCgsKCksKCgsCiZZZZJzTJbZ5mtWWZrltmaZZazNctszTJbs8zWLGdrltnqIN8E5E8ESn4jfyLyZwIFKH/PxiMHDx64evDAwaMHDh48cvDigYNHDxw8euDiAeXZ2vCkdnlSG57ULk9qw5N6lg1PasOz9YRNbXi2nrCpJ2w0IamEhKQSEkwlJCSVkJCUIVZCQlIJCaYSErLTO7Mze2ZndmZn9kxmnpnMPGcyszPPTM7szM7szM7smZ3ZmZ3ZM/yC+m/+4h/yC17Wpa51qQvXutS1XtSVS13rUpe61guudalrXbjUy7rWpQ5Q2FDYUFjSWFDQWNBaUNhQ2FJY0FDYUFoUzNY8zNY8zDJPnWWemmUeZmseztJPnWWemmUeZmsezjJPzTJPdbD4jfJnhchv5DeFfBMQKP5I5Fsh0Hjk4MEDVw8eOHjk4MEDF48eOHjg6MELg1cPHDBs6glPasOzPKkNT+pZNjypJzzLpp6wqSc8y5Pa8KSeZcMTTSohqYSEpDYklZCQVEJSCUklJCSVkNQGQ1IbsjPPzM7smZ2zM3tmZ3Zmz9mZndmZndlzdmZn9swzs3P2zM7szM7ZM/yC+m//x7/kF1zqWpe61ou61qUuXOtSl7rWi7rWpS515VLXelGXuta1LnUoWhsKGxobWgsaGxoLGhsaWwobGhsaCxrbgnlqHuZhnpqH8zAP89Q8zMM8NQ/zcJ6ah3mYh3lqHuapeTgP8zBPdZBvUnyT3xQi3wr5EwsQsPgjCxAQKGg8cvDggYtHDh48cPTAwQtHDx44eOTigYNHDxxAnuVJPeEJz9aGJ/WEJ+zWE57wpHZ5whOe1BN26wlPeFIbntUsSSVsKiGphE0lZGtDUgkJm0pIakNSWZLakFRCdnrn7JmdeebsmZ2zMzuz5zwze87O7Jw9s3N25pnZc3Zm5+yZnbMzzxkofk/9d//gL/g9BZe61LUuda1DvaxLHepaL+pYl3pZh7rUtS51rUtd+sqlr3WAxsaGxobWxobGxoLG1obGxobG1obGxobm2zzMwzw1X8zDPDUP8zAP89Q8zMM8NQ/zMF/MU/MwD/PUPMzDPDVfdPhmAfKt+Hul/FnJHxW/0eJPit9I48EDBw9eOXjw4IGjBw4ePHjg4JWDBw8eOHrggLLhSe3ypJ7wpDY8qSdseLae8KQ2PKknbHi2nrCpJzypJ2w0YVMJSe2SVMKGpBI2JJWQ1IaEbG1IKiFhUwlJ7c7szM48c/bMztmZPfPM2Zk9s3N2Zs95ZnZmz9mZnbNnnpmdszN7zs7I76v//h/8D/yCS13r0tc61LUufa1DXetSl77WsS51qWtd+liXutaljn2pQ9nY2tDY2Nja2NDY2NrY2NjY2tDY2Nja2Hybh3mYp+ahH+apeZin5qEf5ql5mIf5op+aZb6Yp+ZhHvqpeZiHeaqWKkC+Fd8K+Vb8UaFF8U1+U8VvpPhWfJOCxoMHDx48cPDowYMHDxw8ePDggYMHDx48/H+MwT/PrwGXDeD1Z9+/5/MpdRoJDSIRhYJCIgoKBYVEFBSKaSQ0JJrXGGYGiVKpUyrPvfdazvkE57muDjDtAC0u3PCCDTe8YMMLNrxwgws3vGDDCza8cIMNL7hww02R4A4JEia4IGGCBBcmSJDgygQJcrgwQYIEFyZIkLNufPZ5zt7x2WffzNlrn33j85y947PPc/aNz177Zs4+G9/Av/A//wS/x6ec8oGmfMCpHvCBpnzAqR5wygd6yikfaMoHfKoBn2rABxywRIwKVStUqFqhQoWqFSrUKBG3QoWqFSpUqFoBhBZe+oWOXviFjl5o4Zc+aOGXlcVtjgAAIABJREFUWvjgl1p4oaNfeKmFF1oqIAqC+IUoAAIgiAIgABYA8QtZAMRPJX4hAZRAhQ46wKCDDjrooIMOanTQQQcddNBBBx100GGNDjroAAi3vPDCDS7c8MILLtzwyg0vuHDDCy/c4MItL7xgw0ubIOEFCRIkSHBlggQJElyQIGGCCxIkSJngggQJctbZa9/47LNvvPbZ5zlrZ84++8Znn732jc8+e+0bn302voF/8X/8Ad8w1QNONeBTDTjVA0414FMN+FRTDvSAUz3lQFM+0FQDPpXBqhEq1KgaoULVChHqVqgQoWqFuhEqVKgaoULdAl5q4YWWWnihpRdaeqGFll5o6YUWOnqhpRdaaOmFFjqSJUD8VAIkgBIgQJQACKIEiJ9KgARR4hcCZAlUqNEHNTrooIMOa2TQQQcd1Oiwgw46yKCDGh120EEHaHnhhVdeuOGFF15x4YYXXnjlhRteeOWFF2545YUXXtoECRJckCBFggQJElyQIEXCpBcmSJAiQYIEFyTIWWefffaOzzr77B2fffbZZ+/47LPP2vHZZ5+947PPPhvEb/Ev/Y//hN/jU0410JQDTfWUA0014FQDTflUA0050FQDPtVUA005kMEKVSPUiFohQtUINaJWiFC3QtQKEepGqBC1RoSftNDCRy200FILL7XQUgstvNRCRy280FILLb3QUgstFBAgQJQAWQIEhJ9KQCwBAkQJECBKgCwBAkQJCK3YQQcdxOyggxoZdtBBjA467CCDGh12EKODDjqM0QFQXnTlhVdeeOGVF1541YUbXplwwysvvOjKCy+88sJLmyBFggQJUiS4IEGKBAmSJrgiQYIEKRIkSHBBipy19tlnnb3js886++wdnX322Wvf6Oyz1zr7xmevdfbZIH6Lf+W//wd8w1QDTTnQVFMNNNWAU7kaaKqBppxqoKmmGmjKgaaaylDUGlEj1I0QoW6ECFVjRK0Qo2qEqDGqRohQN0IJLbTQ0gsuvdBSBy210EJLLbTUQkcttNRCCy210FELHQiQEEqAqACiAggQFUBWAAGiAogSEEqAgFgCAqrW7CCDmhl0ELODDmJ2kEHNDjKomUEHMTvoIGYHHaBgwouuvPCqC69MeNWFV1540ZUXprrwyguvujDlRZc2QdoECRKkSJA0RYIEF6RImiBFggQpkiZIcUGCnHT2WTs++6yz17rxWWevdfbZOzr7rLPXvtHZZ6191tkgfot/47//e/wep3Q18JRTGZ5yqoFcTznQ1C4HmmogV1MNPKWrgac0FCFqjKgxokaoGyFqjKgRYkStETVC1BhRa0SNUEILLr3gUQsttdCSBy201EJLLXjUQksttNSBSy201EIBAaECiAoQSkAoAbECBBAVQFSAUAJCBRAQKoAohA5jdJBhjQxrZBijwwxqZFgjwwxqZlAjwxoZZlATqK5MeNWFqS686sJUV16U8qIrE115YaorL7oy0ZVXIGmCFEkvaJH0ghQJ0iZIkDZBgrQJUiRImiJB2py59lln3Xits886e62zb7TW2WedvdZZNz5r7bPOWvtG+Ab+7T//t/iGqQxNNbWhqVwN5GpqQ1O5GmgqV1MbmsrVQK6nMmQoatQYUWNEjRD3hLgRosaIGiNqjKgxokY4t8K5BXTQkksttORBCy251IELLbXkQgctudBSCx614FIHLXkQaoCoAKEiBAhVIVSEUAFCBQgVQNSoAKIChAqAUDODmB3EzCBmBzEzqJlBzAxqZhijwxgZxugwRoZEeVXKi65KeVGqK1NdmOqilFelujDVVQmvSnlRqmubImmCtAnSJkiRNEXSBCnSJkiQNkHaBGkTpEiaM89e66yzzl7rRmeftdZZZ6191llr3+iss9Y6+6wdnY1v4N/98z/CN7ieypXhqVwZnsqV64FcuRrYlaupDbmeypWhqV0ZOjVG3BPiRoh7aoS4Ec6NEPeEuHEjRD0jaoxTY5TlUgsudeCSCy150JILHbnUggseteRCSx605EJHLrRkYFSAUAFCDQgVakCAUKEGhAoQqsKoALFCDagVAKHDGDEzjJFhjJoZxsgwZgYxY3QYM4OYGcaI2UFMoEp1VcpUVyVKdWWqVBelvCpVqlQXproqVaoLU6Vo0hRJ0yZImyJpiqQJ2qZImiJpiqRpE6RImzRFTtzxSTda66yz1jrrrLXOvtFJOzrrrLXOOuvstW501lr4Bv6DP/s3+AZXhl25djWwK9euXBty7Woqw65duTLsampXhl0JinBuhHOjnhH31Binxjg1boxTY5wa94S4J8Q9N0IILXjkgksduOSCRy245IJHLbngkQsteeCSCx255EJHHowKMCrUgFADRoUaECrAqAuhRgUYFWBUqAGjAiDEjJFhzJgZxIyZQcyYGcSMmWGMmBnGjJFhzJgZEFCqK1OlSpXqolSpUqW6KlWqVKlSpbooVapUV6VtirRNUyRNmyJp2gRp0yZIm6Bt2gRp0yZImzRFTjpzrbPOWutGZ5211llrnXXWWmedddaaZ91orbPOWgvfwH/8Z/8K3+DatSvDrly7du3KsCvVrg25duXatWtDrl25dk0o7qkxzj3h3LgnxD31jLinnhH31DPinnruGVHPiBuABy654JELLnnkgkcutOSRCy554JIHLrngkUsueORSgVGjAtwaNWDUgFGhBowaNaDWgFGjBowKNWDUKMgYGcaMeWYGMWPGzDDmmRnGiBkzZoZnxIyZYcyYQJUqVepUqQKlSpUqVepUqVKlSpUqdapUqVKlStG0TVOkTZo2bYK2aZOmSJs0bYq0TdOmTZA2bdKcdeZZa5115lpnnbXWmWetddaNTtzRSTs686y1zjrrzOL3+E//9F/iG1wbUu3atWpXhl2rdu1KtWHXrlS7dm1YtSvXqgWde0Lcc08499wTzj037gnnnnvCueeeGuPcc08499wQXHDJIxc8YsElj1zwyAWXPGLBIxc8cskFj1ziwCUXCgwYNWrAqNsBjBo1YNToAG6NGjBq1IBRoy4GNQohZswzY8a8YcyYZ8bMMOaZMWKemWHMmGfGjHnDmASUKlXqVlcVSp0qVepWqQKnSpW6VarUgVKlSp2iDdKmTZs0/SVt0hTpL0nTpk2bNP0JaZOmTX/JmWeudeZaZ5251llnrnXWmWudedZaZ5611plrnXnWWcXv8V/86T/HN6h2rdq1ateCXat2rdq1ateCXat2rcq1a8GuVas+d91zzzj13HPPOPXcc8894dxzz13j1HPPPePUc88NgSUPXPKAJY9Y8MglFzhyyQOWPGDJIxc8YskDl1jyoMDoFEaNDmDU6BRGBzU6gFujAxgd1OgURgc1YHRQEDHPjHlmzBvFiHVGrDNjnhnzzJg3jBnzzJhnxjyThFIHSt0qdaDWqQK3Sp2qVeDUqQqnapU6UOpWAZo2bfpL0rRp01/SJk2b/pI2bdL0l7Rp0yb9KSeeedaaZ6151plrnXnmWmeeteZZZ6515lpnnrnWmWfhG/iv/9s/wze4Vq3asGrV6rhWrdq1atWuhVHtWrVq1a5Vq3aH0LnnrnrGueuee+4Zq5577rlrnHvqueuece665556xrE8YskDljxgySOWPGDJA5Y4csEjljxgiSMXOPKIBZcMBh1gULeDDmpg0GkHNTDotEYHGHRQtwMManTQKQYFkeGZZ8U8McMzz4x5Vswzz4x5Zswzz4x1Zswzz4wJwIFbFU6VunCq1oFbBW6dqnDqVoFbB2oduFXqAk2TtmnatOkvadKmv6RNm7Zp2jRp01/Spr+kzYlrnnnWmmeudeaZa5155opnrXnmWWueedaaZ6515pn4Bv7Rf/sn+AbV6qhWrY5q16rVUa1aHcGKVRujWrVqdVSrVke1oBXO3emp65677hnrnrvuqefu4NR1z1333HXPXePcVSNggSOXOGDJA5Y44sgFjljygCWOOHCJIxY4cokjFjwymHbQAQaddtBBB5j2QY0+qNsHMDrotAMMOuig0z6AURJnxjzrzDNjnnTmmTHPOvPMmGeedWbMM886M+aJZ5FwqsKpC7cO1Lpw68CtA7UunLpwq8CtC6cu3CpA01/SpL+kTZumbdr0p6RNf0mTNm36S5r0l7Q58cw1z1zxrDPXPPPMNc9c68wz1zzzzDVPWvPMM9c8E9/Af/df/xF+j6rZUa2OatXqqFatjmp2BCujWhjFwqhWTIxiYVSzXvfcddc9d901zl133XPXXffcddc9d411z1133XPXPQIHLnHEAkcsccQBSxxxwJJHLHHAEUscsMQRByxxxFLBoA867aAPMO2gDzrotA86wLSDPuigUwz6oNMO+qDTDkDhxDPPinnmSTc88awzzzzrxDPPinnmWWeedOaZZ8UE4MKtC7cOXLh14cKpC7cuXLh14MKtC7cOXLh1gbZJmyb9JU3boOlPSZv+lLRp0l/StE2bpm3aIFnxzDPPXPPMNc9c88wzVzxzzTPXPPPMNc88c80T1zwT38D/+F//Ib5BHdXsqKOaHdXqsKNaHcXsqFaHHdXqsFZHHdbqqCa87rrrrrHOumucu+6666677k7PXXfdddddd9111z33CBxxwLJHHLDEEUscccASRxy6xBFHLHHAEUscsOwRRwVPO+iDTvugDzrFgw76tA866NMO+qBPO8CDTvugDzro0w5K8swTzzrzrDNPOvPMtSKudeZZJ5515plnnXjWmSed+ZNbFy7cunAxrQsXLlxM68KFWxcupnDrwoULty6Ytmnapkl/StD0p6RN0zZI2zTpT0mbpm2aomnS9oQz1zxzjTPXPPHMNc5c88wTd3jiGmeueeaZa5y54pn4Bv7hT/4+fo+s1WFHHdbqsKMOO6rZUYexOuyow1oddthRzY467LDe6brrrrvuuuu+03Nfd91111133XXX3em6677uOa+x7qlY4tgDjlji2AWOOPaIJQ49YokjDl3iiGOXOODYI5YKHvRpH3TQp33QB33aB33aBx30KR7kAZ72QZ/2QR902gd90KclcdZZJ6515lknrnXmSWeeteJZZ5501plrnXjWiWetSdDFoC5cTOFiChdGXUzhwsUALtxO4cLFAC7cupgCLZL+lDTpTwnaJk3RNG3TpD8lSNs0aYukPyVN2p5w5ponnLnmGWueecaKZ6x55hpnrnjGmWueseaZJ6yJb+Cf/cnfwzewww4z6rDDjjqs2WFHHXaYUYcddthRhx3W7KjDDDuEX3en6677uuuu+07XXXfd1113J+u+7ro7fd111133dXd6bI84dolDj1j2iCMOXfaIY49Y9Ihjlzjg2COOXfaIg4KnfYCnfZAH/RQP+rQP+mkf9EGf9kGf9oM+6NM+6IM+7Qd92gclcdJaZ5601pknrXnSWieeddaKZ6150lkrnnXSmWudCHKKKQxMYcDFFFMYmMKFgSkMTDGFCwPTTmHAxRQGmP6SIG3SFkmbpkiatmmKpD8lSJr+hKRJf0qQtjlhzRPOXOPMNc5c4cwz1lzjxDPWPGPNE9Y848w1zlwBJH6H/+u//B18A/uww4467LDDDDvssMMO+7BmHnbYYYcdddhhhh122AG87uvu9HXXfd2dvu66r7PuO133ddfd6euu+07Wfd113+m6y+LYY49Y9tgDjj12iWOPPXSJY4894tBljzj22GMXODL4oJ/2QZ/2gz7tB33aD/qgn/ZBP+2DftoH/aBP+6Cf9oM+7YN+WgornbTmSWudtOZZK5250lknrXnSWietedJaJ6150loEBnA5wBQGphjAxQBTGJhiAJcDTGFgigFcDDCFgSnYNm2CtE1TJE2bIG2DtElTJP0pQdqkKZqmSJo2OePENc5Y84wT1jxjjRPXOHONM1Y844w1TlzjzDXOWBHEb/F//5e/jW9ghxn0YYcddtiHGXbQYR922GGGfdhBhx3mYYcddthhn9Y7fd3X2enrvu5OX/d1d/K6r7vuO33ddd7p6677Tl93p6/zuif02EWPPfaIY5c99Nhjjz12iUOPPfbYY5c99ohDjz3y8EE/6Kd90E/7QT/tg37aD/JpP+jTftBP+0Gf9oN+2g/6tB/0035QEiudteJaJ6210klrnrTWSmettOJZK6110kpnrrTWSiQHmGKAAacYwMAUAw4whYEBphxggCkMTDnAAANMMSBSNE2bIG2CtAnSpk2QNEXaBmkTpE2aIkHapCnSU9c8Y40T1jhzjRPWOOPENc5Y44w1TlzjjDVOWOPMNb6D/+eP/yZ+j+iwwz7IsMM+6LAPM+iwDzvowww76MMO+jDDPuiwwzzoAPM67/R1X3cnr/tOX/edvs7r7vR13+nrvO47fd3X3cnrvtPXfZ0Veuyxxx667LHHHnvsscccuuyxxx577LHHHrrsscccFXzQT/vVfpBP+0E/7Qf9tB/0037QT/tBP+0H+bSf9oN+0K/2g37aT0NxpZVWOmvFldY6aa2VVlrrpJXWWmmls1Zcaa2TVlqL5JQDDDDgAANMMeAAAww4xQADDjDAgANMMeAAAwwwJdsmSJsgbYqkKZKmSHHpTxekTZAibYK0CdKmSJqecO6KZ6xxxgpnrHHCGmesccIaZ6xxwhpnnLHCGmes8R38v3/81/AN7IMM+6CDPsygDzvowzzosA86yMMO+rCDPsyDDvsgwz7oAPM6P9x3+rrv9HXe6eu+09d5p6/7uj8m7/R1X/edvO47fd138rrvdNkec+yxxxx76LHHHHvsscsce+yxhxx77DHHHnvsMUcdPuhX+0E+7Rf6ab/QT/tpvtBP+0G/2g/6ab+aD/ppv9BP+4V+2g/y1ZJcaa2VVlpppbVWWumsV1rppLVWWmmltVZaaa2VVl6R1AMMMOAAAw7wgAMMMOAAAz7AgAMMOMAADzjAgAMM8IBocUXSFGkTpLg0RdoEaRNckTZB2hQJ0l6RIG2C9IRVz1jjjBXOWOOEdc9Y44Q1zlj1zHXXOOGMNU5Y94zi9/j//viv4rcK9EEf5kEHfdCHedBBH/RBhn3QB3nQYR9k0Ad92AcZ9EEf9mn9Tl/3x+R13+kP95287jv94bzT1/kxfaev+05+uO/0dd7pD/edvO6P6ao99phjlwl7zLLHHHvMsYcce8yxxxx77DHHHnPsMUcFX80H/Wq/0E/71XzQr/YL/bRf7Rfyab/aL/TTfiFf7af9Qr/aD/LVflCBa6200iuttNZKK6280kprrbTSSq+80lorrbTSymutRHKAAR9gwCEfYMABHnCIBxxgwAccYMCHGHCABxxgwIccgCnSprggbYoE1yZIcW2CFGmvSJD2igRpE1yRNkVyxLpnnLDGuWucsO4ZK6x7xgpnrHvCGueucMYap65xxnfwx3/+y/iOPsiDDvogD/qgD/KgD/ogD/qggzzogz7Igz7ogwz6oA/6ME8xP5x3+mP6Oj+mr/tj8ro/pu/kh/tOfkxf98fkdX9M38nr/pi+zo/pO/3hrJpjjj3m2GOOOfaYY4495phjjznm2GOOOfaYY44NslT4hXy1X+0H/Wq+2i/0q/1Cvtqv9gv9ar7Qr/ar/UK/mq/2C/1qP80X+tWKeOWVVlpp5Vdaaa2VXnmllVZ65ZVWWmvlV1pppZVfaSWSDzngAwz5AAM+5AAPOOQDDPiQAz7AkA84wEMO+AAPOcADsu0VKVJcmuKKBGmvSHFpigRXpLg2QYor0l6QIsXlhHVXOHeNU9c4d4Uz1j1h3TVOXePcFc5d44R1z1j1jOL3+P7nv4rvyIM+6CAP+rQPMuiDPsigD/oggz7o0w7yoA86yIM+6IMM+hTzw3mnr/tO3ukP95287jv9MXnd13mnP6av805f98f0nbzuO/nhvtN3skTCHHvIscccc+wxxxx7zDFhjzn2mGMOPeaYY4859sjgC/20X+0H/Wq+2g/61X61n/YL+bRf7Rf6ab/aL+TTfrVf6Kf9aj/NF0pwrZVWWmmllVZaa6WVVlpppZXWWmmllVZecaWVV1qL5AMO8IBDPuCQAz7AkA844AMOMeADDvmAAz7EgAM+5IADqu0VCdJekSLBtSmuSJriigTXpkhxQdorUiS9IkVywqlrnLrGGaeuce4K565xxqlrnLvCuSese8apa5y7xnfw/cNfx3f0aQd50EEfdJoHHXSQB532QQZ90EGfZtBBH2TaBx3kQaedd/JOX/edvO47fd2dvNPXfSev+05e952+7jt5p+v+mKz7Tl/nnS6bsMccc+wxx4Y59pBjjj3m2DDHHnPsIceEPebYY44KPu0H/bSf9gv9NJ/i03yKD/LVftoP+mk/7Vf7QT/tp/20n/YL/bSfhuRKJ6601kkrrnTSWiuduNJKK5250konrbTmSSuttKKoIQd8wAGHHPABBxzyAQcccsAHHHDAIR9wwAEfcsABh2SKFFckTXFF2gRXpE1xQdoUCa5NcUXaBFekTXFFcsK5J6x7xgnrnnHuCeeuceoZa5x6xrkrnHvGqWuce8J38P3D38LvEZ12kEGnfZBBpx1k0KcddJBpB32QaQcdZNBpH3SQaaeYdd7p6+7kdXf6uu9k3Xf6Ojt93Z2+zk5f953s9HVfdyfvdN1Vc+wxx4Y59Jhjwxx7zKFhjj3m2GPCHnLsMWGPOfbI4NN+2gf9tJ/20z7op/20T/tpP+0HfdpP+2k/7QN8mk/xaR/0035aEieteNKJa5240oknrXnSiSududKJK5114konnrTmSSQHHPAhBxpwwAGHHPABBxpwyAEHHHDIBxpwwAGHHPABESBF2gvSpkhxbYIU1yZIkfaKtCkSXJsixaUp0qZhzzj3hDXOPePUM8449Yxzz1g1xhqnnnHuCeeeccapxe/x/cPfwe8RnWbQaY1OM+ig0w4y7aDTDDrtIINOO+g0g047iNGn8OvuZN13us5OX3en66z7TtfdyevudJ2dvu5O130n6+50nRV6TNBjjj0m7DGHhj3m2DCHHnNs2GMOPSbsMceGPTB4iqd92k/7oE/7aZ/iaT/t0z7op33ap3jaT/ugT/tpn+JpP+3TkjjpxDNPPHOlE08868QTTzzrxBNPPGvFiGeudOKJZxEc8oEMDvhAJgcccKABBxzoIQ0O9IAGB3pIgwMNOOADoUWKaxOkTXFtigRpU1ybIsWlKdKmuDbB/2cMDhVFC7Isq869Vxw+HIVCoVAoHAqFIquqUSgcCoVCoTAvYk3uy26fd4xKtfK07fLiW1548S0vvPjCW194ofEtL77w1hdeePEtL77wwlv5hfnzn/5rfkFDjx48Nnj0YOzRg9FDjx48Nnj0YOzRg7EHj+SmN97jPd70xnu88R5veo833niPN73HG+/pjfd44z298R3vaMc3fWOnD9+04xsf7fjGN+34sNM3vmnxjW/a8U0fdqZ8+smnn376ydFPP/zk00+PfvLpp59+cvTTTz/49NOBl3k7zbydt/Myb6c7b+dl3k53XubtvJ1m3s7beZnuvN23vMzb2dnDnNkwhz3MYQ9z2DCHPcxhD3NmDnvYMIc57GEPc2YOG2YK1Ur1lWqlWnnaUqlWnlZaK9UnldZqpXZ48YUXX+jy4gtvbXjhxbc0vPjCW15sePEtL7zY5UV+Yf78p/+GX7DBo7EHo0dDj0YPxh4NRo8NHg09Gj0YezSSl97jjTe+44339MUb3/Gm93jjO9740nu88R1vvOk73niPb/WNb1p8Y6dvfNjxTTs+7PSNDzt9Y8dHO77xTYtv7Ew5+snRo58c/eTop0ePfHrk06NHPzn6ydFPjxz9dIa308zbaXg73WnmLd15me680J2300x33tLM23lLM915me78OMxhwx7msGEPc9jDhjnsmT1M2MMeJuxhDnvYsIc5bJgRnlaq1ZZK9Wml0lqtVJ5WK5XW6pNqpXZ94cUuLzS+5YXGF17o+sILXV9oePGFri+80PiWF35j/vzHf8svaDB6bDQaPDYaDcYejYZGo0ejodHo0dCUvPTFe3zxHW986Tve+I4v3vhOX7zHF1+8x5e+eI8vvuNN3+Ibi2/a8eEbOy2+seObFt/4xuKbdiy+acc3Puz0zZSjRw6ecvTI0aNHjh45evTI0SNHjxw9cvTI0SMzdqfLy3Rppkt3XuhOQ3e6NNPlZbrT0J2G7nR5oTsNM3vYOIc9bNjDhjls2DN72DCHDXvYw4Y9TNzDHjbsYcOMWKlWnrZUK9VqpVpprTytVqqVaqW1Uru8teGFxrc0vNjwloYXG17s8kLjC10aX3ihS+MLvzF//uO/4xc0GhuMRqOx0WhsNBiNxkajsatHF4+ujeSlL97jiy++44vv9MUX3/HFF9/xpS++44svvuOL7/TFF7v2jR2Lb+z0Ycc3Fju+afGNHR92+sbiGzsW37TjY0rkyNHI0cjRyNGUA6lHokeiRyJHI0dPCZ4yQ5eGLs10MXRppktDFzNdGrp0aaaLoUszXRq67GzYw4YNe5iwh4Q9bNjDho1z2LCHDXvYsIcNG/awYadYqVaq1UprtVKtVKuV5w9erVSrlWq1dm1oeGtDQ8OLXRpebOjyYkPDC10bXmhseEtjw2/Mn//47/kFjcauRqOxq9Fo7Go0ujYaja7GRlejsZF98cWevvhijy++2ONLX3zHxhdf7PHFl75j44vv2PhiVzt92LHjw45vLHZ8tGPHhx07Puz4aMeODzs+7FAikaORaEokEo0cTYlEI5FoJJIaiRyNDDQ0uDS4NLg0uDS6NOPS0NXQxdDFTFdDF8PMhj1s3LBhDwl72LBhwx42Juxhw4Y9bEjYsMcNG3bESrVaqVYr1WpLtVp5/lWpVp7WH7Q+rQ1dGhsaurzY0NDYpeHFhoaGrg0vNDQ2dHmhkV+YP//xP/ALGrsaXY3dGl2Nro2uRtemrkbXRldXY1dTtvHFnja+2PiOjY3v2Nj0HRtfbHzHxsZ3bGz6Yo8dLHYsvrHThx0iupKWAAAY4UlEQVSLbyx27PiwY/GNHYtvLHZafGNnyko0krISjaykRFYjWyLRlUjKaiSyEk1hMLgauhhdDC6NBheDa4PBtcHF4GroYjTM7HHDhoQNG3LcsGFDwsYNOWzYkLBxQw4bNiRs2ClWK9VqpVqtVupfldZqpVqtVKvVSrV2aWzo0tDY0NC1oaGhobGhS2NDQ0PXhoaGRn5h/vzH/8i/NnZ1detq7Orq1uja1a2rsaurW6NrV7dG167si017bGxs7LGxsbHHF40v9tjYtLHHxsbGxh67+sZix44POxY7PuxY7PiwY8fiG4sdi28sdix0IltWV1ZSVlZWt0RWVlJWVle2rERWtqxEAaOB1WB0MboYDa4Go4uR1eBiNBpcDa47GzYkbNyQsCFhY8KGhMQNGxI2JmxI2JC4IWFHrFYr1Wq1Uq1WK2q1Uq1Wq5VqtVKtXRsMjQ0NXRoaDQ0NjV0aGowNDV0aGxoajPzC/PmP/4lfsKtb165uHY1uHRvdOrq67erq1rWrW1dXt13ZxsYeTRsbGk17bGz02NjYaOyxsdHY2GOjsavFNxY7dix0fNix2LH4xmLHYsdih4cdix0LZTurIytbVka2rKxsGVlZ2TKysmVlZcrKylYGoouR6GokuBKNrAYjq9HIYiS6GoiuxJkNGxMSNmbZkJC4ISFhY5aEjQkJG7JuSEjcEMRKtf5VqVarlWq1/qBarVYr1fpXtVK7NBgbGlwaGwwNDa4NDQ2GxgaXhgZjQ0PDb8yff/+f+QXdOrp26+jWtVtHt66uTru6dXXq2q2rU1fXbhljo7FHY6PR2NRDo2mDp40G0wbTRg9NjY0uFjsUOz4sdix2KHYsdnzo+KBjsWOx2LHQsWwZWZnOyJaRkSkrI1tGpoysjGwZmbLOyJSRQaKRyEo0ElmNRFYjkdVISmQ1ElmJRtaZCQlZEhMSNmZJSEzYJTEhS2LChqwJCYlZNoRiRa1Wq9WKWq1WK1WxtdhaqH9Vq5XatcFgaGg0NBi6GBsMDQ2GRpcGQ4OxwdDwG3P//X/hXxF06tqpq1O3jm47unV069itU1enrp26OnXr2C1jNBo9GhuNRqPRo9FobDQaPRqNRmOj0dUOxY7FjoVix2LHQsdisWOh40PH4oOOxQ4yZWQ6I5SRkSkj0xmZMjIyBWfKyJSRkemMTGEkspISiaSsRCIpK5GUSGRLJLKSEolsiTuznLhLYsJZNiZkScySkDUhMUtC1oSErAlZEoNYrdS/qsXWolKt1r+q1Ur9q1qt1r+qi6HB0OhiaDAYGg0NhgZXQ4PB0GBsMBh+Y/78+//KL+i0W0enTl2dduro1qmj005dnTp17Napo1O3nTJEo9Ej0Wg0Go1Eo9GjkWg0GoykHoxGR8SODzsUxQ7FjsVCx2KxQ7Fjodix2KFY6CAjdJApyHSQKRScEcrIdBDKOJQRyjgUZAa2kxJJibMlkk5KZDuRlDgpK+mkRFLibImkO7OekDUhS2KWE7NkScySmCXxLAlZE7ImnDUhSyjWv6rFilqt1r+q1fpXpVYpVqv1r2o1uDQaDIYGg9Hg0oOLwdBgNBgaDAZjFwPDvzT33/83/hXBTp06dXTaKdNOHZ06ddqpo1OnTjt1dOrUqaNTx0g0Eo0cjUQj0Ug0EI1EI0cj0Ug0ElksFjsUCx2LHcRix0KxQ7HYsSB2LBQ7FAsOBYdCwUHoIBQKDgWHgtBB6FAQCg5lRuKkk7KdSDrppKSTzko66aSkE0lnOynppMRJJx0mnDVL4lmyZjkxS9YTsmQ9IWuWxLNkTThrlsSzhOKPalWs1r+q1fpXpVao1r+q9a9qVayuBoPBYGgwuhgMBoPBYDQ0GAwGg9GMK8O/NPff/3f+JalTp06lTjt1KnV06rTUqVOnUqdOO0qdOpV2yhCJRKKRSCRwdOVIJBKNRCKRQCQaiURWOxaKDsVih2LBsVjoWCiKHYqFjkWhY6HYQewgdig4FhwLDsWCY8Gx0FHoIHYoOOCkpJtHOumkk0466aSznXTSSSeddFLSyZt00tlOOunOLGfNepbEs2Q9S9azJJ4l61mynjXhrFnOmuXELFkPYrX4o/5VrX9Viz+q9a/6V7Va/FH/qlYXg8FgMBoMBgPBYDAYjAYXDy4eXAwGosO/NPff/g/+FaFOpU6dljqVOpU6LZU6lTqVOi116lTqVOpUJhKJRCJhonEikUgkEicQiUQikTiRQGS14FgodhCLhY4FsdCxIHYoFsSOhWLBsdhR6Ch2LHZ0LHQUO4odO4odio7FjmLHDuOmkzfp5k066aSbN+ls57zZ7nmznXTSzZt00snbdNLJm3Rn1rOcNetZzprlrFnOetYsZz0h61nPkvUsZ816lrNmORR/FLXV+le1Kta/qvWvqlitf1WrYv1rMRoMBIPBYCAYDC4Eo8FAMBgMBoLB8Btz/+3/5BeeVCrtVCqVOk8qLXUqlTqVJy11KpVKpU6FOJFInDCRSJxInEicQCROnEgkTCROZJ0jg0Kx0EEsFhyKBbFDsSB2EAvFgkOxUHRa7Oi02NGx06Jjp8WO0o4dO0o7dip27CjtMG7epJu32zlvt5O3eZNu3qSbt3mTbt6cbt7kbTp5m27epJs3zHLWs54l61nOetYzZD3rWc561rNkPeNZznqWs2Y9y1mPYlWs1r/qX8Uf9a/aqlj/qlbFH7X1r8riwYVgIBgMBAPBYCQYDAQDwWAgGAiG35j7b/8X/4pQaak8qVQqlSeVlsqTSqXypKVSeVKpVCoTJxInTphInDhxAnHWiRMnEiZOnEicOGEicUYdCmKh4FgoCgXHQlEoOBaKBbGDUCw6lnbaqWNpp506LXbaaUenpZ12dFraaaeOnZZ2GDdv8zbdvM3bvMnbvD3dvM3bvM2bvE03b/M2b/Mmb/M23bzN25nxLGc96xnOetaznPWMZz3LGc96lrOe8axnOetZz3DWsx7FH8X6V/2rVK1/FX/UqvWv4o/6V1Vaf7AYCAaCgWAgGsgYCQYCwUAwEAwEgoHwG3P/7f/mF16pPqlUnlYqr1SqTyqVp5WWp5UnleqTSmXixI0TJk6cdY6zTJw4ccLEjRMnzjqHWSdOnDBxVooOhaJQEAsOxYJQFDqIBaEodCwIRWnnddppp047r9PSTjt12nmddlraqfM67bTTTp1X2gH3vORt3uZt3uZt3uYmb8/bvM3bvORt3uZt7qabm7w9b/M2b/N2Zj3jWb/hrGc941nOeNZvPcNZz3rGs3zjWc96hrOe9YzfciyK9b+oFetf9UeLP+pfpWr9q6hV61+V4ELg4ELgYCAQCAYCwUAgGAgEA4FAMPzG3H/8P/zCk+qT6pPqK8WWp5WnlaeVpy1PK08rTyvVysSJGydsnDjrhokbJ07cMOvGCRM3Ttw4YdeJE2ehIBaEgmNBEAtCQSw4FIWCUBQKjkXpm+e8Tjuv087rvE6d13mddl7nddp5Tt8853XaeZ12Xud1mCZv85K75yV38zYveZub8zY3eZuX3M1L3p6bvM1L7uZtXnJz3jDLGb/1jGf9hrOe8VvPeNZvOONZv/GsZ/jWM571G89yxrN+isUftf5TUVsVf9SqVbH+qFr8UasW/7OFQCAQCAQDgUAgEAgeCCwcCAYCgUAg/Mbcf/y//MLTJ9WnlaevVp9Un1afPK2+Wnlaffqk+rRa2Thx44aJu27YOHHjhlk3btwwceMuGydu3DBx11kQCkJREApiQSgIjgWhIBQFoSAWxM7rvM7rPOd1bud1Xud1X+d1Xud1Xud1Xud1nvM6t/O6r7zu6zAmN7mbl9zk5rzNTV5yc27yNje5yUvunpfc5CYv525ecpObvJ0Zv/Gs33iGbz3jGb/1jN9w1m8847ee8RvP8o1n/NYzfuNZP0VRW/8q9Z+K2vpPWKtWRW39J1r/i2IgsHAgEAgEAoFAIBAIEwwEAoHDBAOBDL8w9x//H7/w9Gn16dMnbZ8+rTx9Wvv0SevTp0+rT59Wn1Y3bty4YdcNGxM37rJx48YNG3fdsHHjhl03btwwI4JQEISiQ0EQCqJQEISCIBaEgiDtvM7tvM7tvM7tvs7tvM7tvO7tvM7tvM7tvO7tvM7tvM7tPue+YZq85Obc5Cb3nJvc5CU3uTk3ucnNuclL7slNbs5NbnKTl3OTuzPjN571G7/xjN/4rWf8hm8847ee8Ru/8Yzf+o1n/IZvPOs3fhal/lOp/1Qr/qgVf9QfFeuPivVHxfqjykKYQCBDIBA4TCAQCIQJBAKBQCBDnAMZwm/M/cflF54+ffVp7dOnT5+tPn367NPWp88+fVp99unTp9XEjQm7bkzYuOuGxI0Ju25M3LAx64aNibskbtyFoiAUBEEoCEJREISCIBQEoSCIYrnd27md272d27md272d27lvXvd2bud2bvd2bud2b+d2bud2b4cx+XNyk5tzT25yz7nJPfmT3Jx7cpObc09uck9uzk3+nHOTe3KTm3OXGb/xG7/xLN/4jd/4jWf8xm/8xm884zd+4zd+4zee8Vu/8Rs/RWn9UfFHrfijVvxRK2rVqlStSv2nUmWZwIEwgUAgM4FAmEAgcJhAIEwgQ5jAgTDhN+b+4/ELT599+mr12adPn9Y+ffr02VerT599+rT67NOn1cSNG7Ju3JC4a8LGjQm7bkzYuDHrhsSNuyRu3AFBEAuCIBQEoSAIBUEUCoIgFARpud3buZ3bfZ0/ndt53T+d17nd++Z2bud2b+d2bud2b+d2bvd2bocxuck9+ZNzT25yz7nJTe45f5Kb3JObc09uck9uzp/kntyce3KTe86fZcdv/MYzfuM3fsM3nvEbv/Ebv/Ebz/iN3/iN33jGb/zGb/3GT6lYf1SsPyr+qBW1alGrVqVqrfiflSphFg4EwgQCmQkEwgQOhAkEAmECmQkEwhwIvzH3H49fePrsq9Wnzz59+vTZ6tNnn7Y+ffrs0+rTZ58+rSZu3JC464bEXRM2bkzcZWPCxqwbNyTuuiFx4y4UBKEgCkJBEAqCIBQFoSAIBUGQltu9ndu5ndu9ndt53dv503lvrnvf3M7t3s7t3O7t3M7t3O7t3A6Yc5M/JzfnntzkJvecm/w5uTn35CY3557c5J7zJ7nJPbk59+QmN+eGwW894zd+wzf9hm8802/4xm/8xm884zd+4zee8Vs//MZv/cajU7H+qPijVvxRK/5Ti1q1KvWfSv2nUiUQJhAIEwhkJhAIEzgQJhAIEwgEMhM4TCD8xtx/PH7h2adPX60++/Rp9dmnT58+W3316bNPn1afffq0mrhxQ9aNGxJ3TdywMcvGjQkbs27YmLhh18SNu1AQxIIgCAVBKAhCQRDEgiAUBEFabvd2bud2b+d2Xud2b+d2bue+vZ3bud3buZ3bvZ3buZ3bvZ3bcTy5yT35k3NPbnLPuclN7smfnHtyk5tzT25yz/mT3OSe3Jx7cpObc5dZv/Ebz/BNv+GbfsMZv/Ebv/Ebv/GM3/iN3/iN33jWD7/1Gz9Faf1R8Uet+KNW/KdWpWpVqlal/lOpsnCYQCBMIJCZQCBM4ECYQCBMIBAmkOEwgfAbc//x+IVnn776sPXZp0+f1j59+vTZ6qtPn31affrs06fVxI0bEnfdkLgx64aNCbtuTNiYdcPGxF03JG7chYIgFgShIAhCQRAKgiAUBUEoCNJyu7dzO7fzun86r3O7fzqv86f7OvfN7dzu7dzO7d7O7dzO7d7O7Yjn3OTPyc25Jze559zkJvfkT85N7snNuSc3uef8Se7JTW7OPbnJzblh8Fu/8Qzf9Bu/4RvP+I3f+I3feMZv/MZv/MYz/lfjWT/81m/8lIr1R8X6o6K2Kv5Ti1q1KlWrUv9qUVkmcCAQJhAIE8gQJnAgTCAQJhAIZOZAmED4jbn/ePzC02dfLb767NOn1WefPn367NPWp88+fVp99unTauLGDVk3JmzcuEvixqwbNiZsTNx1Q+KuGxI37oAgCAVRKAiCUBAEoSAKBUEQCoK03O7t3M7r/unczu287u3czp/O6943t3O7t3M7t3O7t3M7t3s7t8OY3JOb/Mm5Jze5OffkJvfkT849ucnNuSc3uSd/cu7JTW7OPbnJzfkTdvzGM37jN37DN37jGb/xG7/xG8/4jd/4jd94xm/8xm/81m88OhXrj4o/akVtVdSqRa1alapVqX+1qCwcJhAIEwiECWQIEzgQJhAIEwgEwmQIcyD8xtx/PH7h6bNPn7Y++/Tp09qnT58+2/r06bNPn1afffq0mrgxYdeNGxI3Ztm4MWHXjQkbE3fZmLgxy8aNu1AQxIIgCAVBKAhCQRSEgiAIBUFabvd2bud2b+d2Xud2/3Ru53Xu29u5ndu9ndu53du5ndu53du5HTDnJvfkT849uck95yY3+XPOTe7JTW7OPbnJPecmf05ucnPuyU3uOX+WHb/xG8/4jd/wjd94xm/8xm/8xjN+4zd+4zd+4xm/8Vu/8Rs/RWn9UbH+qPijVvxR6w+qVqX+U6l/tagsHCYQCBMIhMkQCHNg4TCBQJhAIEwgw2EC4Tfm/uPxC0+ffVp9+tqnT5/WPn369NlXq0+ffVp9+uzTp9XEjRuybkzYuDHLxo0Ju25M2Ji464bEjbskbtwBQRCKgiAUBKEgCEJBEAuCIBQEabnd27md1/nTfZ0/ndf903md27nv/28MDgwbwYEYiJFLqf+W0pdXnPflGwgwW2+9na233no7W2+9na23lkk2+Zxszp5sssmes8mefHL2ZJPN2ZNN9uSTsyebbM6ebLLnrGVzzRmuueaaa651zDXXXHPNMddcc8011xxzh2uuueaAQS1fRZSvIr5KEdDySwUKqEABlX9aAYo08pEiRY4UKXakSJGPFClypEiRI0WKHSnSkSNFf+H9efqDB48+aHnw6IMHD0ofPHjw6IOWB48+eFB48OiDQsKEiTJMSDRhhkQTJiTMaEKiCRkmTJQw0QwJE2akSkhIFUhIlZCQkCohISFVQkJUQkKqhISEWm1n6623s/XWW29n6/e8zD5vvfV2tt56O1tvvfV2tt4acc4me/LJ2ZNNNmdPNtlzPsmebLI5e7LJnrPJJ9lzNtmTTTbZ2Oaaa4655lrXXHPMNddcc80x11xzzTXXHHOHK665wwEXUb6KKF9FfJUifrUCChRQgQIqv6qCRjpypMiRIkWKHCtS5EhHihwpUuRIkSJHinWkyNFfeH+e/uDRBw9eKTz64MGD0gcPHjxaeOXBow8KDx598KCQMGGiDBMmSpgh0YQJiWaYkGhChokmJEzIaMKEsYSEhKiEhFQJCQmpEhJSJSQEUiUkJKRKSKjVdrbeeuvtvHrrT2frV+/zdj71q7ez9dZbb2frrbez9dYyySafk83Zk032nE022ZNPzp5ssjl7ssmefHL2ZHM22ZNN9pzPaMQdjrnmWte91nWPdc0111xzzDXXXHPNNcdcc4cr7nBBoJavIspXEV+lCGj5pQIFVKCAyq+qoEiRI0WOFClS5FiRIh8pUuRIkSJHihQ5VqRIR47+wvvz9AcPHn3wSuHRBw8elD548ODRBy0PHn3woPDogweFhAkTJcyQaMIMiSZMSDTDhEQTMkyYKGHCjBImzEiVkJAqkJAqISEhVUJCQqpAQqqEhIRUCQm12s7WW29n61d/6tfZ+lO/ejv7vPV2tt56O1tvvfV2tt5aImeTPfnk7Mkmm7Mnm3xONmeTPdmcPdlkz/kke7I5m+zJJnvOZzTmmmuOdd1rXXPdY11zzTXXHHPNNddcc801x9zhijscGKDlq4ivUsRXKeKrlC8VKKDyTyv+VxU0UuQjRY4UKVLkWJEiHylS5EiRIkeKFDtSpEhHjv7C+/P0B48+ePCg5dEHDx6UPnjw4NEHhVcefVB48OiDB4WEiSZkmDBRwoSMJkxINMOERBMmZJgoYcKMEibMSJWQkCqQkJAqISFVQkJCqkBCqoSEVAkJCbXaztZbb72drbfeztb7vMx7XrzP29l66+1svfXW29l6a4mcTT7nbLInm2zOnmzyOdmcPdlkc/Zkk885m2yyJ5uzJ5vsOZ/RiDscc63rXnOta4655pprrrnmmGuuueaaa4655g7XHDCo5auI8lXEVyniVyugQAGVf1rxqxWgSJEjRYocKVbkSJEiRzpS5EiRIkWOFDlWpMhHiv7C+/P0Bw8effCg5dEHDx6UPnjw4NHCg1ceffCg8OiDB4WECRNlmDBRwoSMJkxINMOERBMSZpgoYcKMEiaMJSQkpAokJKRKSEiVkJCQKiEhKiEhVUJCQq22s/XW29n61Vt/Oq/e5w9+na33eTtbb731drbeejtbby2TbLLnfJI92WRz9mSTPeeT7Mkmm7Mnm3zO2WSTPdmcPdlkT3Zsc80x11xzrWuuueaYa6655ppjrrnmmmuOueYO11xzQaCWryK+ShFfpQho+aUCBVSggMo/rQCNFPlIkSJHihU5UqTIR4oUOVKkyJEixY4U6ciRor/4DwwBXgTOJH40AAAAAElFTkSuQmCC;" vertex="1" parent="1">
          <mxGeometry x="132.5" y="410" width="145" height="145" as="geometry" />
        </mxCell>
        <mxCell id="fgFVk5qCwl_wAebh072X-27" value="" style="html=1;shadow=0;dashed=0;align=center;verticalAlign=middle;shape=mxgraph.arrows2.jumpInArrow;dy=15;dx=38;arrowHead=55;direction=west;fillColor=#fff2cc;gradientColor=#ffd966;strokeColor=#d6b656;" vertex="1" parent="1">
          <mxGeometry x="290" y="314.78" width="170" height="135.22" as="geometry" />
        </mxCell>
        <mxCell id="fgFVk5qCwl_wAebh072X-28" value="" style="shape=image;verticalLabelPosition=bottom;labelBackgroundColor=default;verticalAlign=top;aspect=fixed;imageAspect=0;image=data:image/png,iVBORw0KGgoAAAANSUhEUgAAAOAAAADgCAIAAACVT/22AAAgAElEQVR4AYzBPdI0yZaV0b3PcY+MmGdpKGhISEhoSEhIZWD8WEF303abhguGMaqMTA/fD9Uj+N61/Psfv+kH2rM9y7M927M92rM9S7M927M927M827M926M9y7M927M927M8y2OVlr1Kj/W1nvKyVmnZq7SsVVr2Y31Lj7XKy1qlZa/Sspa1yttAIBCxIRCICGwIRAQFNgQiAoENEYHAhlg0arlRo5Yat9SopUYtN2qpUcuNSmo05EYlNWqp8Z/iSlVcqYorrlRtV6pSFVfsVMWVqrhSFVeq4kpVXKmKq+QDT3SgiSc65IkOPNGBJzrQxAea+EATH2jiA0104Ikm1pe82bdys9/kZr/Jzb7JW/smb/ZNbvab3NpvcrNv8mbf5NZ+k5v9Rgdc4UInXNEFZ3TBFZ1woSuc6IIrOuGKLjijCy50hgtd4UTWL/n3P37TD7Rne7ZnebZne7ZHebZne7Zne7ZmebZne7Zne5Rne7Zne7Zne9pjWau07FV6rFVe1iote5WWtaxVfqxVWtYqL2uVlr2sVVrWKm8DgUDEhkAgIrAhECkQ2BCICGwIRAQCG2LRqOVGLTVq1HJLjVpq3KilRi03aqlRyY2GVKjlRrbjSlVcqYpru6jaVbh2Vey4U44rVamKK65UxZWquFIVV8kHnuhAUz6iiad04ANNPNGBJj7QxAea+EATT3SgA080sb7kzb6Vm/0mN/tNbvatvNk3ebNvcrPf5Ga/lZt9kzf7Jm/tm9zsNzrgChc6w4UuOKMLzuiCC13hRBdc0QlXdMEZLnSFE11wRSeyfsm///GbfqA927M827M927M926M827M1u2Zrlmd7tmd7tGd5tmd7tmd7lmd5LGuVlv2UlrXKy1qlZa3yslZp2ctapcda5WWt0rJWeVnLWuVtIBCI2BAIRAQ2BAUiNgQCEYHAFoFAYEMsGrXUuKVGLTVu1FJLjRu11KilxiU1GnKjkhq11PhPcaUqrrhSlaq4dlVcqYodV6pjpyquVMWVqrhSFVeq4ir5QBMfaMpHNOWJjviQJp7oQBMfaOIDTXygiQ488UQHmlhf8ta+yc1+k5v9Jjf7Jm/tm7zZN7nZb3Jrv8nNvsmbfZO39k1u9hsOdIULnXBFJ1zRBRc6w4WucKIrXOiEK7rgDBe60BkuuKITWb/k3//4TT/Qnu3ZnuXZnu3ZHu1Znu3Znq3ZNUuzPdujPduzPNuzPduzPdvTHqu0rFV+rGWt8rJWaVnLXqVVWvayVumxVnlZq7TsZa3SslZ5GwgEIjYEAhEbAoGgiA2BiEAgsCEiEAhsi0YtNW6pUaOWW2rUqOVGLTVquVFLjUpqPKRCLQ8kO65UxZWq7aIqrrh2VariiivluFKVqrjiSlVcqYorVXGVfOCJDjTxlI54Skc8pQNNfOCJDjTxgSY+0MQTHWjiA02sL3mzb+Vmv8nNfpObfStv9k3e7Jvc7LdyZ7+Vm32TN/smt/ab3Ow3HOgKJ7rgik64oguu6IQLXeFEV7jQCVe40BldcMEZXXBFJ7J+yb//8Zt+oD3bszzbsz3bsz3Ksz3bsz1bsz2rZmu2Z3u0Z3m2Z3u2Z3u2pz1Wadmr9FjLWuVlrdKyVnlZy1rlZT2lZa3yslZpWau8rGWt8jYQCERsCAQiAhuCQiIFNgQiAhsCEYHAhlg0aqlxS40atdxSo5YaN2qpUUuNW2pUcqOWGg25kO24UhVXXKnaLqp2VVypip3q2HGlKq5UxZWquFIVV6riKvnAEx1o4okOeaIDT3TgiQ408YEmPtDEB5r4QBNNfKCJ9WW/ya3c7De52W9ys2/lzb7Jm32Tm/0mt/ab3OybvNk3ubXf5Ga/4UBXONEVLnTCFV1wRhdc6AonusKFTriiC85woQuu6IQrOpH1S/79j9/0A+3Znu1Znu3Znu1ZHu3Znq3Znu1Znl2zNdujPcuzPduzPduzPe2xSste1io91iova5WWtexVWqVlL2uVHmuVl7VKy1r2Ki1rlbeBQCBiQyAQsSEQFBHYEAhEBAIbIgKBwLZo1FLjlhq11LilRi01btRSo5YbtdSo5IFKajTkQrbjSlVcqYorVdsVV6pipyrVseNKVVypiitVcaUqrlTFVfKBJzrwRAeaeKJDnujAEx1o4gNNfKCJDzTxRAee6EAT60ve2je52W9ys2/yZt/Km32TN/smN/tNbu03udk3ebNv8ta+yc1+owOu6IQLruiCM7rgik640BVOdIULnXBFF5zRBRec0QVXdCLrl/z7H7/pB9qzPcuzPduzPdqzPcuzPduzPduzNNuzPdujfZRHe7Zne7Zne9pjWau07Ke0rFVe1iota5WXtaxVXtZTWtYqL2uVlr1Ky1rWKm8DgUBgi0AgIrAhEBG0IRARCAQ2RAQCG8XQqKXGLTVqqXFLjRq13KilRi03aqlRyY1aatRS4z/Flaq4UhXXroor5bhTFVdcqYqdqrhSFVeq4kpVXKmKq+QDT3TgiQ405YkOfKCJJzrwRAea+EATT3SgA0808YEm1pe82bdys9/kZr/Jzb6VN/smb/ZNbvab3NpvcrNv8mbf5Ga/lZv9Rgdc4UQXXNEFZ3TBFZ1woSuc6AoXOuGKLjjDhS64ohOu6ETWL/n3P37TD7Rne5Zne7Zne7ZnebRne7Zna5Zne7Zne7ZHe5Zne7Zne7Zne9pjlZa17Ke0rFVe1iota5WXtaxVXtZTWvYqLWuVlrXKy1rWKm8DgUDEhkAgIrAhKBCxIRCICGwIRAQCgW3RqKXGLTVqqXGjlhq13KilRi03aqnQkAu11Kilxn+KK1VxpSquVG0Xrl1OdVyxUx07VXGlKq5UxZWquFIVV8kHnujAEx1oyhMdeKIDTXygiQ808YEmPtBEB55o4gNNrC95s29ya7/JzX6Tm32Tt/ZN3uyb3Ow3ubXf5Gbf5M2+ya39Jjf7jQ64womucKELzuiCE13hQlc40RUudMIVnXChK1xwRhdc0YmsX/Lvf/ymH2jP9mzP8mzP9myP9izP9mzN9uyapdme7dke7Vme7dme7dme5Vkeq7TsVVrWY63yslZpWau8rGWt8rKe0rJWeVmrtOxlrdKyVnkbCAQiNgQCgYgNgaCIDYFARGBDICIQ2CiGRi01bqlRS40btdRS40YtNWq5UUuNWm7UUqOSG9mOK1VxpSquVG1XquJKVexUxZ1yXHGlKq5UxZWquFIVV8kHnmjiQ5rRgad04IkOPNGBJj7QxAeaeKIDTXygiQ80sb7sN7nJrf0mN/tNbvZN3to3ebNvcrPf5Ga/lZt9kzf7Jm/2rdzsNzrgCie6woUuOKMLLnSGC13hRFe40AlXdMEZLnShM1xwRSeyfsm///GbfqA927M827M927M92rM8W7NrtmbVbM32bM/2aM/ybM/2bM/2bE97rNKyl7VKj7XKy1qlZa/Sspa1yst6SstepWWt0rJXaVnLXqVtIBCI2BAIRAQ2BIIiAhsiAoHAhohAYKMYGrXUuKVGLTVu1FJLjRu11Kilxi0VGnKhIRVqqbHlVKUqrrhStaviip2qVMUVV6riSlVcqYorVXGlKq5UxVXygSc60JSPaMozOuSJDjzRgSY+0MQHmniiAx9oogNPNLG+5M2+lZv9Jjf7Jm/2Td7aN3mzb3Kz3+TWfpObfZM3+yZv9q3c7Dcc6AonusKFTriiC67ohAtd4URXuOCMLnTBGS50wRldcEUnsn7Jv//xm36gPduzPcuzPduzPcujPVuza7Zna5Zne7ZHe7Zne5Zne7Zne5ZneSxrlZb9lJa1SstepWUva5WWtcrLekrLWuVlLWuVl7VKy1rlbSAQiNgQCERsCARFCQpsCEQENgQiAoENsWjUUuOWGrXUuFFLjVpu1FKjlhu11Kilxi0VGnIh23GlKq5UxZWq7aJqu1KOO+W44kpVXKmKK1VxpSquVMVV8oEnOvBEhzTjKR34iKY80YEmPtDEB5r4QBNPdKADTzSxvuTNvpWb/SY3+01u9k3e2jd5s29ys9/KzX6Tm32TN/smt/ab3Ow3HOgKJ7rChU64ogvO6IILXeFEV7jQCVe40BldcKEzXHBFJ7J+yb//8Zt+oD3bszzbsz3boz3bszzbszXbs2uWZnu2Z3u0Z3m2Z3u2Z3uWZ3ms0rKW/ZSWtcrLWqVlr9KylrXKy3pKy1rlZa3Sspa9Ssta5W0gEIjYEAgEIjYEIgUCGwIRgQ2BiEAgsC0atdS4pUYtNW6pUUuNG7XUqOVGLTUqeaCSBiq5keVUpSquuFKVqu2KnepUxY475VTFFVeq4kpVXKmKK1VxlXygiQ880YEmntKBJzrwRAea+EATH2jiiQ480YEOPNHE+pI3+1Zu9pvc7Ju82bfyZt/kzb7JzX6TW/tNbvZN3uyb3Oy3crPfcKArnOgKFzrhii64ohMudIUTXeFCZ7jQBWd0wRVOdMEVncj6Jf/+x2/6NbdHe7ZnebZne7Zne7ZnabRne7Zne5Zne7Zne7ZHebZne7Zne9pjWau07Ke0rFVa9iota5WXtUrLWvZTWtYqL2uVlr1Ky1rWKm8DgUBEYEMgIrAhKBAR2BCICAQ2RAQCQdvQqOVGLTVquVFLjVpu1FKhxi01GlKjlhuV1KjlRrbjiitVqYorVXHtqrhSFVeq4kpV7LhSFVeq4kpVXKmKq+WJJj7QxIc08UQHnujAEx1o4gNNPNGBJzrwRAeaeKID68u+yVv7Jm/2TW72m9zaN3mzb/ImN/tW3uyb3Ow3udlvcrPfys2+0QFndMEZXXDBGV1wRSdc6AonusKFrnCiC65woitc6IQrOpH1S/73//Wf6QfKoz3boz3Loz3bsz3KszXasz3bozzboz3bszzaszXKsz3boz3tXuVlPaVlL2uVlvXYq7TKy1rWKj/WslZp2au0rKe8rGWt8rK2BYENQYFAIBAIBDYKBAKBQCCwRVAgEIigpUYtNW40pMJDatRSo5YbtdS4pUaNW2rUUuOWGtmOK1WxqYorVXGlCjtVccWVKspxxZWquFLGlaq4UhVXyxMNPKWJJ5p4ooknGniiiSeeaKKJJ5p44iFNPNHEE+mrvMlNbnKTm9zkJrdyJ7dyk5vc5CZvcpOb3OQmN7nJTW5yixmdcMEZnXDBGV1wojOccKETznChE87oghOu6IQTruiEE1m/5P/wN/9cv2K5NNqjPcujPcqjPVujPNqjPdujPNqzPcqjNdqzPNqjPdujNNrDHk9p2au07MdapWUv6ykte5WWtcqPtaxVXtZjrfKyVumxl7VKjwWBQCAQFEgIBAKBoIRAIBAICmxICARi0ajlRo1abtRSoyE3aqlxS40at9RoSI0btdRyo0a246IqNlVxpYwrZVypwk5VXJTjShV2qnClHBdVsXGVPOQRTXmggSceaOKBBp54oIGnPNDAEw088EQDDzzRwPrCh9xwkxs+5CY33OSGD7nhJjfc5AM3ueEmN3zIDTe54QMTTjjRGU444UQnnOFEJ5xwhhOdcMIZTnTCCSc6wwknOtEP+D/+7b/QD7RHabRHe5RHe7RGebRHebRHe5RGu8uzPdqj3O1RGu3RHuXRHtZ4Ssta5cda9iot67FX6bGWvUqPvUrLeuxVWtZTXtayV+mxlv0YCCQK/yQhEJQQCAQSBQIJQYGEPwUSBQIRNGqp8ZAatdyopYEbtdS4pUYtD9So5UZDatxSo8Z/wk4VNuW4KONKGVfKuCjHRTkuyrhSxhWbKspxYZc85MYDDTzwQAM3HvKIhjxwo4EHHrjxQEMeaODGAw/kr/KBGz5wwyfc8IEbPnDDB274wA0fuMOH3PCBGz5wwwdumHCiM7zghBNO9IITTniFE73ghBNOeEUnnPCCE054oRPO6Af8n//uX+oHyqM9Wl0e7S6P1ih3e5RHe5S6Pdqj3K1R7vYoj3aXRnu0R7mtfsrLesrLWtZTXtZjrfKyHnuVHmvZq/TYy3pKy17WU17WY63yI6GEQKJAwp8SBRICCUGEQEJQQsKfEoISAhG0PFBLjYfUqHFLA7fUqOVGA7XcqKWBG7XUeEiNW7JMGZsq7NhUYVPGRTk2VdiUcVHGThU2ZVyUsVNVcqOBGzdu3Higlhs3Hqhx48YDt9yo8cCNGw/UcmN90Qd94AM3+sAn+sAHbvSBD/qEG33gAx/0gU90wwc+6AM3+oQpzvCCF5zwghec6AUvOOEFLzjhBS840QtecIaXeIUTXvBC1i/5v/z3f6UfaI9yt7o82l0erS53e5S71eXR7nK3Rrnbo9TtLo92l7vV5WH3Yy37KS37sVbpsZf12Kv02Mt6Sst+rFV+rGU95WUt+ykt+7EeKwQlEAKJEv6UKCFASJQQICQKJBAlBBKIIhio5YFaatxoyI2G1LilxgO11Higlhq3NHBLAzVuyTJlbJWxcVGmjI1NFTZlbMrYVGGrHFtlXJSxsS23XLhx40YlN25cuHHjxiU3blS4ceOWCzduXLiRl/RBn+gDH/RB3+iDPuiDPugTfeCDP/CJPuiDPugbfdAHfeATfWCiF3nBC73IC17wghe84CVe4SVe8IIXvOAFL3jBC17wghe8kPVL/uPv/7V+oD3KXep2l7vdpW53uUvd7nK3utztLnW5210erS53u0td7nIv67FW+bGW/ZSW/ViPtcqPtezHWuXHWuXHWvZjPeVlPdayn9JjBUKiACEhESEhESEhiE0gESEhESEhiJAQSY0GarnRkBs1GnKjITdqNORGA7U8UMuNBm6p8UAtWVYZm7JsytiUZVPGVhmbMrZsytiUZVOFTUk2ZasKNyqqUOGSCzcuXLjkwoUbFy5ccuHCjQuXXLiwF/rgL/rgT/RFn/iLPugTf9EHffA3+uAP+kYf/EWf6IO/6BN98BcmHPCCA17kJV5wwAtecMALXnCIV3gpLzjgBS844CVe4RAv9AP+b3/5N/qBUrW73KVuV7lbXe5Stbvc5W5VuUvd7nKVut3lLlW7y13qci37sZ7Ssh/7KS3rsZf1lJf12I+1yo/12Mt6yo+17Ke07Md67McKiRIIidgkIiQkIiQQJRASERIlsElESEiEYOCWBmq50cAtDdxoSI2H1HiglhsN1PJALQ/UeEiNLaksm7JsSrIpY6ssm7JsSrKxKctWGVslbJWx8T8pXNi4sOXChU2VXNi4sHHJhY0LG5dc2LhwUZa98Df+4C/+xh/0xd/4g7/xB3/RN/7gb/zFH/yNvvgbf/AXf6MP/kZDOeAFB7zgIId4wQEHvJQDXnDAAYfyggNecIiDvOCAA176Cf/tP/xb/UC5Sl2uVperXK0uV6nL1e5SlbtV5S5XqdpdqnK3q9TlarVdj7Xsp/TYy3rKj7Xsx3rsVXrsx1r2U3rsx1r2U36sZT32Yz+lR9pKIEpgK4GQiA0hESFbhESEbIgSCNkiJCJEqKWBWxq40ZAaD9TyQC0P1HhIjQcacqOBWxqo8ZAal4WtsizZlGWrhK2yLJWxVZKNrbIslbFVlkVZtkqSC5sytmxsbGzKsrGx5cLGpowtGxubMrZsbFwP/uIv9Ym/8cKf1MIf/E198Tf+Ut/4i7+pL/7GX+qLv/E39cVf/A0DDnGQAw5xkAMOOMRBDjjEAQc54FAOOOAQB3nBFC9ywETWL/nv/se/0w+Uq1XlKnW5WlWucpWqXaUuV6nK1apylatU7S5VuUrVrlLZ9dir9NiP9diPvUqP/ViPvayn/FiP/Vir/NiP9dir9NiP9djL2taGiE0iNonYJBCxScSGKIGtBDZE2RBlQ8QmEYKBWxq40ZAbDXmgxkNqPFDLAw3c0sCNhjRwoyE3HqhsWSrLkq0StkqyVZKtsiyVZaksS2VZsinJVlmWypaFjSWbEjaWbErY2LIoY2HLooyFLYsyFrZsyg/1jb/UN/WlVuqLv6lFfVPf+Et9U4v6pr54pb7UN/XFK/VNfalv6guDHHCISQ5xkAmHOMghJjngEAeZcIiDTDjEQQ4xyQGHmGD9kv/+H3/XD5SrVOVquVzlKlWp2lV2qUpVrnKVql0ll6tU5SpVu0oul1WP9ZQfe1mP/VhP+bEee9mP9ZQf67Ef67GX9ZQf+7Ee+7FX6bEfKcoWgU22CGwlsMWGKBu2CNliQ8QmERu2EtgQBTSkxkMaeOBGQ2408JAaDzTkgRoNufFAQ2408JAaD6lkWSrJVsm2SrJkq2RbJVkqy1JJtkq2ZaksSyXZLkkWFiVZWJRkUcLCUgkLSxYlLCyVsLAoycKiJPuhvvQ3tVJfeqUW9U2t1JdeqW9qUd/0or6plVr0N7VSX2qlv9RKfcMQkxxikkNMMsVBJkzlgCkOMpUJh5hkioNMcZApJjnERNYv+S//6z/pB0pVdqlKVXa5Si5V2a0qu1Rll6rsUpVcrrZLVXK5SlW25af82I/12I/12Mt+So/9WI/92I/1lB/rsR/7sVb5sR/rsR/rsbe1xSYbttiwRcQmW2zYImSLDVtsiNhkiw1bbBKxATHwkAdqPKSBB2o8pIEbDXmggVsaeOCWBh5oyAM1HlLJslyS7ZIslWzJVsmWyrJckuWSbJdkqWRblkq2VJYMlgwlDCUZLAoZShhKMlgUsigwKmGwVGBRfuiVXvRKrfQ3vaiVXulFr9Q3vdKLXqmVXvQ3tdKLXumVWukvvcIgU0wyxVQmmWKSKaYyYZKpTDHJFJNM5YCpTDHJFJNM/YT/4a9/o1+jVG1bLrtVJZddctmlKrnsUpVdctkll1yukssuVdklW37Kj/XYj/1Yj/3YT+mxH+uxH+uxH/spPfZjP9ZjP/ZjPeXHfqxH2mKLDVts2GLDVjZsscWGLTZsZaOtbLFhiw1bbNiK0JAHajykgQduaeCBBh5S44GGPPBALQ808JAbDTTwkEuypZItlWy5JNslWyrZkuWSLZVsqWRbJVsuybKlkmQwKjAUqmAoZCgwMhQUMlQwKjAUGBUYCrkeeqUXvTKe9KJXeqVXemUseqWf9MpY9Eqv9Eqv9GI86ZVe6ZVe0DCVSYaYyiRTDGXCVIYyyRSTDGWKSaYyxCRTGWKSqUz9hP/xf/9FP1B2ySWVXXLJZZdcctkll11yybZaLttyy38queSyS/7TYz32Y2/rsR/7sZ7yYz/WYz/WYz/2Yz/WU37sbT32Yz32Yz/2Y22xYSsbPWKLDVt5YIstNmyx4RFbbNhiwyM2bLHFBqSBhjzQwI2HNPBAQx5o4IFbGnjgIQ08UOMhDzTwkAYuySVbtlSy5ZItl2S5sOWSLVsq2XLJlkuybLlk4xJyKORQoZBDoQoOBY4qFHIocFShwFEFQ0UVjKoexko/GSvjSS/Gk7HSK+PJWOknYzFW+slYGU96ZayMh14ZT3plrIwntDLIFEMZylQGTGUokwxliKkMMpQphjLJUIaYZChTGWKA9Uv+n//nr/oVS2VbKrmskksuq+SSyi7ZUtkllVx2SSWXXVLJZVku2dZjb/uxHvuxH+uxt/2UHvuxH/uxHnvbj/XYj/1Yj/2UH2mXH/uRtnjEhkdsseERW2x4xEZbPGLDFo/Y8IgtNjxiwyNtIWh5oIEHHtLAAw154IEHGvJAjQce0sADDXnggQYe8kAluWTLpTIq2SpLpTIu2XLJxpZLtlyyccmWjUu2XEIOjipUVBuHiio41FYFRxUqeKtChYocKtSWQ0UVXJvxMNfuh/lkrIwn48l4Mlbmk/FkrIwn48lYGQ/z2eNhrIwn48lYGU/GE7UyyFCGMpShDBjKUIYylKEMMpQphjKUQYYylCGGMpRBhn7Cf/2//08/UFLJZZVUsqWySi79f8bgRuXWbUvP8n233t/xU+d/OmIMiUVSe+/ypzCYYEgwKIgIopBvjLe39jiXOYA1r4uSArGgpLCgoFQoKC0oENTWI0ePth45evRI6ymPHjnaeuTo0dYjR4+2HD1yoJNDmpykySEnaTikyUmanKThkEM6OaSTA00OOQmww44bd9hxxw077rjDxh132LjDjjtu2HHHHXfYuENBFYoVpQqNhabEQlOForEoY6GxKLGiKFUZnFRTnWqcVFOdmthUp5qa2KmmOjWpxk4N1anGTk2qqdXZZ64z+8x15jqzz1xn9pnrzD5znbnO7DPXmevMPnOd2WeuM9eZfeY6s89cZ1KZzWxmMZvZzGYWs5mdbGYxm9nMZhazmc1sZmU2s5nNLGbzO/yv/tnf8xsKCpSCgoICpaCgRCgoKCgRCgpKhIKCEuHo0aMtR4+2Hjl6tPXI0dajR07ZevRI69GjLUdPckiTEw45pJMDhxxykoZDTtLkwCEnaXLgkE4OOSRh44477LjjBTvuuMPGHXfcYeOOO+y4cYcr7rhhxx1LyihVUaqiqUJTYqXESomVMhZllKooVko0VQw21bFTh+pUUyfV2KlOHapTTXWq8aQ61dRJNdWpTh3s1JpcZ64z15mr5zpznbl6rjPXmcfpq+c6c525eq4z15mr5zpznbnOXN3XmceZqyfFLGYzi1n0ZhazmcVsZjGL2cxiNrOYxWxmMZtZzGYWs5hN+HP+1//NX/kNQkmRAqGgjFBQpEAoUyAUFCkRihQIZQqEo0dbjh5tPXqk9WjrkaOtR4+0Hj3acrT16NGWQ0445JADJznkwCGHnHDIIQ0nOeTAISc5cMghB04C7LjDxh132PGKG3bccccNO+54hR037rjDjht3uOKOSzRlqtBUpcRKmRIrZapSYqVMiZUyVWiqUqbESvBQJ3Wok+rUoU7qUCceVsdDnawTD3VSTZ3UoU6qqZM6qUOtzqPn6nmcvnoeZ66ex5mr59HzOH31PM5cPY+e6/Sj5zrz6HmcuXqunsfpR891JotZTDGbWfRiFrOYxSxmMYvZ9mIWs5jFLGbRi1nMYhazmA3In/Gf/fN/4s8IkjJCkSJCkRJJEaFIQRFNgaSgiKSkiFBEONpytPXokdajrR/g+JwAACAASURBVEdbjxxtPdpytPVo69EjrUcbbjjkwCEnOXDIgZuccMghBw45cJIDNznkwEkOHHIgYYeNO15hx407XmHHHTfusOMVd9yw445X3LDjjlfYcUmZqpRoqlKmKmWqUlKmKmWqoqlKmSrKlKlKmaqUGbxZJx7WnTrUSd3USd3USZ3UTZ3Uoe7UoU7qpk7qpk7qUHfqsFbPo+fR8+h59Dy6Hz2PM4/uR8+z59FzdT96nmcePY/uq+fZ8+h59Dy6H2cePY+eVGbRyylmMYteTDmLWcyii1nMshdTzGIWs+hilrOYRS+mQP6U//xf/Ft+QxFJEUmRIpIiSjEFkiKSIpIiRTRFhCKSIpKjrUdbj7QebT3a0taR1qNHW1uONp6y8Ujr0aOHHLiTA4ccuMmBk9xwyIGbHDhwkpscOOSGQw6ccJPAFXfcYccLd9xhxwt33GHHK+644Yo77rjxCjvuuOMVlpSpSpmqLFOmKmWqUqZMVcqsSpmqlKlKmWWqUqYqZQZv6k7d1J26WXfqpk7qpu7UTd2pm3WnbupOHepO3dSddVN36qbu1Jo8e57dj5lnz6P70fPseXQ/Zx49z+5Hz7PnOf3oefQ8ux89z55H93Pm0fPseXSnmGKWXcxiii5nMUUvppxFF1PMsotZTNHLKaboxZSz6OJ3+C/+5X/gN0iKkRSRFJEpIilSjKSMRFJMEUkRSTGSIhLJ0daWo61HW1uPthxtbT3YerS15Wjr0dbWIwcP3OTATQ7ccMgdDtzkwCE3HLjJHQ45cJMDNxxyw4GEHTZecccdr7BxxyvuuMMVN+54xR12vOLGHa+w444XLlKVZcpUZZlyqrJMVcqsSjllVqVMVZZTlWWqUmaZqikzeFNf1p36pm7qy7pTX+pOfak766a+qZv6Zt3UN3VT39TNulNf6k59WXvy7H7OPLufM8/u58yz5zn96HlOP3uePc/pZ89z5tn9nHl2P2ee3c+ZZ89z+tkTmaKXU3QxRZdTTNHlLFpn0cWUXUwxZRdTdDmLLqac4nf4L//b/43fUESmGEkxkmIkxUhkisgUkSkiU0SmiIykGI1M49HW1qOtrUfaajnY2nq09Whry9HW1oOtrUcO3HCTG0644ZAbbrjJgRtucuCGQ+5wyx0OueGGQ24I7HjFHa+w48Yr7njFHXa8cMcr7rjDFTdecccdLtxxxw3LqcpyqrLMqpSzKmWWU5VlylmVMqtmmaospyrLLKcqyzR+qW/qS31Z39SX+mZ9qW/qy/qmvtSX9U19qW/Wl/qmvqxv6kt9s77UN7WTV/dz5jn9mnlOv3qeM6/p58yz+zXznH7NPLtfM8/p58yr+znzmn7OvKafPc9ptIsuRqfosouRLqfocorWKbqYsmXKLqbsomXKKbrkN/j3f/9/8huKkcgUI1OMRKYYGZliZIrIyBQjU0RGphgZM5rG1qOtrUdaW1sPtra2Hm1tbT3a2NJ6tLX14E1uuOHADTe54YYbbnLghhtuuMkNB2644SY33HCH2yRecYcLd7zijlfceA0bd7zijlfccMUdr7jjFTfucMUrLlg1y5SzKstZleUsUzXLrMpyqrKc5azKcqqyzKpZZjlVs0zjl/qwvqkP65P6Up+sL/VhfVMf6pv1ob5ZH+pLfbK+1CfrS31SX9aH+matzGvmNf2aeU2/Zl7Tr5nn9Gv6NfOafs28pl8zr+nXzGv6NfOafk6/Mq/p18xrOjLaResUrS1TtkzZ0uVI6xStXYx20Tply5QtXYD8Gf/Vv/p/+HORMVOMjEwx0jLFyMgUI2O6HDMyxcjIFCMjXQyktaH1aGtra2vj0dbW1qOtja2trUdbWxtbjt5www033HCTG2644YYv3HCTG2644YYbbrjhJjfccENgxyvueMUdr7jhilfccccrXnHjFXa84o5X3HjFHa54xQWrZplVs5xlVs1yVmU5q7Kc5ayaZVbNMtupmmV2TTnbrJoyLZ+sD/XJ+lAf1if1YX1SH9Yn9WH9UJ+sD/VhfVIf1if1YX1SH9aH+mR9qD15pV8z7/Rr+jXznn6l3zOv9GvmPf1Kv2be06/0e+Y1/cq8p1/Tr8x7+jX9zgRauhxtaW0ZbW0Z7aK1daS1tWXKltbRltaW3+G//tcffkPRMqaLkZaRKVpGujLSMtIyxUjLVFpGWka6GJjWxi4bW1uPtja2tra2tjYebW1tbWxtbW09cMMXbrjhli/ccMMNX7jhhhtu+MINN9zwhRtuuOGGryTseMUrbrjijle84o5X3HjFK+5wxSvueMUdL7zijle84iKrZjurspxVs51lVs1yds1ylrMq21k1y1nOrixn1Sxnm1WznKOf1A/rk/VD/bA+qR/WD/XJ+mF9Uj+sH+qT9UN9WD9ZP9Qn64f6sH6yfqgPa0/e6Xf6Nf3OvKff6XfmPf1Ov9LvmXf6nX7PvNPv6Vf6nXlPv9PvzHv6lX6ngyOtjS2traMNra0tow2tra0Dra0trY0jrfwG//IPzW+QLsa0jLR0MdKmZaSLlpE2LVO0tIy06WKkpWFaWxtbW1tbG1tbW1sbW1tbWw+2tra2NrYeveGGL9xwwxduuOGGr9xwwxdu+MINN9zwhRtu+MoNN064cMcrXnGHK15xxytuvOIVd7ziFXe84oZrvHDHK15xx012ZTmrZjurZjvLWTXbWZXtLGfVbGfVbGc5q2aZXbOc7aya5TT+UD+sn6wf6of1k/VD/bB+sn6on6wf6of1k/WfqR/WT9YP9cP6Sf2wflg/qR/WlbzT7/Q7857+u/Q7/c680+/0O/136ff0O/NOv9N/l35n3ul3+p1+z/xd+p1+p4MtjaONLY2tjS2tg60NrY2tja0DrY2tDa38Bv/6D1/+jCAjLWNapmgZaRkz0sVIy5iWkZYpWkbGtEzRMK2tja1HR482tra0Nra2tra2Hhw92tLa2Hr0wA033HDDDTe54YYbbrjhhhtuuOGWG+5wmxsOfOGGhCtuvOKOV9xxxyvueOGOV9ipK+y44xU3XnHHK+54xR22LGdVlrOcXVnOclbNMqtmO6tmmeWsmmV2zXJWzTLLWTXbWZWDn9QP64f6yfqhPqyf1A/rQ/1k/bB+qE/WD/WT9aF+WD+pH9aH+sn6oX5Yn9RO3pl3+pV+p9/pd+adfqff6dfMO/1OvzPv9Dv9Sr8z7/Q7/Z5+p9+Zd/qVBlobWwdbG1obRxtbGkdbG1sbRhtbG0caW/kN/uM//Gd+g4y0jExlpGVkZEzLFCMjLWNGRka6GBnTMjIwra2NrS2tja2trUdaG1tbW1taD7a2tja0Hj1wwyE3HLjhhgM3OXDDDQduOOSGAzfccOAmB264IeHCHXfc8Yo77rDxGjfuuOMVd9xx4xV33HGHK7XDjhs3LGdVlrPMqllm1SyzapazzKops2vK7Joyy1k1y6yaZVbNMo0/1If6yfpQH9ZP6sP6SX2oH9Yn9cP6UD9ZH+qT9UN9qJ+sD/XD+qQ+rB9qJ+/0a/qdeaXf6Vf6nXml3+lX+p15p1/pV/qdeadf0+/MK/1Kv9PvzCv9SgOtjaONo40tg62tg42tgy2No42jrY2jDY38Bv+7v/y//IbKyMjIyEibSMvImJGRKUbGjIyMjIwZGZliYBpbW1qPtja0tra2NhxtbW1pbWw90tra2NJ6wyEHDhy4yYETDtzmhAOHHLjhwCEHDtzkwIEDNwnusFM7XHHHHXfcuOOOO+644w47tWHHHa+44447btxxwXJWZZmqWWbVLFNm1SyzKuWsynKWWZVyVmWZVVNmOatSpuWT9aE+rE/qQ/2wPqkP9cn6UB/qJ/VhfahP6sP6pH6oD+uT+rA+1Cf1oVbyTr8yr/Qr/c680q/0K/NKv9Kv9DvzSr/Sr+l35pV+pV+ZV/qVfqdfmVc60jjYOtg62jjYOtg60DrYOtjaONo42jja/CJ/xv/hL/83v0HGjIyMjMSMjIyMjIlMMTJmZGQkMmZkJDIyB1taW1taG4+2tLa2NLYeaW1taG090trY2nLgkAOHnNBwyIEDhxxockPDgUNOOORAkwMHDhySsHHHHXfccceNO664w4477rjjxh1X3HHHHXfcuMOOC8qsyqqUKWdVlqnKcsqsSlWWKWdVyqzKMlWzTJlVKbMqDR/WJ/WhPtQn60t9qE/qQ32yPtSH+qY+rA/1SX2oT9aH+lDf1If6ZH2onbzSz/Qr80q/0q/0K/NKv9LPzCv9Sr8yr/Qr/cy80q/0K/3KvNKv9DPzSgdGB1sHWwdHG0cbRxtHG0cHWwdbB1sHRxv5Df6Pf/m/+HORyJjIyEjMyEiKgTGRKSIDY1KMRMaMREYG0tjSerSltaG15WhrQ2vrkdaWxtaWoy2NrS0Hmhzo5ECTA00ONDnQyYEmDQcOaTikQ5MDTQ4EdtxxxxV32HHFjTuuuOOOC3fccccVd9xhxR03rrjjgqosU5Uyq1KmKsuUqcoyVSmzKmVWpUxVylmmKstUpUzrJ/WlPllf6kN9Ux/qm/pQH9Y39aG+1Cf1pT6pL/VhfVJf6pP6Uh/qm1rklX5mXuln+pV5pl/pZ+aVfqZfmWf6lX5mXuln+pV5pl/pV+aZfqZfmVc6MNo62Dg6ONo4OtjWwGhTI0O1Do4OtDXYOMpv8J/+8n/wZ+SXFCOBVAYiU4REpgiMiYxEYkYiIzEjkchAGltaW1oPtLa0thxsaW1pPdLa2NJ6pLWhtaXJCU0amjRpaOjkkIYmDU06aWjS0ORAk04amgR2XHHHFXdcuOOKO664w4o7blxxxxV3XHHHhTuuuENpmWWqUqYqJVUpsyplqlKmijJlqrJMVUqqUqYqZVal8UN9U1/qm/pQX+qb+lDf1Jf6sj6pL/WlPqkv9aW+qQ/1TX2pT+pLfamVvNLP9DPzTD/Tr8wz/Uw/mef0k35lnuln+pl5pl/pZ+aZfqafmWf6lX5mIoODo41jDY42jg6ODo42jg4Oto4Ojg7VOMpv8H/66//ObzCRyEhMJBIZkiIQGROJxERGIjGRyEgkkIbWI60tjUdaW1pbDrS2tLY0HmltaT3S0NrSpGGSJg1NJmlo0mSgkyYNQ5p0aDKkoUknA02AFVfcccUVN66w4o4rrrhwxxVX3HHFFXZc1Ao7rrjikpIyVSmpiqYqJVUpqUqZqpRUpcRKmaqUlKmiTFUav9SX+qa+1Df1pb7UN/XFb+pLfalv6kt9qW/qS31TX+pLfVNf6ovf1E6e6QfznH7Sz8wz/cw80s/0M/NMP9PPzDP9ZB7pZ/qZeaaf6UfmmX6mn5nI4OhQg6ODo4Ojg62DYw2ODg6ODo7VODo4ym/w3/z1P/EbJCYSicREIjGBFIGYSCQSE4nERAKRSEyOtLa0HGxpbTnS2tBytKW15UBrS0vrkcaWlkmaDDQZMknDkCGdDGkYMknDkCZDJmkYMqST4Q8rrLjiigtX3HHFFVdcceGKK+6w4ooLV1xxxRV3XLGkTBVKVcpYlJSpikWZKko0ValCKVOFpooyFmVGv6kv9cU79aW+qZv6Ut94U9/Ul7qpb+qLd+pLfalv6qa+8Uvd1De1mGfmkX6kn5ln+pF5ph/0M/NIPzOP9DP9yDzTD+aZfqSfmUf6mX5knulHBhkcHWpwdHB0qNHB0cHB0aFGB0cHRwfHGhzlN/g///U/8hskEBNBYiKRCCYSiIkgkZhIABOJRGKAtLQeaWk42tLSeqShpbXlSGvDkdaWlgOtLS2TDBkYMsmQIUMmGTJkwpAhQyYZMmRgkiFDhkwCVFxxxRUXrrjiCiu1wsIVV1xxxRVXXFhxxRVXWHHhQk0VipUSizJVKFVoqtBYlFShqUKpilKFporGL3XHm/pSd+rGb+qmvninbuqbuvFL3akbv9Sd+lJ3vKlv6qa+uJJH+pl50I/0I/NIPzLP9CP9yDzoR+aZfqQfmUf6kXnSj/Qj80g/Mo/0MxMYHWo0ODo41uDoYHSo0cHBsQZHB6ODYw0O8hv8t3/99/wGicQgAUwkgsQgASQmgsQAkRgkgsQEONLS2nKgpeVoS8uB1paWIy2NLUdaWo42tLQM+WXIL0OGhEwyJGSSISGTDAkMmSRkkpAhQ34BVqy44goLK6644ooVV1y4YsUVV1hYccUVV6y44sICixILRamKhWJRolRhRbEosVAsylgoVSiNN97UnbrxTt3UjXfqizd1p268Uzd145268Zu6qRvv1I136qZW5pG56EfmkX6kH5lH+mIe6UfmkX6kH8yVfmQe6Uf6kXnQV+aRfmQe6UcaHRxrcDA61OhgdKjB0eBYg6ODsQYHR0ONDvIb/Hd/+3f8GQlBkBjklwgmgmACmAiChCARDBJAMAFaWo60NB5paTnS0NpypOVIS0PLkdaWIw0tLSG/DPkDGfIHEjKZkJBJQv5AhoT8gUwSEvILpOKKFVdcWHHFiisWrLhixRUrLqy44ooVV6y4sGKBhVKFYqFYKBaKhWKhVKlYsVQsFAtFGb3jTd14UjfeqZu68Y6HuuNN3dQdD96pm7rxTh28Uzfe1B0XeaSvzJV+ZB70lXmkr/SDudKPzJV+ZK70g74yj/SVedBX5pG+Mo/0lUYHYw0OjhUcDY41GB1qMDrUaHCsweDoUNFBfoP/y9/+Db/BIH8wSASCIAgmgGCQP5gIAkGQGOQPR1paDrS0HGlpONrScqSl5UhDy5GWlpYDLS35hYQhCfkDCfkDk19IyB8ITH4hfyAhf2CSCBUrrlhxQcWKK1ZcWLHiihULV6y4YsUKCyuuWFG0sFAUS8XCArVQLBRLxUKh8JdCsVAsGw/e8VA3ntSNJ3XjwTt18KZOvPGkbjypG288qRtP6sZDVebKPNIXc6Wv9JW56EfmSl+Zi74yj/SVudIXc6WvzCN90VfmSl+ZBx0MDjUaHSo4Gmo01GB0qOjgUNHBWIPRoaJD8Rv893/7J36DYJA/GASBIAiGXwQjIBjkDwZBIMgfWo40tBxpaTnS0HKkpeVIS8MxLUdaWo40tLSQhIH8AvkDQxICSQbyC0wSyC8wIb9AkoH8IlSoWLFwxYoVK1ZcWLFihYorFlasWHHFwooVK5aoFP5SIJYKhb8UqIVCaaFQKpaIhb8U6OiJN57UwYN3PNTBE2/qxIMndfDGkzp44k2dePBQdzxYyUVfmSt9ZS76yuz0lbnoK31lLuZK7/SVudIXc6WvzEXvzJW+Mlc6Gow1GGswOFYw1GhwrOBQ0cFYwbGCQ0WDY/Eb/A9/++/5DfIHo/zBIIgEwQgIhl9Ewy+CUf5gEIEjTbo40HKkpeVIQ8uRNkdaWg60tBxpOdLQpoUEhgSSDARCBpIMhARCBkImhASGBEImhIxQsWLFwooVK1SqoGLFihUrFlasWLFiYYWKFSv+FxQqhSWiUlqgFCqFSqlQKpQWqAVKOXCoEw8e7NTBEw8ePKmDJx488VAHTzx4UgdPbDx4UsXszJXezJXemSt9MTt9ZXb6YnZ6M1d6Z670xez0ldnpi9npnblocDBUdKhoqOhQ0eBQ0VCDsYJjBaNDBWMNxuI3+B//8W/8BoNIEESCCBgFkSAYAZEgCkZANPz/bDmkpeVIy5E2DUdajrRpOdBypKXlmJYDXTS0MYEhgSGRIYEhgTGBkIGQgZiBkIGQmIHAGCoaKxRWrFjRWFixYsWKYsUKFSuKFStWrFjxF4QStaRAKX+hoPyFEqH8hRKhRC0oUUtk9KQOdjx4YuPBExtPbOrgiY0nHux4sKkTD3Y8eLAyO7OZK70zm96Znb6Ynd6Znd7MTl+ZTe/Mzmz6Su/MpndmZzYNBmMNhooVjA4VjBWMNRgqGio6VDBWMNZgLH6D/+s//gN/LkRRIIqgQSQKIkEEDSJREImCSJRfPKbhSEubIy1HGtocaTmmpeVAmyMtR1raHGhpYyJDRkLGBMYExoyEjISMCYzEDIkMiQwZiUlFY2FFY0VjYQVTFSqKFSsaK4oVKxorVhRESpQSpUQpUUpKhTJqiVJSopQoJUpBOdh4YmPHgx0bT2xsPLGx8cTGjofqcLCpDgc71WhmMzu9M5vemZXezE5vZqd3ZtMrs9M7s5md3plNr8ymd2anNxMMxgqGihWMFQwVHSpWMFQ0VDRUcKxgqGgofoP/6R//nt8gEkUjKBBFoigSRZEAikbQKL9oBMEmLUfaHGk5puFImyMtbY40HGlzpM2RliZHWsaQMZExkTEjMWPG/48xeMHBNmyTqrqrrof5D8XgKYhKxKChaaCbQRiNGkHOJu9d257B/62FcWHRMFw0LC4YFxeMC0ZjakJqIjUxNSExNTElMTUxJVkCNTE1ITUQGhIaEhtaEhoSGhIbGhIaUhobEhoSGhKaRx555JlHnnnkmQfPPPLIM48888gjzzzyk0ceeeaRZ8rOfex8nzve5873sfN97Nzn+9zxzn28c5/v2OfO97HzfQwiMZVKTCWmUompRGoqMZVITSVSE6mphD+Q/+1v/gl/ICQGEooJgcSEYEIgMZAYSAgmJBYSggmB/PCFX3zhF1584Rcf/MKLv/DiL7zwwxd+8YUXf+GFH76wGBcNq4sL1oXFRcviwqpxYXXBuLqwaF1YNCamJCamJiYkpiYmJlATExNSExMTUxITE2JDQmNLQmNKY0NKY0JDYktjQktiQ0NqQ7LkmZFnHjzyzMgzD54ZeeSZB8+MPPPIg5lHnhl5ED338c4d79z5jn3ueOfOd+zc8T53vmPnO3bu8x073zGIxFQKMZWaSCWmUFOJVGIqNYFKTaSmEv5A/ve/+cf8kYTGQGIhIZhQTAgmFBIDCcWEYEIxIVDIw1948Rde/IUXf+HhL7z4wi/+wos/ePGFX3zhF3/h4Qsv1lXL4urK4uqKcXVlcXVl0bqyuLqyuGJdNCYkJqYmJiQmEhMTEhMTExMSUxMTE4iJgdjSmNLYktiY0pjS2JLYmtDYktiS2NqQ2kgemTwy88jgmZEnI88MHpl5ZPLIyOSRmUcmj8QdO3e8c8c7V9+xc8c7d668c8c7d+x8Zec7d7xzxyQQU6mEVCo1gZpKpKYQqSnEVCoxhUpN+AP5P/72H/EHYqAx0BBsCDYEGgONgcZAQ7AhmFBMKAT7iy/+wou/8PAXXvyFF3/xhV988Isv/OKLv/DiLzz8hRcX6+rK6uqqZXV1ZXV1ZXV1dWV1dWV1dXVllUhITEwMJiQmJiYkJiaCiQmJiYkJiYnBkJDamNrYktrYmtKY2pja0pjamtjSmtjamEpGHswMZkYmIw9mRiYjT0ZGJiNPRmYGI0+K9R2rO1/Z8erOlXeu7Hxl5ys7V9+xsvPVHavvGERiCpWSSKWmEKkpxBQqNYWYSiGmUqgJfyD/59/+9/yRxkCxIdhQTCg0BhoLwYZCYqEx0FhIqOaFX3zxF178wYu/+MIv/uILv/jgF1/8hRd/8YVffPCLv2isO1dWd67uWF3dubK6c3XH6s5XV3au7lzZuWhMCCYmBhMSwcYEMDExMZCYGExIDBIbITW1sTW1tTWxNbW1MbU1tbU1sTW1tTWxNV0ykQxmBjODmYFkMjIZmYwMZgYzwsxgJK6srr5j9ZWV1XeurL6yuvLOldVXVl/ZufLqyoNKSKVQU4gpVEoqgZpCJaZQKakUYgqVQPhL8n/97T/gjyQWGgsNxUJjoTHQWCg2FBoLwYZiQ6GYX3jxF1/4xRd/+Asv/uKLv/DiLzz8xV988Rde/IWHv/ji4rm6c+eOV3fu2Lm68507dq7u3Lljdec7d+xcXTUEE4PEQGIwMZgQTAwmBhKDhMRgYjAhElNb26W2tqZrTW1tTW3XmtqarrU1tbU1XSsZaAbKyEAzmEgmwshEMhFmhJGJMDOIlldWV15dWH1ldeXFldVXVldeXVh9ZfWV1YVBIKZQqClUQiqFkkpJpFBTKNQUIiWVQvkD+b//1X/NX2RCobFQbCg2FAuNB8WGYqGh2FAsNBYuVvLCL774i7/44Bdf/MUXf+EXX/zhC7/44i/+4gu/+OIPX1w8d+5858597Hznzp073ufOnTvfsXPnPne+Y+fOnauLgWBiMJAYDCaGv2ORGAgmBgOJwWBiIJC15tbamq61XWq71pztUtu1pvbWmq41tV1rbokiTCTCjKAMNIIyIigDjTCRKANBExZXFl9ZXHlxZeHVhdUXVhdeWVx5cWXxlcWVB5WQQqWkUKgp1AQKhZpCSaVQiCkUSirlD+T/+Vd/nz9hw2HhYqF4oVhoOCw0Fg4biheKhcOGYqG/+MIv/uKLP3zxF3/xhV988Rd/+OIvvvCLL/7iD1/8xV8wO/e5z3fu3Mc79/nOfe7znTv2+T537vOd+9zxPnfu852rhmAwGAwEicFAMBgMJAaDwfB3DAYTgpGutV1urel6tkvXs11qb+1Se2uX2ltrut5S27USjSAoEkVQBEEjKIIiEZSBIlEEBAwvLqy+sLD4wurCiwsLiy+sLry4sPDiyuLCg0JIpVBSKNQUCiWVQkmhEFIplBQKNYXyB/Kv/9V/wZ/wQvGgeKFYuFg4LDQeHDYUD4oXigeNhYP+4g9f/MUXf/HFX/zFF3/x4S+87Bd/4cUXf/EXX/zhi79oPN/nPne+z33u8x37fJ/73Oc797nPd+zzfe5z5z7f5z7fx6oYDAbD3zEYDASDwWAgGAwCwWAwGAhGunatubXrLbVdb+l6tsutXWtu7XpL7a1dup7tciaKoAgCImgERRAQiSIoAiIIGkEJiwsLLy4sLry4MFh8ZbjwwuLC4guLCwsvLgwCJYVCTSFQUijUFAolhUJIpVBSKJRUyh/Iv/7bv89fEv5O8aBYuFgoHhQPCw2HxYNiw2GheFBsOO2Lv/jii7/44i+++OIvvvjiL774iy/+4sse/LIXXvYLL1v83OfOfb7PHfvc5873uc997nwf+9y5z33ufB/73LnP97kqBgPBYDAYDKDBhKAjIgAAIABJREFUYDAYCAaDQTAYDAQjWc926Xq2a5faW7vW3Nq1tsuttV1vqe3a9UzXSiSKICgSRVAEQSNMBEEDKIIiSBRYXFhcWVx4cWFx5YXFhcWFxRdWFxYXFl9YHYkUQiolgUJNoFASKSlESgqBmkJIoRBT/kD+zd/+l/wJC4eF4kGxeKFYOCwWDorFg2LhsFg4LPQXX3zxZb/44osvvvjiL7744osv/uKLL3vxxV988cUXFz/3uXOf72PnPnfuc+c+97Fznzv3uc8d+9y5z33u3Oeq/B2DwWAwGgwGgmAwGAwGg2AwGgwEI7G3dqntWtu15tautV1rut5a27W2S9ezXWu71EQyERRBIwgTiSIIE4kiCJqJIGgEXFlYXF1YXFlcWFx5cWF1YXFlcWH1hdWFxUFIpCRSCKmEREoClZBCTKASUogpBGoCgfCX5N/8zX/FXxIC1ULxsFAsHBYLxYNqsXBYKB4Ui4XDSl/24osvvvjiiy+++LJXX3zxxRdf9uKLL7744osvvmzxc+c+97HTz5373LnPHfvc6efOfezc58597tin5z5XxWAwiAaDwWAwCAajwWAwGASDwWgwJGtt15qut8bW3lrbpWtt19qutV1ru9R2re1aiTCiDDSCMJEoA2FGUIQRRZgRJoIkLqwurC4urK4sLqyuLqwurC6sLiyurC4uDAIxgZhCTCAmUBOIhFRCIiGRkkggJhBT/kD+37/5b/gTFqrFg2KheFooFqqHhWLxpFgsFE+Khb74shdffHHZiy+++uLLFl988cUXX7b64osve/HFF42fO/e504+d+9zpsc+dfu7c5w7Pfe7cp8c+d+7Tc0UMC0aDQTAYDEaDYDAYDAajYWAwGIzJWtulXk13MV1ru9bWdq3tWtu1tjZrbdea7ioZaITJiKCMCJOBRhhoBjOCMCNMBpK4uGJdWF1ZXVxZXVxZXbCuLqyuLqyuLK4MIiGRmEBMJAQpQWICMYFITCAmJBITiIQ/kH/7L/9b/oAUD6rFQrVYOC0WqsXDSrFQLRZOi4VqX7f44uLLXnxx9WUvLr5s8dUXl7344uLrXlx88WXGz50e+/Tc506PfXru9HOH5z53euzTc5+eO/zcuQoGwWhYMAgGo8FgWBCMBoNBWDAaDEZiu6uN7Vpbm7W2tmtt1trarrWxXWtrs9Z2rclEMphIJgPJZEQZSCYjwmRkIowoI4NoXVldXVi1rqyuLqyuWlZXVxZXLaurK4sSJASJiUAiMQFMJCSCicQEMJEQTCQm/Jn823/5D/gTVorVQrVYqBZPitVipVisVoqHlWK10mWLry57cfF1iy8ue3F12YsvLnt1cdmLqy9bfNHs09Njp587Pf3Y6bnDT8+dnvv08Nynx04/d3paZMEoGBYMRoNgWDAaDAOD0WAQDIsGkdp6sV1rY7vWxtZmra2XtbY2tmttbNd6sTVdGJlIBjODEWUwMxhRBiOTkcGMMBkZzATr6spO4+qO1VXL6qp1ZXXVsrq6smpdXVEgSAwSg4RgIpgIJgKJQWKQGCAGE8GEP5B/9y//O/6AFquVYrVYqR5GitXDSrVYLVSLlWK10mUvrltcfNnqssUX1y2+uGz1ZYurL1tctvriMuPpx05PTz92enp67NPT03OHn56eO/z09NzhaQVh0WAwDA0Gw8BoMCyIhgWDaDAsGAW6xquNrc1aWy+2Nmtsbb3YrrG1sfWy1tbGdmFmMDIZGcwMZgYjg5mBZvBAM3hEGRnMRMvqqmXnqnV1xXN11bK607qyat25Yl1dlSAYBBODYDARDIKJQFgCGAwSg2BikD+Sf/cv/iF/wkq1WqxUi9VKtVgtVqrVYqVarFaq1dq9uGx12eK6xRftXly2umxx3eKy1ReXrS5bNPv08PT09PTw9NyHp6enh6enpx+enh47PT2tIBgXDIZFwbBgFBaMhoHBaFgQjAsGkdp4sV1jY+vF1sbWi81aG682tjZe1trY2ngZGRnMDB6ZjAxmRgaTR2YGI5ORwTODkclItO6wru607LSueq6ueK56rq54rlp3rFp3KpoYBINBMBgEw8BgEAwGwWAQDAbB8Cfy7//F/8Af0Gq0cDNYrVaqxWq1Ui1Wq5VqtFitVLtucdk646tmy1aXLa5bXLa6bNXsxXXGZavLjKeHn56eHp6eHp6enB6enh6enp4enp6eHlZYNAgLRsOCuGBYFAwLomHBODAYFwzDxNaLja2NFxtbLza2XmxsbHexsfFqY+PVxmbJzOCRwczgkZnBM4ORJyMjg2cGz4wMZh6MRM9Vj1XPVc+d1h3Wndad1h3WnZ6rnqseq4ILBsEgLBoMgtEgLBhEg2FgMAqGBZGEvyT//p//j/wBrVSLncFqpVqtVquRarVarVSr1WC10mXrFu0W1y0zrlu0W1y2zrhucZ3Z6rJFu2XG04PT08OT09PD05PD09OD09PD05PTw8ppBWHRMDAaFsQFw6JhYFwQFg0LomFBXEhsbL3YeLGx8Wpj48XGi42tFxsbLzZebG28jAxGHpk8MvJk5JHJI4NnRp6MPBh5MjLyZOSR6Om507rTc8XTc6d1p+eqp+cO605Pz1XPnRoN4oJBXDAaBkaDuGAUFg3GgcG4IBr+RP7DP/9H/AGtdlarkWq1Wq1WI9VqtVqNdFar1WokxnWLZuuM68xWl9kt2i2zLrNbXGdcZ7ZqZjw9PDk9OD0tnJ4enJ4cnlZOD05PD04PTiMsiAvGgWFxQVg0LIgLxoFh0TAwLgyMiY2NFxsvNlxsvNhavNp4ofFi48XGi42NF5slg2dGHjwz8uCZkQczjzwYeebByDODRx6ZPPJI9fRc9fTc6em509Nz1dNjp6fnTk/rTj+tngMXjIvCotGwKC4YFwXjorBoNCyKC8ZF/kD+w1//T/wBrUSrndVotdoZrVSrndFqtVrJrFar0a4zW2e0W2dcZ2a3aGe2zmi3zrjOzG7Rzsx4cnhyWDk9OTw5qJ4cnlRPDk8OKyeHJ6cRjAsD44JxsGAcGBcGxgVxYcE4MC4YhsSLDRcbLzYeXGxsvHix4WLxYuPFhouNFxsuL8w88siTkUceefLIyJNHHnlm8MgjTx4ZefLIIzPB03M3Tw9Pz3168/TY6enpbYenp+dObx5+7lRcNAyNi8ZF49C4uCgYFxeNQ+OicVFY5A/kP/71P+YPzGq02lmtZlaqmdVqZ7Razax2VqOVzmisZnbLrHZm64x2ZnbrjHZ2ZnaLdnZm1mXEw5PK4clJ8eTkoHpwclI8OSmenBxWTg4iDBcMwwXjwtCwMDQsDowLA+PC0LA4MBIuFi82XDxsuHix8bDhYuPFg8aLDYcXGy80C4888syDRx555sEjzzzy4JlHHnnyyMiPzDx45JFnop+enp47/fT09PRzp6enn56envvm4c3T00/PGY2LQ+OyReNw0bi4aLYoLi4aF2WLi8ZF/kD+41//z/wB7ax2RquZ1c5qZjXaWe2MVjOrndXMaqTL7OzI7OwW7ezM7OiM68zs7MysdmZ2dmbEg5PqQeXkoHJwWjk4qRycFE5OCycnhZMIi8LiwtCwOFgwDhYNw4VFYXFhUVgYGoiHDRcPGy4eNlwsXrh42HDYeOHiYcNhw8VjyY8888gjTx555JlHHjzyM4888uSRRx555gePPPLMI9FPPz09/fT09Junnzs9/fT009NPb55+evrp6TnicNmicdni0Gxx2aJx2eLimHHZ4qLZ4uIY4S/Kf/pn/4Q/MKOd1cxqZ2Y1s9oZ7cysdkY7o53VzGpHzOzsyOzszOzorOZZ7czo7Mzs7Mzo7Ix2ZAeVkyOVw8qRyslJ4aRwUjg5KZwUTioHGRgXhguLwuLC0DBcWBwYFxYHi8LiwnAhsXDx4GLh4uGFw4bDiw2HB40XDy4eNB5eKEt+5JEnj/7gkUee+ZFHnjzyI4888yOPPHnkRx555kceqX56+unNT08//fT0m6effnr6yblPbvv0k3OfnPuG2eKyZcZly4bLFpctMy5btrhscdnQbNniskWQvyT/6Z/9L/wB7cys68gW7eyMdmZ2RjurmZ2Z1czOama0dnZkdnZ0ZnZ0dnRmdnR2ZnR2dmR2dnRmxIPKQeVM4aRwUnNQOaicKZwUTmoKJweVGIYLi8LiwnBhuLAoLiwOFheGhuHC4mAx0Hhw8eDwQvHC4YXiwcWDiwfFiwcXDwoXjyU/8swPHnnmRx75kUd+5pFHfuaRHzzyzI/8yCOP/MwjP1L99Jsnn3766c1PP/309JuffvLp6aff/PT000++eWq2bJnZi2PrxswWX96i2bJlyxaXLVu2bNmyxWX8gfznv/pf+csyMzujnZmdmdVsHdk6o52ZnZnVzM7Mzmhn6OzIs6OzozOjo7OjsyOzo7Mjs6OzozOjIztSOagpnNQcVEpOKkcqhTOFM5XCmcJJSQbGweLiYHGwuDBcWBwuDBeMg8WF4eJgEbhweHB44fCg4fDg8MLhwUHjweGFw4ODxmPJDx79kR888yOP/MjPPPIjz/zIjzzyM4/8yI888yOP/MiPdH76yaff/PTTTz795qeffvqNTz89/eYnn3766Tc/+VS2bN3Yspe3uLxly5YtW/ayZcuWLVu2vGXLli17GX8g//mv/il/YGZ2i3ZmdmZmdmZ2y+yMdmZ2ZmZ2ZuvM7ICOjM6Ojs6OjI4+Ozo6OzoyOjv66Ojs6MiIhTOFmoOak5LKkUrJSUnlSKXmoKZwplATYXFhuDhYXBguDhYXhouDxYXhwnBxYbgAHhxcPDg4PDg8uHBweHB4cNB4cHB4cHDxWPjRH3nmBz/yI8/8yI/+yDM/8iM/eORnfvRHHvmZH/mRH3lS+eTTT7/5yad/b376yaff/OTTb3769+TTb37y6Tc//eSbZsuWt+xly1u27OUtWze2vNctG2/dy5a3bNnylr1sefyB/H//9K/4A7MzM7MzW5+ZmZ2ZndkyOzM7MzO7ZXZmZnZCR0dHR2cfHR0dGR19dHR0dHb00dHRkdHRRz1TKakpnCmpOagp1JScqZRUjtSUnNQUSrIwXPj/GYMXAwmQI7eCD5lVPeu/UeTyc8eTOVIXAEkW7ESERo0IjRoRGmFa1RA1NCJqIGrUQNTQiP9n6cLCwtKFhYWlCwtLFxZWnHbgwNAjBg4sXSJe9dBjHnrVQ0YPveqhhx566FUPPWT00Kseeugxr3poymlvetpTTnrLaU96ym1PesptTznpaW97wmlvOelpbzlpFctRIluJHMVy5CiWM4lsJXIUy1EiW4kc2UrkKOWv6X//+S9+IVWidFKlcidVonRSuUonVTKpUrlKJ1WidFKlcqeFCRMmjJkwYcKEMRMmmjBmwoQJYxQmbFAYM9EEdWCrQVMNmmpgq0FTDZqyaKpBUw2aamGqQVNNNaCKqKEWoVEjQqMGrAaiRg1EDbUIjRoRGjUQFVhYWLqwZWHhwNKFhYWlWxYWDiwsXVhY2LJYeuihVz30mIe+6FUPPfTQqx566DEPPfSqh77ooVc99JhpbznpKTe95bQn3PaUm572htPectJbTnrbU056y2lvOG1JxpajWI5sObKVyBlbjmwlsuXIVjK2HDmylciW+QX9nz//zV8qrtJJlcpROqlSuZMolat0UiVyJ1UqR+mkcpVOqhQmmjBhzEQTJow1YcKYCRONmTDRmAkTJhozYcJY6qCpFk01aKpBUw2aatBUi6YaNNWgqQZNNWiqQVtRiBo1YDU0IjSqIWpoRFTTqIGooRahUQNWIwRLtywsHNiysHRh4ZSFhYUtC0sPbFlYWFg4tfSqh77oocc89K0eeugxX/Sqhx76olc99JgveuhVDz30Zabc9JaT3nLbE257w2lvOektNz3lhtuecNtbTnrLSW+5aZTIljO2HNmy5ciWI3teZMtWIlvOPMuRLUexXsaW+QV9//5f/JVCOqkcpXKVTiJXqdxJ5CpVKmdSuUrHUapUrtJxVMSYicZMNGGsCWNNmDDWhInGbDRhrAkTjZlowpiJJtMZNNWgqQZNZ9BUg6YaNNWg6QyaatBUi1Qto2qRqoZaDUS1GhoRajUQ1TRqIKppRGhUq4FQqxGCLQsLWw4s3WrhtAsLWw4sbFlYOGVhYcuBha2lh77ooYe+nYe+6KEv86qHvuihL/PQq77oocd80au+6KGHprrpKTfc9obbnnDLTW+56S0n3PaG295wym1vuOktp9y0ivUiW7bseZEtW46ex5YjW89yxpatF9my5cyzbNkyv6Dv3//DLzhK5SoZV6lcJXLlKplUrlwlcpWOq0SuUrmTyFUqjZlorQljTRhroglrTTRmojETTbRmorEmTDTWhLGmUw2azqCphplqkDqDBk01nUGDpjNoqmGmGjSdQVOpalTTiNCophGmUUMtQqOaRoRajRowjRrVEIo4ZWHLgS0LpyxstfRUS0+1sGXhlIUtB7YsbDlYeuhbPfRlvuihL3rVl3noix76Mt/qoS/z0Bd9q8c89EVf9JgJt73hlpvecsMtN73lhtvecMtNb7jltjfccMtNb7nhtsEeR8+yZet5HD3Lnmc5epat57H1IlvPY+tZtl5kz7PML+j97X/4K4VUrhyl48pRKleOUrlylI4rR6lcuUrkKh1HrlKlYqyxNhprwkRjTbTWRGPGmmitiSaMNdFYE62ZaKyJJtMZNB2h6QyazqBB0xlG1aDpDJrOoOkIDTPVMFMNo6qmUU0jQq2GWg2EWo1qiBpqNdQQ1TRqwGpUqgNbFk7ZcmDLwilbLZyysOWUhVO2Wjhl4ZQti8VjvuiLvsxDX/TtfNFDX/TtPPRFX+aLHvqib+eLHvoyX/TQtzPlU256yw033PaGT7jlhtvecMsNn/aGG2654dPecMsNN1S2nudZz7L1PM96lq2XeZatZz3Ps2w963lsveh5bD3reR6/oPe3/8UvuHKUypWjVI5cuUrljKtErlwlcuUqlSNXjlK5SqWxJloz0VgTrTXRRGNNWGuisSZaM9FYE6010URjbaSImWoYVcNMJWY6g6YjNJ1B6gyaziAx05lKzKDpCKmqRajVgNVQi9AI06imEaGGqKYRplEDVgNWBVtOWbTllIVTtiycstWBLVsObDll4ZStFk7Zsnj4Vl/moS/6Ml/0qi/zRV/00Jf5oi/zqi/6osd80Rd9O1/00JeZ8gk33PaGT7nhhls+6Q233PApN9xw2xs+5Yab3vIJN9wSOXrWs57nWc+y51nPep5n2XqeZz3reZ7l6FnP86xn2fOsxy/o/e1/+AVXiVy5k8hVIlepHLlK5SiVo1SuHKVylciVo1Qp2jDRmI0mGmvCRmMmmmjDWBNNWGuiCWtNNGGtiSaog4Smo0rMVGKmEjOVGHWmEpqOkDqD1BmkziB1xCgiENUQiDCNMESERhgiQg0RhqgBi9AIQwTlwJZTFrZsObDllIVtT7Vw2q2WbjnVtge2LJyyjfRFX/SYL3rVl/mih77MQ1/0mG/10Jf5ooe+6DHf6ose80UPTXXTT7jlhhtue8Mtn3DDTW+54YZPuekNt9zwaU/4hFtuqGw963meZc+znvUytp71PM+y50XPeh5bz3oeW896mWfZ8/gFvb/9D7/gKpGrVIlcJXKVylEqV4lcJXKVyFUiV6kSuSQKYqIJa02YsNGEidZMNGGjCWNtmGjCRhPGbDRhoo1UVWJUCamjjpAqMVOpI6SOkCp1hNSZSowqMapUqUMgYCkQYYgIBCyCIgIWgUCEUUQgwhAR/r8tB7Zse2DLloVTtiw9ZcuBLVsWTtl24ZQtC1uPHvpWD32Zhx76Mg990WNe9UUPPeaLHvoyD73qyzz0RY95aMoNN9z2hhs+4Zab3nDLDTe95YYbbnrLJ9xwyw03veWGytbzPMvWyzzLnme9yJ7neZaj53mWPS96lj3Peh5Hz/Ms8wt6f/8Pv5DIVaJUjlIlcpXKUapErhJSOUqVylEqR6kSuUrRhA0TTdgwYcNEEzZMNGHDRBsmTNhowoYJE22YMFWljpAqdUDqqFIlRhUdIXVUCalDJUaVKjFU6qgiKJIhKCIoIsgiKBDJECkoEBFkKRApYBQh2HbLgW23LJyy7cKWU5Zu2XLoli0Lp92ysOW0S8SXeeihh77MQ696mld90WMeeugxX/TQQ4/5olc95qGHvmirm95wyw03veGWG256wy033PSGG2656Q233HDTG265obL1PC+y51nOPOt5HD2Predx9DzPcuZZ9rzInmc9j6PnMZS/ovf3//ALiVI5SpXgKlGqRK5SJUrlkChVIlepEqVylCohFRsmbJgw1YYJGyZsmDBlw4QNE22YsGHKhA0TNqhCdFSpQyVERxWVGCpVdIRU0aESo4pKHZA6VKoUFCkoyFIgUlBQpCBLQUGRgiIFgiwFRQoKCLZd2LLtgS1Lt2y7cMq2C9tuObDtlgPbblm65dTSQ4951UMPPeahhx7z0EOPeeihh77MQ66+6DEPPfSYh6Z8wgk3veWGG256yw033PSGG257ww03nPYTTrjpLTfcUD3LGVvP48yznHmWPS+y52VsPY+j53H0PLZexp5nOXoe8wt6f/8Pv5CSKFEqR6kSpSRKlchVopREqRKlcpQqIVEqRwWmbDphw5QJG6ZsmLBl0g0TtkzYMGHLhA3TbpgwVYeKio4QFR0qVSA6VKroUIHUoaKiI0RFh0qVwkQKCmOpyCiaoGiCgiKFCYoUJlJQmEhBQZGgW7Y9sO3Ctlu2PbDtwrZblm457cK22y6cdmHbbaSHHnrMQw8ZPeahhx56zENGj3noodd50qseMvPQQ4+ZctMbbrjtDTeccNMbbrjtDTfc9IZTbrjpDTfc9JYbTlol8yx7XmSPM89y5nkcPY8je57H0cvYsudlbL2MrZexx1D+it7f/5tfSJUoVUKiVIlSJaRKlCpRSqJEqRKlJErkKlFKq26YsumUDdNumLBl0i0Ttp2wYcqmUzZMu2HDlE0FFRWIDhUVHSoqKhAdKio6VFRU7Qi1UqcVlaoJiiZMmEhhwkQKE01QmGjCBEUTJiiaMEHRhIlQWbpl26XbLpx2y9Jttyzd9pSlW5Zuu2XpttsunFqYeeghMw895OppHnqVNa96kqvHPGT00GOMHnqM0UNTbrjhpifccNsbbjjpDTfc9JYTbnrDDSe94YZbbnrCTStnbDljz8vYcuZF9jjzPI7seZE9L2PLGXte5Iw9L7LH/ILen//NLyRKaJUoVUKiVIlSEiVKlZAqUaKURqkSJUpJlMK2UzadsumWSbdMu2HLtBum3bDthG2nbDpl0y2TDlRU7VC1oqKi04qKqhUdqlZUMK2oqNqhomqlasJEEyZMtGHCRFMmTDRhwkQTJmw0YcJUEyZMNEGi0x7Ydum22y5su+3SLdsu3fbAttsu3XbL0m23XSIeY/SQ0WOMHjJ6jNFDZh4yesjMQ0YPmXnI6CEzU256wg03PeGG295ww0lvuOGkN9z0hBtue80pN73hhpNWybyMLWfseRlH9ryMI3ucceZZztjjzIvsccbR8zjjjEv5K/Kf/8VfKTRKlJIoVUKjVIkSUjVKSZQoVUKjVIlSEjVKCOqUTbedsu2kW7addsO2026Ydtstk247ZdtNp92yrUrVqh2qVlSt2qFqRdWqFZ1WrahaUbXTiqpVK0VbTdgwYaINUzaasGGiDVM2mrBhog1TNpqwYaINiG7Zdum2S7fddum2W5Zuu+3SbQ/ddtuFbbdduu020kNmHjIyMvOQkdFjjB4yMvOQkZGZh4weY2T00JYTbrjpCTfc9ISb3nDSG2457i03nPSGG056w0lvuOGkVTIvY48jZ5yx52Uc2eOMM848yxlnnLHljDPP44wjZ175a/Kf/8UvJKRK1JAqUUOqRAmtEiWkapSQqlFColaJElK1dNtpt90y7bbbTrvpttNu2XbabbfddtpNp92y7bbTTlu106oVVaNWrVq1aqdVq1ZUjdpp1apVq1atWinasNWGCRtt2bBhqw0bJtqwZaMNG7ZstGHCVhs2SHTpttsu3XbbpdMeOu1ph267dNttl267zcI2C9tsIxlZcsfSqyyZMTIyesiMkZEZo4eMzBgZGT3GaMtJbzjhpifc9IYTbnrCTU+44aYn3PSGE256wk1PuOGklTPJvIwz9jhyxhln7HHGkTMvY48zzjhy1pYzzjjjjEv5K/Kf/+YXUjVKSJTSKFFLokYpiRoStUpI1CglUaOURgmtus2202677bbTbrvttNtuu3TabbfdZtptt9122m23Fa1atUrVqlGrVqlatWrUTqpWrVo1StWqVat2ElRtteGEDVudsGGrDSds2eiELRttOGXDRltO2GjLCf/fNtsu3Xbpttss3Xbptku33Wbottsu3XbJttsu3UYyMjIyY2RkZGTGyJIZIyMjIzNGRmaMjIyMptxwwk1PuOkJNz3hhpNec9JbjnvDTU844aY3nHDSG24aJeOMM84444wzztjjyBlnnHHmZZxxxhl7HDnjjDPOmF+Q//FvfiGhUaKGVA2JWiU0SmiUqiFRS6JGCY1SGiW0SujSbbbddtol22477TbbLt122m2WbrvtNNtuu3SbaYdWqRqlapWqUapWqRqlapWqUapWqRql05JOqwRVJ9pywikbnXDKhlOdsOGUE2045URbTjhloxO2nHAiqV26zdJtp1m67dJttl267ZJpt12y7bZLt1k67TZLRCQzRkZmjIKMjMwYBRlZY2RkFGTGyMhMkNGUG056wk2PuekJNz3hhpOecNMTbnrCTU846TWnveakN3SSccaRPc4444wzzjjjTDIvk4wzzjjjjDPOOOOMM84Eyl+R//FvfiGhUUOqhkYJjVIaJWpoldCoIVFLooZErRoStWTbpdNsu2TbbYZuu83SbbYdsu3SbbbdZuk0S7fZVqRqlSpRqlSNUqVK1SjC35DBAAAgAElEQVRVqkSpWiVKlapVolSpGlFOdMoJp5zolBNOudEJp5xyohNOOeGUE51ywiknOuWEEVk6zbZLt9l2yLZLt9l2ybZDt9l26TZLt5l2ybZLhFGQGaMgS2aCjIyCzAQZWUrHklGQkZkgI6OtTnrDSY97wwknveGkN5z0hOuecNIbTnrDSU846TUnvaHjTDLOOOOMM8k444wzzjjjTDLOOOOMM+4k44wzzjhjfkH+x7/4hUYJrRoaJTRKadTQKKFRQ6uERg2NElo1JGpoyZJtl2w75DRDt1my7ZJtl0yzdJsl2y7Zdsk2Q7cZUiVKlShVKketXCVKlSpRSqJUqRKlSpTKVSNXqk645YRbTnTLCbec6oZTTrjlRLeccMuJTrnhlFtOdIug22y7ZNol22y7ZNuh2yzZdpql22y7ZNol2y6ZZptRkFGYIKMgozCWgoyCzAQZBUVjFGQUZCbIaMtJT7jhuCc94YaTnvSak55w0htOesI1Jz3pCTc94bondJJxxhln3EnGGWeSccZZZ9xJxhlnknHGGWfcTcYZZwLlr8j/+Ce/0KilUUKjhkYNiVoaGjU0SmjV0KghUUOjhpZUHbLNkm2WLtlmyZJtli7ZZsmQbZcs2WbJtkuWbDMkcpUolaNUjlKlcpSSyFWiVK4SpXJIlchVolRUN9xywi23uuGWW2441Q233HLDrW445ZYbbnXLCbfcMCJLtp1mybZLplm6zbZDtlk6zTZLtxmy7TZLpl2yjRRkFClVNEZBQUFmIgUZBYUJMooUxigoyEzQlpOecNyT3nDSE457w0lPOOkJ1z3hpCdc96QnnHDSmx7TcSYZd5Jxxlln0nEmGWfccTYZZ5xJxxlnknXGnWScMb8g//Of/EJDo4ZGDY0aGlolNGpoaNTQqKFRQ0OqhkYNLVmyZMmSbZYsWbJkmyVLlizZZsmQQ4acZsiSJUsGVwmOXKVy5CqRg6tUjlwlckjlyFUiV45SHKUiuuWWT7nhllt9wi233HCrT7nlhk+54Va33PIJt9zqhltGZNol2yyZZtsl0yzZdsg22wzdZpsl0y7ZZsg22w4R1gQFBQVFExQUFGQmKFJQUJigSEFGQWGCgqbccNLjnnDSE457w0lPesxJTzjpCdc94aQnPeakJ9z0hMqZdJxNxpl0nHE3GWeSccadZN1Jxhln03EmGXecTcb8gvzPf/ILDQ2NGhoaNTQiNDRqaWjU0KihoVFDQ6OGhlZZvGTJkiXbrLzNklW2WbzkkCWLlyxZsmTJ4iVLBkeOXBy5cuTIxZGrRK4cHLly5MrBlSNHLolepeiWT/mEWz7lU93yCbd8yqfc6FM+5ZZPueFTfcotn/Apt3yqgWyzzZBtlky7zZJplkyzZJtplmwzZNtthmyzZJptpKAwkYKKgoKiCQoKCoomKCgoKJpUkYKKwgRNOekxJz3pCdc96QknPeakJxz3hJMe94ST3nDS455w0mM6zqSTrDvOJOtOMu4k60w6ziTrTjLuJOtMOs4m404y5hfkf/6DX2jUQGjU0NCooYHQqKGhEaGhUUNLoxpKo4YWDzlk5SWLlyxesmTxKocMPmTxkiWLlyxZecniQ4SrFzm4cuToVQ6OXuXgyJWjF7k4cuXwIkeuHLkQfcqnfMonfMqn+pRP+ZRP+YRP+VSf8imf8gmf8imf6lM+5RM+ZUS2GbLNkG2WTLPNkG2WTLNkmyHbTLNkmiXbDNlmGykoqChMpKCioKBogoqCgqIJKgoKqiYoKKjShBOOe9ITjnvSE056zElPesxJTzjuSU847gknPeakJz2hcifZdJxJ15lk3E0mHWfTcSbdZNxJ1p1k3E3GmXSSNb8g//Mf/EZoaNTQQNTQQGjU0EDU0NBA1NBA1NDQ0Kgli5esvOTgxassXrJ4lcWLj7J48ZLFqyw+ZPHKS0YvOHqVw4scveLoRS4vcvQilxc5epHLixxe5ehFDlSf8lM+5ad8qk/5CZ/yUz7lU37Kp/opn/IpP+EDP+FTfqpP+ZSfMiJTL516myXTLJlm8TTbDNlmyNZLptlmyDZDth6yjVQUqSgoTKWgoqCiaIKKgoKqCSqKVBQUpijShpMes+lJj3vCSY856XFPOOlxTzjpcTec9JiTnnDckx63k066yaTrTDrOppOsO8mk606yybiTbjLuJpOOs+kkY35B/tef/IZp1EBoIGpoIDRqIDQ0IjQQajUQGhoRGlq8ysErL168ysEjH7Ly4sUrH7J45cWrHLzy4sWrHCy98qIXveDoVS+86AVHr3rRCy9y9MqLXvSCo1e98KIXVP2Un/IpP+Wn/FQ/5VN+yk/5KT/lU37KT/VTfsqn/JSf8lN+yqf8lIEsmWbxNNsM2XrINoO3GbLN1EumWTzNkmkWT7PNkCFMUVGkoqBqioKKgiqVCSqKVFQUplJQUVE0k55w3JMec9JNjznpcU846XFPOO6mJxz3pCccd9NjTnpSlGw6yabjTrLppOtMusmk426y6biTbDrJpuNuMum4m/LXlH/9yV8pEAgNtQgNhAaiBkIDoRahgdDQQNRAaCA08sErL175yItXXrzywSuvfPAqy1tl8ZFXXrzywSsvb+ToG170wqte9MKLXnjRi175Ri964UUvvOiFV73ohRe9iPJTfsof5af8VD/lp/yUP8pP+Sk/8FP+KD/lp/xUP+Wn/FF+yk/5KT9lhadZMvWSaRZPs/WQrYdMs3iaxdMsmXqbIVsP2XqoiFSmqCioUlFRNUFFRZWCyhRVCioqqiaoqNKEkx5z0nVPesxJT7rmpMc96TGbnnDck6456XFPesK6J0XJppNuOsmm424y6aaTrDvpJpNuOuk6k246yabjbjrhF5R//Z1faERowDQQCI0IDQRCDVEDoYFAaMBqIDRQvHorH3nxyouP3sorH3nxykdv8corH3nxyqt38Morr97wole+1qte+IYXfaMXXvQNL3rRN7zoG171wou+0Qvf8KIXUf4oP+WP8lP+KD/lD/RT/ih/lP/LGN4z3QKua1rWed33Mz7mDzE1NTYlNTU1JiUlJSY1NSU1JrApu1sEGmhEWqCwsCzLItzzHeO5TtfqvXF3tuZxvOQtL3nLG17ylpe85S0v8pa3vGRih7t0vGOXO3a5Y4e7drxLx7vcsUPXO9y1wx273LFrE4nERCIjMZFImsCUSEwkEhMZiYlEImMy9ZRz3Xoup+711HM5da+n7uXUcz1lr6eey6lbz+XUvZ5K2q1bp26dduvUrVO3nevWrVO3nbp16ta9nbp16pY/kP7Tf8IfsFAoFm4oFgqF4oVCsaFQvFAoFgqFxotyN/fku9yTu/lu7uaefDd3uSffzT25m+/mbu7Jd7mbe/Ld3JO7+W7u8Gk+zad8m0/5lG/zKd/m03zKt/mUT/Mtn+ZTvs2nfJpv+TSf8m0ob3jLW97ylje85S1v84a3vOUtb3nDW17yS97ygre85S1vWLhLxzvcteNd7tjhrh3ueJeOd7hrx7vc4Y5d73DHLnc0MZFITCQSGBOJxERGYiKRQEwkMiYSCcmUU/d6LlvP9ZS9nnquW89l67mestdTz3XLuZ66l1P3eiqp226dunXr1K1Tt247devWqVunbrt16tatU7dO+QPpP/0n/AELhULhQrFQKFwoFgqFG4qFQqF4oVAolnvy3XxP7uZuviffnbt8z9zN93B3vpt78t3ck+/mbr4n383d3JPv5nvyTb7l03zKp/mUT/k0n/JpPuXTfMqn+ZRP8ymfm0/5NJ/yab7lp/kWyht+yVve8gve8kve8Da/5C1v+CVvecMvecsbfslbfskbfslbNtzxLne8Q9c73uGuHe54h7veoeNd7niHu3a4413ueMcuDTIQEwnERAJjIoGYSCQkMhISicQEImOydS+n7vXUc9l6rlvPZa+n7vWUc916rlvPZeu5nuuWc93K1KmrW6du3Tp167ZTt26dunV16tatW6du3Tp1yx9I/9n/iT9xoVAoFi4UChcKhULhYkOhcKFQKBQuFuS7+Z7czXfne3I335Pv5ntyN98z3813c0++m++Zu/mefDd38z357nxP7uYz+ZRP8ymfm5/yKZ/mp3yaT/k0n8tP+TSf8tN8yufmUz7lp/mUT/MplF/wS97yC37JW37BL/klb/glv+CX/JI3/JJf8oZf8kt+wS95wy/ZcIc73uGuHe54h7ve4Y53ueMd7niXO3a8w13vcMe73PEOBhOIhIwEYgKRmMCQSCQkEogJjIREAjGZcq5bzvXUvZ7rlr2eutdz3XKuW89167nu5dS9nrqXc93K1NGtW7dO3bp1derWrVumrm6dunXr1q2jW7dOCX9Tfv+zf8KfKJRcKBQKhQuFQqFyoVAoXCiUFC4UCsVyT7473813c0++O9/Nd3M335Pv5u58N9+T7+bufDffk+/mbr6b7849+W6+k0/5aT7l03zKT/Mpn+ZTPuWn+ZRP8yk/zad8yqf5NJ/yI5+bj3wayi/4JW/5Bb/kl7zhl/ySX/BL3vBLfskveMsv+QW/5Je84Zf8gl+y8Tt0vMsd73DXO9zxDne9wx3vcNc73PEud7xDx7vc8Q537AQiIYFISCQQEgmERAIxgUBMYCQkEgjJlHPdutdT9nquW/dy6l73espeT93L1nPd6yl73Xoue93K1NWpW7dsnbq6devUratbt07dunVl6tato1u3/IH8T//8P+JPlBQKlxQKhZILhUJNoXChpFAoXFIolFSbu/lu7uY7uZvv5m6+k+/O3Xw3d/Od3M13czffyd35bu7mu7mT7+a7ucnHfMrHfMrHfMrHfMvHfMqn+cin+cin+cqn+ZhP+ZhP+ZhP+TbIG37JW37JG97yS97wS97yll/wll/wll/yljf8krf8grf8krdsvMNd73DXO9zxLnfscNc73PEud7zDXe9wxy53vMsd73BHJ/IXgZhAICQSCMQAw1/FBAIxgUBM+KtIVva6Za+n7HUvW0/dy163nOvWvWw9l6172XquW/a65Vwd3bpl2i1bV6du3bp16urWrVO3bh3ZunXr1K0rfyD/4//l/8yfKCmUFK4plBRKCpdUCiUlhZILhZpCSaFQ7uRuvpM7uZvv5E7u5ju5k+/mTu7ku7mTO/lO7uZOvps7c4fvzF2+ydd8zFc+5ls+5ms+8jFf+ZivfMzXfMrXfORrPuYrH/NtPvAtmDe85S1vecsb3vKWX/CWt7zlLW94y1vf8oa3vOUtb3jLWzbc4a53uGuHO97ljne46x263uGOd7njXe7Y5Y53uOsd7uiEv4qEhL8KREKAQCACCQQCmEAg/EUigUzdspdTt+x1y1637GXrXraey5ate9m6l6172bLXLaca3bpl69Stq1O3bt06dXXr1K1bt45s3bp16tYV5G/Jv/qP/xl/oqSmcInkkkpJoaSkplBySaGmpFBSUqgplDu5kzu5k29yJ3dyJ3dyJ3dyw3dyJ3dyJ3dyk+/kTu7kTu7kTr7JV77mSz7yNV/ylY/5wtd8zdd84WO+5gtf8zUf+Jqv+cLXfEzkDS95y1te8pY3vOQtb3nLC97ylpe+5S0vecNb3vKSt7xh4K536HLHu9zxLh3vcNe73LHDXe9w1zt0vcNd73CXO3Y1AST8VSAECASQECD8VSCAhACB8FchAaZs2euWLXPZupctW/a6Za9btuxl65a9bNnrli173eLolK1bt47udXXq1q1Tt65O3bLt1pGtW6du3ToS+VvyL/6v/5w/kJKSkpqSS0o0F0pKakpKSmpKCiU1JZeUKOUmd3KTTr5Jkzu54SZ3cpM7uckdbnKTO7nJndzkhju5yZ1c8iVf+JJrvvAlX/I1X/iSL7nmC1/yJV/zhUu+5ku+8CVf8yWBl7zlJS95yVte8pI3vOQtL3nJW1/ykre85CVveMlL3vKSCXfscse73LXDXe54l453ueNdOt7ljnfpeJc73LXjXe5i+NfCPwiEvwgQ/ir8g0CEBIgQIn8R/iojW/eyZctctmzZ65Ype9myZS9bpm7Zy5a9TNmy1y2Mbp26devU1a1bp26dunV16tatU7esbp26deuUP5B/+p/8x/yBlNSUlCmpKSmpKSmpU3JJSU1JSU1JmZqSgjS54SY3uUnDTS65ScNNbnKTG5rc5CY3abjJTW5yQ5NLvuSSb7jkSy75khu+5EsuueRLvnDJTb7kSy5c8k2+5JIvCbzkJS95yUte8pKXvOQlL33JS17ykpe85CkveclLXvKSl0zscoe7drnjXTre5S537HqHu3S9w13v0PUud+h6h7vehSCEvwj/IPyj8A/CX4QQIfy98A8CTNkyZcuWuWzZMpctW6bsZcuULVvmsmXKXrZsmbKF6NatU7euTt26derWrVNXt07ZOnXr1tGtW6du+QP5D//T/4Q/kDI1JTVlSmrKlNSUKakpU1JTpqSmTE1JmYqU3ORCk0saLmly4SYlN5Tc5EKTSwo3aXLhkiYXbnKTS25yyTdc5oabXHKTS77JJTe54TLfcMlNbnLJTS75JoGXPOUlL3nKS57lJU94lZc+5SVPeclLnvKSlzzlJU95yUsm3uGuXe5w1y53vEvXO9yl6x3u2uWOd+l6h7t0vcNduxj+/8LfC/+G8PfC/yz8vfBvCEyZZsuUKXvZMs2WKXuZsmXKNlP2MmXLlG2m7GXKFkanbp26dXWuq1unbt06devq1C1Tt26dunV065Y/kP/jf/af8bcEUqekTkmdMiU1ZWrKyNSUqSlTUqekTkmdMgUtKVxScqGk5ELJhZLCJSUXSi4plFwouVBScsNNmtzkJje5SZOb3OQmN7nJTZrc5CY3uclNmtzkJje5SeApL3nKszzhVZ7y1Ke85ClPecqzvOQpT3nKS57ylKe+5Fkm3KXrXe7Y5S4d73LXLne4a5c7drnrXTre5S5d79D1Lobwb5Dwj8I/Cv8o/KPwr8nIlG2mbJmbKVummbJlyt5MmbLNlClbppmyzVy2TGF069StU7euTt06devWqatbpt0ydevUrVtHt04Jf1P+g3/xL/hbAilTp6ROmToldWTqlJSpU6amTB2ZmjJ1SuqUSKWkckmlpFBzoaZQU7imUFK5pFJSqLlQU+jkJnemSSc3aXInTe6kyZ00uUknN+nkJk3upMmdNLkzgac85Vke8pSnPOWpT3mWpzzlKQ95lqc85SlPeepTHuUpT5nQ5Y536XqXu3bocte7dLxLl7t2ueNduty1yx273OWuBOQvgvxr4e8Z/kHk7wWB8D+T8BeGvxqZZso0c9lmyjRTtpkyzZRtpkyZZss0U6aZss1cpjC6derWrVNXp26dunXr1K1bR7ZO3Tp169apW0eQvyX/h//8v+APTJ0ydcrUKaNTpk6ZOiV1ZOqUqVOnTB2ZOmVqSqWkUlOp1FRKWgo1NZVKTaVQU6mpVGpKOunkJp100kknnenkTpp00kknnXTmJp100kknndxJMwlPechTHuUpD3nqozzlIU95lKc85SGP8pSHPuVZHvKUhzxLQte7dLlrl7t2uOtdunS9yx263qVrlzvctctdu9ylqwEJAuEvDH8VRMLfM4AE+deCQAQM/2BkbkbmZmRvxsxlzFzGzM3INFOm2WbKNFOmmWbKNFMYnbp16tbRrVO3bp26deqW0b2uTt06devUrVO3/IH87/+Lf8nfpCNTt6RuGZ06ZeqW0SlTp04Z3TJ1ytTRLVOnpNYoLTWVlhqlpabSUqO01FRaapSWmkpLiZNOuulMJ0666aQznbjppJNunOmkk24604mbTjrpTMJDnuUhD3nIozz0IU95lIc8ykMe8pRHeehDHvIoD3nKozwkoetduna4S9e7dL1Ll7t2uUvHe+h4ly5d79L1Ll3uSgAjfxEEokAQiAJBIBBEgkAQAcNfBaeZMs00KWOmmWaaKdNMM2WaaaaZZsqYaaZMM800aZg6devqXEe3bp26deqWabdO2Tq6devUrVO3Tt3yB/Lv/5f/FX+TjGydOmV1ytStI1O3Ttk6OmXrlNWpU7aOTtmaYqm02LS0KG0sLS1KmxZLm4qlpY2lYmkpcdKNO524cacTN904042b7jjpxk1n3HTjpDtunHTzFw95yKMceZSHPOTUhzzkUR5y5FEe8pBHfcgpD3nIoxx5lIl36XLXLnfp2uWuXe7S9S5dut6l6126dL1Ll7t2uSsBDQTBSBAIRoEgEgwCUSAYBYJAMBKZZppp0kwZM800aaYZM80006SZMs00Y9JMM800MaRunbp16tbRrVO3Tt0ydevU1albp26dunXr1C1/IP/ev/yv+ZtkdcvUrSNbp25Znbp1ZOvWKatTt4xu3TJ1dcpUi6WXNhYvLZYWm14sLV4sLTa9WFosvVjaKG7c8cSdbty448aNO564cacbN+64ceOOJ26648adhIcceZQjpzzk1Iec8pAjpzzklIee8pAjpzzklIccedSEu3TpepeuXe7S9S5dut6l61269NjhHrrepUvXu3QxRoPhL4wGgWgQDQSjYCAKBiNBMBgBR6ZJZ5o0Y6ZJM82YNNNMk2bMNGmmmSZmOlPSGTONU6dO3bo6devUrVO3Tp2yderWqVunrk7dOnXrlD+Qf/df/jf8ga2rW6esbl3dMnXr6papq1u2rm6dsrp168rUqV4sXnrxxtKLF4uXXrxYvHhp8eKljRcvXlq8KJ5x4xk2nrjjCTueuOMJO5648YwnbjjjxjNuOOPGk784csqRUx5y5NQjp5xy5JQjR0498ihHTjnlyJFTjwTuoWuXLnft0uWuXbrcY5euXe7S9S5dut6lS49d7kKMgsFoIAoGo8EgGgxGg0gwGA2iwWCaMWmmk2ZMmmniTDNNmphpppNmTJrpxEyTZkya6Th16tbRrVO3Tt0y7dQtW6dO3Tp169Sto3sdnbrlD+Tf+a/+FX9g68rW1a1bV7ZuXd2yunXr6patq1u3rmxd3TrVGy9+8eLVixcvXvzipRcvfvHixYsXL1784sWLF8UznLjDY9xwwhlPOOMZTjzhjCec4YwnnHiGM55wxhNOMnPqyimnHNly5NQjW045suXIqUe2HDnllJVTj2xJ6NrlLj107XLXLl3u2kOXrnfp0vUeunTpepceu9yFGA0Go8FoEA1GQ4PRYBSMBqPBYDQYjaQzJp00Y9KZJiadMWnSGZNmOjFpphOTZjox6Uzj1NWpW6dO3TLt1inbTpm6derWqVunbp06devolj+Qf/v/9t/yB1a3nrq6ZXXr1qNbV7aeurp1despq1tXT926OoUvfvHqFy9+8YsXvnjxi1+9+MUvXvzihS9+8eJXL36x4RHO8AhnOOExnOERznjCYzjDCY/hhDM8xhMewwlneIQzPCbDllNWTtmyesrKllNWtpy6suXIli1Hth7ZsuXIX/TYpctdu/TQ9S5deuxyl649dOna5S49dulyl649EKPB2GAUHA1FB9HgUDQYDcYGo8FoaDRmmjhp0hmTTkw608RJEyfNOGnSiZlOTDppxkkTx9TVqVunbp06Zdsp206ZunXq1qlbp26dOnXr6F7+QP53//V/z98S2Lp66uqpq1uPbj1l9dTVrUe3Ht16dOspq1uPbvWLX/zAV7/4hS9+8atf+OIXv/DVL37gi1/8wle/+MUvfLHwmDzCGR7hMXkMj/AYzuQRHsNjeCRneAyP8Jg8hhMew2N4JI/hkcxs3bKyZcvK1i1bVrZsWd2yZWXLli2rW1a2bCF26dJjl7v00LVLD13v0qXHLl16vEuXLj126XKPXYjR0GgwdjAaGo0NRoOxwdjgaGwwGhoNTRMnnZh04qQZJ02cdGLSiZMmTjox04mTJk46Mek4OtfRLdNunbJ12ilbp26dOnXr1Klbp26dunXqlPA35X/7f/8f+Ns89cjqqaeunrp66tGtR7cePXX11KNbj566euqpo3zwA1/8yBc/8NUPfPEDX/3AFz/w0S988Csf/MIHv/LBD0gew2PyDI/JY3gkz8ljeEwe4TF5Do/JI3kMj8kzPCaP4TF5Jo/hMXlMli1TVrZM2boyZcuWKatTtmwZ2bJ1ysqWKVtGAz3cpccuXXrs0uUeu3TpoWuXHrrepYcuXXvo0rUHYjQ0GhsaHYyNhsYGR2ODsbHBscFoaOxgGpx0YtKJEyedmHTipBOTTpx0cMakQydOTDpx0nF0ytapU7dOu2Xq1K1Tt06dunXq1K1Tt06dunXKH8j/5r/5f/IHTj166uqpR4+eevTU1VOPnnr01KNbj5569NTVU0/1Kz/wwY984Qc/8sUPfOQHvvoDX/jRL/zAVz/wkQ9+4CM/UPKcPCfP4TF5Js/JY/KcPCbP5Dl5TJ6T5/BInpPn5DF5Tp7JY/KcPCePyWbqlikjW6ZOmbIyZcrULSNTtkydMmXLyJSpWwhdeuja5R669tClxy49dOnaQ5ceu9ylh649dOnaAzEaOjY2GDs2GBsdGhsdGhsNHRsNjR0NjY1JJw5OOnHipIMTJ5046cShExM3DU6cdOKkgxPHyNapU7dOnbp16tapU7dOnbp16tStU6dunbp1yh/Iv/Wv/kf+wKlHj5726KlHTz166tGHnnr01KNHTz321KOnHj31VD/wIx/4yA985Ac/8CMf+JEP/MgHP/IDH/mBj/zAB370Az+m5Dl5Tp4zr8lz8pw8M8/NM3lOnjPPyXPynDxnnslr8pw8Z56T5+Q585w8k52pU6aMTJk6JWXKlKlTpoxMmTplypSUKaNTpvxFD1176NJD1x669Nilhy736HIXD3f1cJceu/TQpUfi2GDs2NihsdGhsbGxg7FjY0NHY0PHxkaHxtCJE4dOnLh04sShEycOnThxcNKJg5sOTpx0cBidOnXr1Klbp07dOnXq1qlTt06dunXq1K1Tp275A/lf/z/+X/yBU48+6tGjpx770FOPHn3Uo6c+9GnJjRkAACAASURBVNhTjz7q0aOnPuypW/MDP/KBH/mBH/mRH/iRH/iRH/iRH/jID/mRH/wxP/AjP/AjP9LMK3nuPDOvyXPmNXnOvGaek9fMc/Kaec68Js+Z1+Q585p5Tl4zz8lr5jnzmmympkxJmTI1ZSSXkdQpKVOmpE5JmZIyNWXKFEPXHrr00GOXHrr02MXDPXbpoUsPrj106bHLPbj0SIwdGzs0NnY0dLzRsaGxY8eGxo6NHRobOzY0TVycOHTi4KaDExcnDp24OHHoxMVJBycObhw6jE6dunXq1K1Tp26dOnXr1Klbp07dOnXq1qlTp/yB/K/+2/83f0vg1KMPe+pDjz7q0Yc99aFHH/XYRz360KOnPuypDz36qKfyI7/lh/zIb/iRH/lNfuS3/MCP+S0/8CO/yY/8lh/4Mb/hR37kNynzmnnOvGZeM6+Z18xr5jV5zbxmX5PXzGvmNfOaec68Zl4zr5nXzGvmNfOaeW02KVNTUlJSp6SkpKSmTElJSU2ZkpKSmjIlRfB4D108dumhh649dOmhxy49dOnBY5ceeujaQ5ceSMfGjg0dGzvesaGxY8fGjg0dG+/Y2LFDY2PHxuDExaETFwc3HRzcODhx6eDGwcGNQzcODi4O0a1Tp26dOnXq1qlTp26dOnXr1KlT9zp16urUKcjfkv/lf/f/4Q886sMefdSHHvuoDz36qA979KGPeuxDH/Whxz70UY8+7KOeym/zG37kt/ktv8lv+S0/5Lf8Nr/ht/ktP/Lb/Ibf5rf8kN/y2/yG3+Yy79nXzHvmNfOaee2+Z14z79nXzGvmNfueec28d14zr9n3zGvmNfueec28Zt+TndSUlBRqSkpKSq6UlJSUVEpKSmoKl5SUVEIPXXrosUsPXTz20EOXHnvo0kOPLj300KXHLj30kDR2bLxjx8YOHW/s2HjHjg0d79jYseONHRo73rEY3Dh0cXHi4uDi4KaDi4MbBxcXJ10cXBzcOI5OnTp169SpU7dOnbp16tSpW6dOnevqXKeO7nXKH8j/4r////IHHu1DH/pojz70oY/2oQ992Ed96LGP+tCHPuyjPvRhH3rqQx8tv8nfyW/z2/yd/Da/yW/5bf5OfpPf5u/kt/ktf2d+k9/y2/yd+S2/yd/Jb+cy79n37GvnPfueec++Zt8z7933zHv2Nfveec++Z18z79n37Hvmvfuaec++Z9+bk1yoKZQUai6UFEoqhUsKNYWSwjWFkkJJFXrosQeXHnrooWsPPbj02EMPXXrw2EOXHnrswaUH0rHjjR073tjxjh0b7tjxxo53bOx4x46Nd+xwx8amgaUDSxcHN65OXFwcXFwcXFxcHLph7MbFxXF0/n+MwduOrtuSntUnInr/M9clsBMgEAgECAQCgTjhkItHMgVlF2WXyy6Qxd6nIzO/eB9yzLUWdThHa7HjxI4dO07s2LHjxI4dO87a2mvHjhM7duw44RfUv/Z3/5LfU3D1mqtXb3L16jWvePWaqzdec/XqNS+98ZqrV29y9UZ+WD+sH9aH9UN+WB/WD+qH9cP6kB/WD+vD+iE/rB/Wh/WD+mH9kA/rh/XDWuZ95r3nvecPPe8z7z3vPe89f5h573nvee95n3nv+UPPe8/7zHvPH3ree95n3nveu//QfbpWQwUCkYVAYCESKhBYCQQCkYVAqMhCsMghxwwecsjBY4YccsjBY4YccsjBMYcccsjBMYccqLRpt0275bZpt027bcpt026bdstt026bdtuU224bLBwcHBxsHBwcHBwcbBgyOjjYMDhkcHCgcSztOLFjx44TO3bs2HFix469TuzYsWPHjhM7duxQ/K76V/7uX/ILrl7z0qtXb3L16stcvfGaqy+98ZqrV1/m6o3XXL16Y/2wfsiH9cP6YX1YP6wf8mH9sH5YH9QP64f1IT+sH9YP68P6Yf2wPuQH9cNe5r3nvee9533mvee95w89bzN/6PPe897zPvPe897z3vM+897z3vPe533mvee9573nffoUgUggEFgJBAORhUAgEFkIBCKBhUAkWOSQ0UMOOeTgmEMOHnLIMQeHHHLIMQeHHHLwmEMORcq0226bdsu0226bdsu029k27bYpt0277bYpt902WDg42Dg4OjjYODgy2Dg4ONg6ODjYODg4OnZsndixY8eOEzt2nNixY2vHSTp27DixY8eOEzv8gvpX/+7/5Re89Mar11x96dWbXL360qvX3Hj16stcvXr16iu5evXE+rB+WB/Wh/ywPqgP60N+WB/Wh/XD+pAP64P6YX1YH/Jh/bA+rA/5oH7Yy7z1vPe897z1vPe8zbz3eet573nreZ9563nvee9563nveevzPvPW897z3vPW89bzPn2KQCQQWIgEgoFIIBCIBBYCgUggEIgGigw5eMwhhxw8ZsjBQw45esiQg4cccszBQwaPOeRQlUrabdNuuW06W6bddtt0tky77bapbJt2y7Tb2TbtYmNr48Bo42DjaOPAYONo42Dj6EBj4+hg49jaScfRjh1HO3ZsM7Fj68SOnbRO7Ng6sWObiR1+Qf3r//z/4RdcvXr1pTe5evXq1ZfeePWaqy+9evXq1auv5OrVqzfyYX1YH9aHfFCf1of1IR/Wh/VBfcin9cP6lA/qw/qwPuTD+rA+rR/ySS/z1vPW89bz1vPW89bnreet563nbeat563nreet563nree959Xz1ue9563nreet5216ikAkEAhExMBCIBIIRIRAIBAJBAOBaOEho4cccvCQQ44OOeTgMYccHHLIwWMOHjLk6CGHKsvtbJl2Oym33U7aLdNuZ8u06Wy5bTpbpt12Oym3DRa2Ng42tA62Ng62DDY2jjY0jja2DjQ2jratrRPbdBztpHW0Y+skHVtHO2ntONqxzcTW0Y78vvo3/tn/zS+4+tKrV69efenVG6+5cvVlrlxz9epLb7x69erVl55Yn/JhfVCf8ml9WJ/yQX1aH/JpfVCfqQ/4tD6sT/mgPq0P+bQ+rE/4sJd563n1vPW89bx63npefd56Xj1vPa+et55Xz1vPW8+r563n1eet59Xz1vPqeet5dZ8iEAkEgkogEAhEAoFIQAgEooGAEIgWHjLk6CEHDzk45pCDhxxy9JCDhwwec8jBQ44eMlBp09kynW1TbifldlJuZ9uU20m7lbTbbiXtdlJum8piYUNr42hDY2tjS2PrYENrY2vDYOlgS2Nj26TjmNbWiW1GWzsZbR3TsbXNaOskra1jOo62/IL6N//2/+IXXL169epLr169evWlV665cvXqK169evHGl169evVGPq1P+LQ+rU/5pD6tD/m0PuWT+rQ+5dP6hE/r0/qQT+sTPq1P61M+6WVePa+a18yr5tXz6nn1vPq8et56Xj2vnlfPq+dV8+p59bz6vHpePa+eV8+r59U9RUAJBANKIBAIKIFAQAkEAwElEIiIRQ4OOXjMwUMOHjLm4MFDjjl4yMFDRg85eMghRw9gu5Vt09kynS3T2UraLdPZzpbpbJnOlulsmc62qWy7WNja0Nra0NrY0tjYWtDa2NLa2NrQ2NrQWjZpHW0z2qZ1tM1om9bRNqNtRlvHdGwy2slgB4rfU//W3/6f/IKXXr169crVqy+9euPVCze+9OrVq1deevXq1atXb6wv+LQ+5Yv6lE/rU76oT/m0vqxP+LQ+5cv6hE/ry/qUT+pLPq1P65MK86q5Pbfn1fPquT2vPrfm1XN7Xj2359Vza149r57b59Vze141t+fVc3te3VMEIkIwEBECASESEIJKICBEAkIgIJYZPOTgMQcPOXjI0SEHDzl4zMFDDh5zcMjBQ44eKDtbSWfLdLbcTirbprKdlNtJZdtUtk1lOym3k8q2qSwWlDa2lDa2NJY2tLYUtha0NraUNrY0ljZ0WpuMthltM9imdUzrmMYxrWMax7SOaR3SOqblF9S//U//D35PwdWrV6+89OrVK1evvvTK1atXr7z06tWrV1569eoJ9SVf1id8WV/yZX3Cl/Uln9SXfFmf8GV9yaf1BV/Wl3xSX/JlfVpfVJhbc3tuz+25PbfO7bk9t+b23J7bc2tuz+25fW7N7bk9t+fW3J5Xz+3uIqAExIASCAgBJSAGhEhACCgBMRBpcnDIwWMOHnLwkKMHhxw85OghBw8ecvSQwUOOHigr20ll21S2s2U6qWwnlS23k0o6W6azle2k3Eo6qWy7WFrSWNpS2FLYWtJY0lrSWNrSWNJY0lrYUmlsM9hmsM1okzGNY1qHtBlsM9pkTOOYwTajjfy++nf+5n/nF1x96cUbLl65+tIrV69eufrSK1evXrn60itXr165ypf1BV/Wl3zJF/UlX9SXfFmPfFFf8mV9wZd8UV/yZX3JF/UlX9ZDLXNrTs/tuTWnz+m+dW7P6bk1p+f2nJrbc3pundtzem7N6bk9p+b2nO4uhIggBIWIEBAiQlAIKEJAiAoBIdg65ODBQ44ePOTgMQcPGTx4zMGDhxw85uDBQ44OlJ2tpLJtKltJZyvpbCWV7aTcSjpbSWcrKbeTylbS2UoQaSwpLWksLWkpLCltLCltKSwpbSksaS0pmzQOaTPYZshgmyGNY5oMaR0y2mRI65AmYwabX1H/7t/8C35PUVevXrn6kqtXr1y9cvUlF69euXrlpVeuXr3y0itH+bIe+LIe+JLH+oLH+pIHvqxHvqgveeDLeuSxvuDLeuBLHvmiw5ya03NqTs/pOTWnz6k5Pafn1pyeU3N6Ts+pc3pOzek5Pafm9Jya091FQBGCghIQhIDfICBEBCEoKAFBCJYecvDgIUcPHnLw6CEHDzl4dPCQgwePOXjIwaMHsLKdVLaSzlZS2Uo6qWxnK6lsJZ1UtpJ2K6ndNpWtTbtaiLSWlBaUlJaUlha0lJaUFpSWlJSWFJZUutI6pMmQwSZD2gwOaTKkcciQNoNNhgxpHNJkAPk99e/9k3/BL7j60iMvvXLxypWXXrl65eqVl165eOXqS65euXrlaD3wyEN9ySMP9chDPfLIQ33JIw/1yAOP9cgDX9YjDzzWQ4WZmtNzaqbn1EzPqTM9p2Z6Ts30nJrpOXWm59Scnqk5PVNzeqbnVFchKAFBFCKCIEQFQQgoohAQFCEgFh5z8OAhRw8ePOTg0UMOHjzk6OAlg0cPOXjw6AGsbCeVVLaSzlZS2dp0tpLKVtLZSipbSWcrqU1lO6lsJYiUIiWlBRULSkqR0pKS0oKKBUhpSWlJSdmkyZAmQ6Yy2GRIkyGDTYYMaTJkKo1DhjQZ0mT4FfXv/+P/jV/wkisXr1x9yZWrVy5cfcnVK1evXLn6gqtXrlx9yREeWeuBRx5q5ZEHHmvhkUeWeuSBx1p45KEeWXngsZYKMzVTMz1TMz1TZ3qmZmqmZ2qmZ2qmz9RMz9RMz9RMzfRMzfRMdRdCRBQEQRECgqgIQsBvIAhCRBDEIkcPHjzk4NGDhxw8ePSQgwePHnJw8OIxBwcPHilrt5LKdlKbylZS2U4qW5vKVlJJ71ZS2Uo6W5tKKltJZxUtQUpLkNISpLTkW8UCpGIBUlqClpSglSFdGTKkK0OGTNlkyFSaDBnSlSFDujJkyFQah0yl+RX1H/z1/8ovuHDl6kuuXLxy5epLrly5eOXK1ZdcuHL1ykuuXD3CWg+sLKz1yMIjC2s9sLKw1iMLjyys9cDKUo8sFWZqumZ6umbqTHfX6ZrpmZqumZ6umZ6uMzXdMzVdMz1dMzXT09VVCIogCoIiCKKgBATBbyAIguA3EAuPHjx48JCjBw8ecvDowYOHHD148OAhRw8ePHiA1G4lldRuJ2R7U9lKKqndSjpbm8pWUpvKVtLZ2lS2NpX4jRKwAlKCIiWlCFKKlCClSAmhFEFKyVSaTGUqQ7oyZCpNpjJkKk2mMmQqTaYylSFdGTKVIV38gvoP//rv+AUvuXLl4pUrL7l64cqVK1deeOXKlasvuHLlypWLN7CwEllYa2FlYWWplYWVhZWFtRZWFiJLrSwVpmu6pmu6p2u6Ttd0T9d0Tdd0T9d0TfeZmqqZmu7pmq7pnq7T9Q1BEURBUARBFBRBFAQk/CQKiiAWHjx68JCDB48ePHjwmIMHDx49eMjBowcPHjzkWFhJ7VZSu5XUbiWV1G4n7HZSm8pWUruV1G4ltalsbSrprCIoQihBEaQEJSAlKIIgFVAEKUERMpWuncpUhkylK0OmMpWuncqQqXRlKkOmMpWuDDuVqXRlCuT31H/0v/xzfsGVKxeuvOTKxStXrrzgypUrVy+85MqVC1euvPTCERYiC2sFVgIrgZWFWAuRhchCZGGt4FKRtWSqp2uqpmuqpnu6TtV0TfV0TdV0TdV0n6rpmqrpmqrpnqrpOvUTgvJNFARFEAFBEUT5SREEURAQsfDg0YMHDzl68ODBg0cPHjzk4NGDBw8ePXjwkEORSmq3ktqtTSW1W0ntVlKbytamsrWpTWVrU0ntVlK7ldTGbyAIAUUQhICgCAFBELQCgiBEBCFTaTKdqR0yna4MmdrpDJlK9w6ZylSmMpWuTO1UpjKVrp3iF9R//Ff/jF9w5QVXrly48pILV65cuXDlJVcuXLly5cJLrl7rwlUDS0UCkcBKIBKIBAKRhUioaKiVQCQQKkzXVE3VVE3VqZqqqZrqqZqqqZqqqTpVUzVVUz1VUzVVU3Wqpn5CUOSbgqCAgiAggig/KYIICIoIFB48evCQgwePHjx48OjBgwcPHj148OAxBy4OOUAq6d3akNRuJbVbm0pqtzaVrU1tKlub2lS2Nmw6W5vaJUEDgiIGBCEgCEFFEAKiEBCUgCgI25WpTGV6pzKVqXTtdKYytVOZynSmtitTmdrpTGVqpzKdqXRR/K76T/7qb/k9BVeuXLlw5SUXrnXlwkuuXLlw5cqFl1y5cOXKtV5whEhACUQCASUQCQiRQEQIRAIRIRKIJVM91FQNNVVTdaipGmqqhhpqqqbqUFM11FQNNVVDTdWhpqooBOWbCAgCKj8JAirIT4IKyE+CChQePObAwUMOHHPg4CUDx1wcOOTqwYMHjx48ePBQhE3t1qaS2q1NbWqXpHZrU5vK1qY2tcumktqtTW0qW5vaVcSAKATEgCAGxICopPAbBEQhIAbEdO10pjK9U5nK9E5leqfSnVPbnalM7XSmdjpTmd6pdOfUdmWa4nfVf/qP/im/4MpLLly51oUrF15y5VJXrly58LKuXLhy5QXXunLhCEpAUAJCRFACYkRKDQhKQAkIihBKhhoYaqihhjrUUEMNNdRQQw11qKGGGmqooYYaGOpQTQkooPwkIKL8JN9UvslPIiI/iYAiNh48eOSQAwcPXj148ODRgwcPHj148ODRgwcPHiC1qd3a1KZ22VRSu7WpDbu1qU1la1MbdmtTm9qtTW1qlwQNCkExIAbEoBAUxGBAFIJCUAyIgXRlaqczvVOZ3ulM7XSmM7XTmd6pTO90pnY605na6XTvVKZ3muJ31X/2D/+G31Nw4cqVa1248qKuXLlwrZdcuHKpK1cuvKwrF65c6soVREUQFEFQREUQFPkpIt9Uwk9KAEvGGmqsocYa6lgDYw011FhjDXWokbGGGmqsocYaOFZRyE8KCAiICMhPIvJNvikg30RAflIbDx48cvDgwauDFw8ePHrw4IGjBw8ePHrw4MEDpDa1Wxs2tVub2rCp3drUpnbZ1KZ2a8OmdmtTG3ZrU5vaVYNCSjEoBgNiUAwKQTEoBsSUQTEgblemdzrTO53pncr0Tmd6pzO905na6Z3O9E5neqczvafTvVOZlt9X//lf/hN+wYUrL+rKlUtdudSVKy/qyoUr13rBtS5cudaFK5d6yZGfFBEQEPmmIj8p3wQVkJ8U+abyTQsmNdSkhho51lhjjTUy1lhjHRlrrLHGGhlrrGONNdKWgPIb5U9U/kT5jYj8RgEB+RO18eDBA0cPHrx49ODBA0cPHjx49ODBAwePHrw4QGpTG3ZrU5va5Ult2K1NbWqXTW1qU8+yqU3tsqlN7daGjUYMBsVgSjEoBoNiMGgZFINiMJhSDKZ7pzO90zud6T2905nZqczs9E5neqd3OtM7nemd2elM7/ROZ5rid9V/8Zf/mN9TcOVSV65c6sqLunLhWlcudeVFXbnUlWu94MqlrlzrwpH/n8g3AQEBAQH5Jt/km8gfKSDfLBlrUmNNGGtSRyY11qRGJjXWyEmNNWGsSU1qZFLHGqtFAfmNgICAgHyTbyLf5E9U/kz5qfXgwQNHDx68ePTAwYMHjx48cPDowYMXjh48eMDUhk3t1oYntVsbNrWpZ9nUhmdrU5vasFtPasNubdjUs7VRQ1KKwWCImDIoCQYtgyFBMZiKGAyKITu905nZ09u9ZzK90zuT6Z3emZ3O9J7Z6UzvzE5neqd3ZqczvWf4BfVf/s9/ze/zWpe6cqmXXOrKpa5c6wWXunKtC9d6wbUudeVSV671gkOJ/JklfyZSfBP5o0K+CViA/EZ+KpgwqQmTmtSEk5owqUlNmNSkJpzUhElNasKkJjXhpCbVIt/kN8qfKT8JCAjI3xP5Jt/kJ1sOHjxw8OjFg0cOHjx44OjBgwevHDx48MjBgwdIPWFTu/WETW14tjZs6kntsqkn7NaGJ7XLpp7Uht16Uhs2mmCIZUgwxDIYEgxJKQkGU5EEgyGWIcFU0rPTO7PTe2anM7PTO7OnM7PTO7PTO7PTmdkzO70zmd6Znd6ZnaH4XfVf/U9/xS94Ude6cK0L17rUSy51rQvXutRLLnXlWpe6cK0XdeVSVw4FWPKtoBApvllQiBQ/FRagBcVPpUAhUBbM1qRmmdQsJzXLpGaZ1GxNmK0TZmvCbE2YrQmzdcJsTWhLQED5eyK/kT8SkL8n3wTkT2w8cvDA0YsHDxw8evDAwaMHLxw8euDgwYNHDh4gPKlNbXi2NjypDc/Whie1y5PasKln2dQTNvVsbXhSG3brSYxlSEjKkJCUIWJIKiHBkJSSkJQhwVRCQsSd3pmd3jM7szOZ2ek9szM7vTM7szN7JtM7szM7s2d2emd2JtN7Rn5f/dd/8Y/4BZe61LUuvKxLXbnUtS5c60Vd68K1LnWtCy/rUlcuda0Lh6KgsKCksKCwoKSwoKCwpLCgsKCksKCgsCiZZZZJzTJbZ5mtWWZrltmaZZazNctszTJbs8zWLGdrltnqIN8E5E8ESn4jfyLyZwIFKH/PxiMHDx64evDAwaMHDh48cvDigYNHDxw8euDiAeXZ2vCkdnlSG57ULk9qw5N6lg1PasOz9YRNbXi2nrCpJ2w0IamEhKQSEkwlJCSVkJCUIVZCQlIJCaYSErLTO7Mze2ZndmZn9kxmnpnMPGcyszPPTM7szM7szM7smZ3ZmZ3ZM/yC+m/+4h/yC17Wpa51qQvXutS1XtSVS13rUpe61guudalrXbjUy7rWpQ5Q2FDYUFjSWFDQWNBaUNhQ2FJY0FDYUFoUzNY8zNY8zDJPnWWemmUeZmseztJPnWWemmUeZmsezjJPzTJPdbD4jfJnhchv5DeFfBMQKP5I5Fsh0Hjk4MEDVw8eOHjk4MEDF48eOHjg6MELg1cPHDBs6glPasOzPKkNT+pZNjypJzzLpp6wqSc8y5Pa8KSeZcMTTSohqYSEpDYklZCQVEJSCUklJCSVkNQGQ1IbsjPPzM7smZ2zM3tmZ3Zmz9mZndmZndlzdmZn9swzs3P2zM7szM7ZM/yC+m//x7/kF1zqWpe61ou61qUuXOtSl7rWi7rWpS515VLXelGXuta1LnUoWhsKGxobWgsaGxoLGhsaWwobGhsaCxrbgnlqHuZhnpqH8zAP89Q8zMM8NQ/zcJ6ah3mYh3lqHuapeTgP8zBPdZBvUnyT3xQi3wr5EwsQsPgjCxAQKGg8cvDggYtHDh48cPTAwQtHDx44eOTigYNHDxxAnuVJPeEJz9aGJ/WEJ+zWE57wpHZ5whOe1BN26wlPeFIbntUsSSVsKiGphE0lZGtDUgkJm0pIakNSWZLakFRCdnrn7JmdeebsmZ2zMzuz5zwze87O7Jw9s3N25pnZc3Zm5+yZnbMzzxkofk/9d//gL/g9BZe61LUuda1DvaxLHepaL+pYl3pZh7rUtS51rUtd+sqlr3WAxsaGxobWxobGxoLG1obGxobG1obGxobm2zzMwzw1X8zDPDUP8zAP89Q8zMM8NQ/zMF/MU/MwD/PUPMzDPDVfdPhmAfKt+Hul/FnJHxW/0eJPit9I48EDBw9eOXjw4IGjBw4ePHjg4JWDBw8eOHrggLLhSe3ypJ7wpDY8qSdseLae8KQ2PKknbHi2nrCpJzypJ2w0YVMJSe2SVMKGpBI2JJWQ1IaEbG1IKiFhUwlJ7c7szM48c/bMztmZPfPM2Zk9s3N2Zs95ZnZmz9mZnbNnnpmdszN7zs7I76v//h/8D/yCS13r0tc61LUufa1DXetSl77WsS51qWtd+liXutaljn2pQ9nY2tDY2Nja2NDY2NrY2NjY2tDY2Nja2Hybh3mYp+ahH+apeZin5qEf5ql5mIf5op+aZb6Yp+ZhHvqpeZiHeaqWKkC+Fd8K+Vb8UaFF8U1+U8VvpPhWfJOCxoMHDx48cPDowYMHDxw8ePDggYMHDx48/H+MwT/PrwGXDeD1Z9+/5/MpdRoJDSIRhYJCIgoKBYVEFBSKaSQ0JJrXGGYGiVKpUyrPvfdazvkE57muDjDtAC0u3PCCDTe8YMMLNrxwgws3vGDDCza8cIMNL7hww02R4A4JEia4IGGCBBcmSJDgygQJcrgwQYIEFyZIkLNufPZ5zt7x2WffzNlrn33j85y947PPc/aNz177Zs4+G9/Av/A//wS/x6ec8oGmfMCpHvCBpnzAqR5wygd6yikfaMoHfKoBn2rABxywRIwKVStUqFqhQoWqFSrUKBG3QoWqFSpUqFoBhBZe+oWOXviFjl5o4Zc+aOGXlcVtjgAAIABJREFUWvjgl1p4oaNfeKmFF1oqIAqC+IUoAAIgiAIgABYA8QtZAMRPJX4hAZRAhQ46wKCDDjrooIMOanTQQQcddNBBBx100GGNDjroAAi3vPDCDS7c8MILLtzwyg0vuHDDCy/c4MItL7xgw0ubIOEFCRIkSHBlggQJElyQIGGCCxIkSJngggQJctbZa9/47LNvvPbZ5zlrZ84++8Znn732jc8+e+0bn302voF/8X/8Ad8w1QNONeBTDTjVA0414FMN+FRTDvSAUz3lQFM+0FQDPpXBqhEq1KgaoULVChHqVqgQoWqFuhEqVKgaoULdAl5q4YWWWnihpRdaeqGFll5o6YUWOnqhpRdaaOmFFjqSJUD8VAIkgBIgQJQACKIEiJ9KgARR4hcCZAlUqNEHNTrooIMOa2TQQQcd1Oiwgw46yKCDGh120EEHaHnhhVdeuOGFF15x4YYXXnjlhRteeOWFF2545YUXXtoECRJckCBFggQJElyQIEXCpBcmSJAiQYIEFyTIWWefffaOzzr77B2fffbZZ+/47LPP2vHZZ5+947PPPhvEb/Ev/Y//hN/jU0410JQDTfWUA0014FQDTflUA0050FQDPtVUA005kMEKVSPUiFohQtUINaJWiFC3QtQKEepGqBC1RoSftNDCRy200FILL7XQUgstvNRCRy280FILLb3QUgstFBAgQJQAWQIEhJ9KQCwBAkQJECBKgCwBAkQJCK3YQQcdxOyggxoZdtBBjA467CCDGh12EKODDjqM0QFQXnTlhVdeeOGVF1541YUbXplwwysvvOjKCy+88sJLmyBFggQJUiS4IEGKBAmSJrgiQYIEKRIkSHBBipy19tlnnb3js886++wdnX322Wvf6Oyz1zr7xmevdfbZIH6Lf+W//wd8w1QDTTnQVFMNNNWAU7kaaKqBppxqoKmmGmjKgaaaylDUGlEj1I0QoW6ECFVjRK0Qo2qEqDGqRohQN0IJLbTQ0gsuvdBSBy210EJLLbTUQkcttNRCCy210FELHQiQEEqAqACiAggQFUBWAAGiAogSEEqAgFgCAqrW7CCDmhl0ELODDmJ2kEHNDjKomUEHMTvoIGYHHaBgwouuvPCqC69MeNWFV1540ZUXprrwyguvujDlRZc2QdoECRKkSJA0RYIEF6RImiBFggQpkiZIcUGCnHT2WTs++6yz17rxWWevdfbZOzr7rLPXvtHZZ6191tkgfot/47//e/wep3Q18JRTGZ5yqoFcTznQ1C4HmmogV1MNPKWrgac0FCFqjKgxokaoGyFqjKgRYkStETVC1BhRa0SNUEILLr3gUQsttdCSBy201EJLLXjUQksttNSBSy201EIBAaECiAoQSkAoAbECBBAVQFSAUAJCBRAQKoAohA5jdJBhjQxrZBijwwxqZFgjwwxqZlAjwxoZZlATqK5MeNWFqS686sJUV16U8qIrE115YaorL7oy0ZVXIGmCFEkvaJH0ghQJ0iZIkDZBgrQJUiRImiJB2py59lln3Xits886e62zb7TW2WedvdZZNz5r7bPOWvtG+Ab+7T//t/iGqQxNNbWhqVwN5GpqQ1O5GmgqV1MbmsrVQK6nMmQoatQYUWNEjRD3hLgRosaIGiNqjKgxokY4t8K5BXTQkksttORBCy251IELLbXkQgctudBSCx614FIHLXkQaoCoAKEiBAhVIVSEUAFCBQgVQNSoAKIChAqAUDODmB3EzCBmBzEzqJlBzAxqZhijwxgZxugwRoZEeVXKi65KeVGqK1NdmOqilFelujDVVQmvSnlRqmubImmCtAnSJkiRNEXSBCnSJkiQNkHaBGkTpEiaM89e66yzzl7rRmeftdZZZ6191llr3+iss9Y6+6wdnY1v4N/98z/CN7ieypXhqVwZnsqV64FcuRrYlaupDbmeypWhqV0ZOjVG3BPiRoh7aoS4Ec6NEPeEuHEjRD0jaoxTY5TlUgsudeCSCy150JILHbnUggseteRCSx605EJHLrRkYFSAUAFCDQgVakCAUKEGhAoQqsKoALFCDagVAKHDGDEzjJFhjJoZxsgwZgYxY3QYM4OYGcaI2UFMoEp1VcpUVyVKdWWqVBelvCpVqlQXproqVaoLU6Vo0hRJ0yZImyJpiqQJ2qZImiJpiqRpE6RImzRFTtzxSTda66yz1jrrrLXOvtFJOzrrrLXOOuvstW501lr4Bv6DP/s3+AZXhl25djWwK9euXBty7Woqw65duTLsampXhl0JinBuhHOjnhH31Binxjg1boxTY5wa94S4J8Q9N0IILXjkgksduOSCRy245IJHLbngkQsteeCSCx255EJHHowKMCrUgFADRoUaECrAqAuhRgUYFWBUqAGjAiDEjJFhzJgZxIyZQcyYGcSMmWGMmBnGjJFhzJgZEFCqK1OlSpXqolSpUqW6KlWqVKlSpbooVapUV6VtirRNUyRNmyJp2gRp0yZIm6Bt2gRp0yZImzRFTjpzrbPOWutGZ5211llrnXXWWmedddaaZ91orbPOWgvfwH/8Z/8K3+DatSvDrly7du3KsCvVrg25duXatWtDrl25dk0o7qkxzj3h3LgnxD31jLinnhH31DPinnruGVHPiBuABy654JELLnnkgkcutOSRCy554JIHLrngkUsueORSgVGjAtwaNWDUgFGhBowaNaDWgFGjBowKNWDUKMgYGcaMeWYGMWPGzDDmmRnGiBkzZoZnxIyZYcyYQJUqVepUqQKlSpUqVepUqVKlSpUqdapUqVKlStG0TVOkTZo2bYK2aZOmSJs0bYq0TdOmTZA2bdKcdeZZa5115lpnnbXWmWetddaNTtzRSTs686y1zjrrzOL3+E//9F/iG1wbUu3atWpXhl2rdu1KtWHXrlS7dm1YtSvXqgWde0Lcc08499wTzj037gnnnnvCueeeGuPcc08499wQXHDJIxc8YsElj1zwyAWXPGLBIxc8cskFj1ziwCUXCgwYNWrAqNsBjBo1YNToAG6NGjBq1IBRoy4GNQohZswzY8a8YcyYZ8bMMOaZMWKemWHMmGfGjHnDmASUKlXqVlcVSp0qVepWqQKnSpW6VarUgVKlSp2iDdKmTZs0/SVt0hTpL0nTpk2bNP0JaZOmTX/JmWeudeZaZ5251llnrnXWmWudedZaZ5611plrnXnWWcXv8V/86T/HN6h2rdq1ateCXat2rdq1ateCXat2rcq1a8GuVas+d91zzzj13HPPOPXcc8894dxzz13j1HPPPePUc88NgSUPXPKAJY9Y8MglFzhyyQOWPGDJIxc8YskDl1jyoMDoFEaNDmDU6BRGBzU6gFujAxgd1OgURgc1YHRQEDHPjHlmzBvFiHVGrDNjnhnzzJg3jBnzzJhnxjyThFIHSt0qdaDWqQK3Sp2qVeDUqQqnapU6UOpWAZo2bfpL0rRp01/SJk2b/pI2bdL0l7Rp0yb9KSeeedaaZ6151plrnXnmWmeeteZZZ6515lpnnrnWmWfhG/iv/9s/wze4Vq3asGrV6rhWrdq1atWuhVHtWrVq1a5Vq3aH0LnnrnrGueuee+4Zq5577rlrnHvqueuece665556xrE8YskDljxgySOWPGDJA5Y4csEjljxgiSMXOPKIBZcMBh1gULeDDmpg0GkHNTDotEYHGHRQtwMManTQKQYFkeGZZ8U8McMzz4x5Vswzz4x5Zswzz4x1Zswzz4wJwIFbFU6VunCq1oFbBW6dqnDqVoFbB2oduFXqAk2TtmnatOkvadKmv6RNm7Zp2jRp01/Spr+kzYlrnnnWmmeudeaZa5155opnrXnmWWueedaaZ6515pn4Bv7Rf/sn+AbV6qhWrY5q16rVUa1aHcGKVRujWrVqdVSrVke1oBXO3emp65677hnrnrvuqefu4NR1z1333HXPXePcVSNggSOXOGDJA5Y44sgFjljygCWOOHCJIxY4cokjFjwymHbQAQaddtBBB5j2QY0+qNsHMDrotAMMOuig0z6AURJnxjzrzDNjnnTmmTHPOvPMmGeedWbMM886M+aJZ5FwqsKpC7cO1Lpw68CtA7UunLpwq8CtC6cu3CpA01/SpL+kTZumbdr0p6RNf0mTNm36S5r0l7Q58cw1z1zxrDPXPPPMNc9c68wz1zzzzDVPWvPMM9c8E9/Af/df/xF+j6rZUa2OatXqqFatjmp2BCujWhjFwqhWTIxiYVSzXvfcddc9d901zl133XPXXffcddc9d411z1133XPXPQIHLnHEAkcsccQBSxxxwJJHLHHAEUscsMQRByxxxFLBoA867aAPMO2gDzrotA86wLSDPuigUwz6oNMO+qDTDkDhxDPPinnmSTc88awzzzzrxDPPinnmWWeedOaZZ8UE4MKtC7cOXLh14cKpC7cuXLh14MKtC7cOXLh1gbZJmyb9JU3boOlPSZv+lLRp0l/StE2bpm3aIFnxzDPPXPPMNc9c88wzVzxzzTPXPPPMNc88c80T1zwT38D/+F//Ib5BHdXsqKOaHdXqsKNaHcXsqFaHHdXqsFZHHdbqqCa87rrrrrHOumucu+6666677k7PXXfdddddd9111z33CBxxwLJHHLDEEUscccASRxy6xBFHLHHAEUscsOwRRwVPO+iDTvugDzrFgw76tA866NMO+qBPO8CDTvugDzro0w5K8swTzzrzrDNPOvPMtSKudeZZJ5515plnnXjWmSed+ZNbFy7cunAxrQsXLlxM68KFWxcupnDrwoULty6Ytmnapkl/StD0p6RN0zZI2zTpT0mbpm2aomnS9oQz1zxzjTPXPPHMNc5c88wTd3jiGmeueeaZa5y54pn4Bv7hT/4+fo+s1WFHHdbqsKMOO6rZUYexOuyow1oddthRzY467LDe6brrrrvuuuu+03Nfd91111133XXX3em6677uOa+x7qlY4tgDjlji2AWOOPaIJQ49YokjDl3iiGOXOODYI5YKHvRpH3TQp33QB33aB33aBx30KR7kAZ72QZ/2QR902gd90KclcdZZJ6515lknrnXmSWeeteJZZ5501plrnXjWiWetSdDFoC5cTOFiChdGXUzhwsUALtxO4cLFAC7cupgCLZL+lDTpTwnaJk3RNG3TpD8lSNs0aYukPyVN2p5w5ponnLnmGWueecaKZ6x55hpnrnjGmWueseaZJ6yJb+Cf/cnfwzewww4z6rDDjjqs2WFHHXaYUYcddthRhx3W7KjDDDuEX3en6677uuuu+07XXXfd1113J+u+7ro7fd111133dXd6bI84dolDj1j2iCMOXfaIY49Y9Ihjlzjg2COOXfaIg4KnfYCnfZAH/RQP+rQP+mkf9EGf9kGf9oM+6NM+6IM+7Qd92gclcdJaZ5601pknrXnSWieeddaKZ6150lkrnnXSmWudCHKKKQxMYcDFFFMYmMKFgSkMTDGFCwPTTmHAxRQGmP6SIG3SFkmbpkiatmmKpD8lSJr+hKRJf0qQtjlhzRPOXOPMNc5c4cwz1lzjxDPWPGPNE9Y848w1zlwBJH6H/+u//B18A/uww4467LDDDDvssMMO+7BmHnbYYYcdddhhhh122AG87uvu9HXXfd2dvu66r7PuO133ddfd6euu+07Wfd113+m6y+LYY49Y9tgDjj12iWOPPXSJY4894tBljzj22GMXODL4oJ/2QZ/2gz7tB33aD/qgn/ZBP+2DftoH/aBP+6Cf9oM+7YN+WgornbTmSWudtOZZK5250lknrXnSWietedJaJ6150loEBnA5wBQGphjAxQBTGJhiAJcDTGFgigFcDDCFgSnYNm2CtE1TJE2bIG2DtElTJP0pQdqkKZqmSJo2OePENc5Y84wT1jxjjRPXOHONM1Y844w1TlzjzDXOWBHEb/F//5e/jW9ghxn0YYcddtiHGXbQYR922GGGfdhBhx3mYYcddthhn9Y7fd3X2enrvu5OX/d1d/K6r7vuO33ddd7p6677Tl93p6/zuif02EWPPfaIY5c99Nhjjz12iUOPPfbYY5c99ohDjz3y8EE/6Kd90E/7QT/tg37aD/JpP+jTftBP+0Gf9oN+2g/6tB/0035QEiudteJaJ6210klrnrTWSmettOJZK6110kpnrrTWSiQHmGKAAacYwMAUAw4whYEBphxggCkMTDnAAANMMSBSNE2bIG2CtAnSpk2QNEXaBmkTpE2aIkHapCnSU9c8Y40T1jhzjRPWOOPENc5Y44w1TlzjjDVOWOPMNb6D/+eP/yZ+j+iwwz7IsMM+6LAPM+iwDzvowww76MMO+jDDPuiwwzzoAPM67/R1X3cnr/tOX/edvs7r7vR13+nrvO47fd3X3cnrvtPXfZ0Veuyxxx667LHHHnvsscccuuyxxx577LHHHrrsscccFXzQT/vVfpBP+0E/7Qf9tB/0037QT/tBP+0H+bSf9oN+0K/2g37aT0NxpZVWOmvFldY6aa2VVlrrpJXWWmmls1Zcaa2TVlqL5JQDDDDgAANMMeAAAww4xQADDjDAgANMMeAAAwwwJdsmSJsgbYqkKZKmSHHpTxekTZAibYK0CdKmSJqecO6KZ6xxxgpnrHHCGmesccIaZ6xxwhpnnLHCGmes8R38v3/81/AN7IMM+6CDPsygDzvowzzosA86yMMO+rCDPsyDDvsgwz7oAPM6P9x3+rrv9HXe6eu+09d5p6/7uj8m7/R1X/edvO47fd138rrvdNkec+yxxxx76LHHHHvsscsce+yxhxx77DHHHnvsMUcdPuhX+0E+7Rf6ab/QT/tpvtBP+0G/2g/6ab+aD/ppv9BP+4V+2g/y1ZJcaa2VVlpppbVWWumsV1rppLVWWmmltVZaaa2VVl6R1AMMMOAAAw7wgAMMMOAAAz7AgAMMOMAADzjAgAMM8IBocUXSFGkTpLg0RdoEaRNckTZB2hQJ0l6RIG2C9IRVz1jjjBXOWOOEdc9Y44Q1zlj1zHXXOOGMNU5Y94zi9/j//viv4rcK9EEf5kEHfdCHedBBH/RBhn3QB3nQYR9k0Ad92AcZ9EEf9mn9Tl/3x+R13+kP95287jv94bzT1/kxfaev+05+uO/0dd7pD/edvO6P6ao99phjlwl7zLLHHHvMsYcce8yxxxx77DHHHnPsMUcFX80H/Wq/0E/71XzQr/YL/bRf7Rfyab/aL/TTfiFf7af9Qr/aD/LVflCBa6200iuttNZKK6280kprrbTSSq+80lorrbTSymutRHKAAR9gwCEfYMABHnCIBxxgwAccYMCHGHCABxxgwIccgCnSprggbYoE1yZIcW2CFGmvSJD2igRpE1yRNkVyxLpnnLDGuWucsO4ZK6x7xgpnrHvCGueucMYap65xxnfwx3/+y/iOPsiDDvogD/qgD/KgD/ogD/qggzzogz7Igz7ogwz6oA/6ME8xP5x3+mP6Oj+mr/tj8ro/pu/kh/tOfkxf98fkdX9M38nr/pi+zo/pO/3hrJpjjj3m2GOOOfaYY4495phjjznm2GOOOfaYY44NslT4hXy1X+0H/Wq+2i/0q/1Cvtqv9gv9ar7Qr/ar/UK/mq/2C/1qP80X+tWKeOWVVlpp5Vdaaa2VXnmllVZ65ZVWWmvlV1pppZVfaSWSDzngAwz5AAM+5AAPOOQDDPiQAz7AkA84wEMO+AAPOcADsu0VKVJcmuKKBGmvSHFpigRXpLg2QYor0l6QIsXlhHVXOHeNU9c4d4Uz1j1h3TVOXePcFc5d44R1z1j1jOL3+P7nv4rvyIM+6CAP+rQPMuiDPsigD/oggz7o0w7yoA86yIM+6IMM+hTzw3mnr/tO3ukP95287jv9MXnd13mnP6av805f98f0nbzuO/nhvtN3skTCHHvIscccc+wxxxx7zDFhjzn2mGMOPeaYY4859sjgC/20X+0H/Wq+2g/61X61n/YL+bRf7Rf6ab/aL+TTfrVf6Kf9aj/NF0pwrZVWWmmllVZaa6WVVlpppZXWWmmllVZecaWVV1qL5AMO8IBDPuCQAz7AkA844AMOMeADDvmAAz7EgAM+5IADqu0VCdJekSLBtSmuSJriigTXpkhxQdorUiS9IkVywqlrnLrGGaeuce4K565xxqlrnLvCuSese8apa5y7xnfw/cNfx3f0aQd50EEfdJoHHXSQB532QQZ90EGfZtBBH2TaBx3kQaedd/JOX/edvO47fd2dvNPXfSev+05e952+7jt5p+v+mKz7Tl/nnS6bsMccc+wxx4Y59pBjjj3m2DDHHnPsIceEPebYY44KPu0H/bSf9gv9NJ/i03yKD/LVftoP+mk/7Vf7QT/tp/20n/YL/bSfhuRKJ6601kkrrnTSWiuduNJKK5250konrbTmSSuttKKoIQd8wAGHHPABBxzyAQcccsAHHHDAIR9wwAEfcsABh2SKFFckTXFF2gRXpE1xQdoUCa5NcUXaBFekTXFFcsK5J6x7xgnrnnHuCeeuceoZa5x6xrkrnHvGqWuce8J38P3D38LvEZ12kEGnfZBBpx1k0KcddJBpB32QaQcdZNBpH3SQaaeYdd7p6+7kdXf6uu9k3Xf6Ojt93Z2+zk5f953s9HVfdyfvdN1Vc+wxx4Y59Jhjwxx7zKFhjj3m2GPCHnLsMWGPOfbI4NN+2gf9tJ/20z7op/20T/tpP+0HfdpP+2k/7QN8mk/xaR/0035aEieteNKJa5240oknrXnSiSududKJK5114konnrTmSSQHHPAhBxpwwAGHHPABBxpwyAEHHHDIBxpwwAGHHPABESBF2gvSpkhxbYIU1yZIkfaKtCkSXJsixaUp0qZhzzj3hDXOPePUM8449Yxzz1g1xhqnnnHuCeeeccapxe/x/cPfwe8RnWbQaY1OM+ig0w4y7aDTDDrtIINOO+g0g047iNGn8OvuZN13us5OX3en66z7TtfdyevudJ2dvu5O130n6+50nRV6TNBjjj0m7DGHhj3m2DCHHnNs2GMOPSbsMceGPTB4iqd92k/7oE/7aZ/iaT/t0z7op33ap3jaT/ugT/tpn+JpP+3TkjjpxDNPPHOlE08868QTTzzrxBNPPGvFiGeudOKJZxEc8oEMDvhAJgcccKABBxzoIQ0O9IAGB3pIgwMNOOADoUWKaxOkTXFtigRpU1ybIsWlKdKmuDbB/2cMDhVFC7Isq869Vxw+HIVCoVAoHAqFIquqUSgcCoVCoTAvYk3uy26fd4xKtfK07fLiW1548S0vvPjCW194ofEtL77w1hdeePEtL77wwlv5hfnzn/5rfkFDjx48Nnj0YOzRg9FDjx48Nnj0YOzRg7EHj+SmN97jPd70xnu88R5veo833niPN73HG+/pjfd44z298R3vaMc3fWOnD9+04xsf7fjGN+34sNM3vmnxjW/a8U0fdqZ8+smnn376ydFPP/zk00+PfvLpp59+cvTTTz/49NOBl3k7zbydt/Myb6c7b+dl3k53XubtvJ1m3s7beZnuvN23vMzb2dnDnNkwhz3MYQ9z2DCHPcxhD3NmDnvYMIc57GEPc2YOG2YK1Ur1lWqlWnnaUqlWnlZaK9UnldZqpXZ48YUXX+jy4gtvbXjhxbc0vPjCW15sePEtL7zY5UV+Yf78p/+GX7DBo7EHo0dDj0YPxh4NRo8NHg09Gj0YezSSl97jjTe+44339MUb3/Gm93jjO9740nu88R1vvOk73niPb/WNb1p8Y6dvfNjxTTs+7PSNDzt9Y8dHO77xTYtv7Ew5+snRo58c/eTop0ePfHrk06NHPzn6ydFPjxz9dIa308zbaXg73WnmLd15me680J2300x33tLM23lLM915me78OMxhwx7msGEPc9jDhjnsmT1M2MMeJuxhDnvYsIc5bJgRnlaq1ZZK9Wml0lqtVJ5WK5XW6pNqpXZ94cUuLzS+5YXGF17o+sILXV9oePGFri+80PiWF35j/vzHf8svaDB6bDQaPDYaDcYejYZGo0ejodHo0dCUvPTFe3zxHW986Tve+I4v3vhOX7zHF1+8x5e+eI8vvuNN3+Ibi2/a8eEbOy2+seObFt/4xuKbdiy+acc3Puz0zZSjRw6ecvTI0aNHjh45evTI0SNHjxw9cvTI0SMzdqfLy3Rppkt3XuhOQ3e6NNPlZbrT0J2G7nR5oTsNM3vYOIc9bNjDhjls2DN72DCHDXvYw4Y9TNzDHjbsYcOMWKlWnrZUK9VqpVpprTytVqqVaqW1Uru8teGFxrc0vNjwloYXG17s8kLjC10aX3ihS+MLvzF//uO/4xc0GhuMRqOx0WhsNBiNxkajsatHF4+ujeSlL97jiy++44vv9MUX3/HFF9/xpS++44svvuOL7/TFF7v2jR2Lb+z0Ycc3Fju+afGNHR92+sbiGzsW37TjY0rkyNHI0cjRyNGUA6lHokeiRyJHI0dPCZ4yQ5eGLs10MXRppktDFzNdGrp0aaaLoUszXRq67GzYw4YNe5iwh4Q9bNjDho1z2LCHDXvYsIcNG/awYadYqVaq1UprtVKtVKuV5w9erVSrlWq1dm1oeGtDQ8OLXRpebOjyYkPDC10bXmhseEtjw2/Mn//47/kFjcauRqOxq9Fo7Go0ujYaja7GRlejsZF98cWevvhijy++2ONLX3zHxhdf7PHFl75j44vv2PhiVzt92LHjw45vLHZ8tGPHhx07Puz4aMeODzs+7FAikaORaEokEo0cTYlEI5FoJJIaiRyNDDQ0uDS4NLg0uDS6NOPS0NXQxdDFTFdDF8PMhj1s3LBhDwl72LBhwx42Juxhw4Y9bEjYsMcNG3bESrVaqVYr1WpLtVp5/lWpVp7WH7Q+rQ1dGhsaurzY0NDYpeHFhoaGrg0vNDQ2dHmhkV+YP//xP/ALGrsaXY3dGl2Nro2uRtemrkbXRldXY1dTtvHFnja+2PiOjY3v2Nj0HRtfbHzHxsZ3bGz6Yo8dLHYsvrHThx0iupKWAAAY4UlEQVSLbyx27PiwY/GNHYtvLHZafGNnyko0krISjaykRFYjWyLRlUjKaiSyEk1hMLgauhhdDC6NBheDa4PBtcHF4GroYjTM7HHDhoQNG3LcsGFDwsYNOWzYkLBxQw4bNiRs2ClWK9VqpVqtVupfldZqpVqtVKvVSrV2aWzo0tDY0NC1oaGhobGhS2NDQ0PXhoaGRn5h/vzH/8i/NnZ1detq7Orq1uja1a2rsaurW6NrV7dG167si017bGxs7LGxsbHHF40v9tjYtLHHxsbGxh67+sZix44POxY7PuxY7PiwY8fiG4sdi28sdix0IltWV1ZSVlZWt0RWVlJWVle2rERWtqxEAaOB1WB0MboYDa4Go4uR1eBiNBpcDa47GzYkbNyQsCFhY8KGhMQNGxI2JmxI2JC4IWFHrFYr1Wq1Uq1WK2q1Uq1Wq5VqtVKtXRsMjQ0NXRoaDQ0NjV0aGowNDV0aGxoajPzC/PmP/4lfsKtb165uHY1uHRvdOrq67erq1rWrW1dXt13ZxsYeTRsbGk17bGz02NjYaOyxsdHY2GOjsavFNxY7dix0fNix2LH4xmLHYsdih4cdix0LZTurIytbVka2rKxsGVlZ2TKysmVlZcrKylYGoouR6GokuBKNrAYjq9HIYiS6GoiuxJkNGxMSNmbZkJC4ISFhY5aEjQkJG7JuSEjcEMRKtf5VqVarlWq1/qBarVYr1fpXtVK7NBgbGlwaGwwNDa4NDQ2GxgaXhgZjQ0PDb8yff/+f+QXdOrp26+jWtVtHt66uTru6dXXq2q2rU1fXbhljo7FHY6PR2NRDo2mDp40G0wbTRg9NjY0uFjsUOz4sdix2KHYsdnzo+KBjsWOx2LHQsWwZWZnOyJaRkSkrI1tGpoysjGwZmbLOyJSRQaKRyEo0ElmNRFYjkdVISmQ1ElmJRtaZCQlZEhMSNmZJSEzYJTEhS2LChqwJCYlZNoRiRa1Wq9WKWq1WK1WxtdhaqH9Vq5XatcFgaGg0NBi6GBsMDQ2GRpcGQ4OxwdDwG3P//X/hXxF06tqpq1O3jm47unV069itU1enrp26OnXr2C1jNBo9GhuNRqPRo9FobDQaPRqNRmOj0dUOxY7FjoVix2LHQsdisWOh40PH4oOOxQ4yZWQ6I5SRkSkj0xmZMjIyBWfKyJSRkemMTGEkspISiaSsRCIpK5GUSGRLJLKSEolsiTuznLhLYsJZNiZkScySkDUhMUtC1oSErAlZEoNYrdS/qsXWolKt1r+q1Ur9q1qt1r+qi6HB0OhiaDAYGg0NhgZXQ4PB0GBsMBh+Y/78+//KL+i0W0enTl2dduro1qmj005dnTp17Napo1O3nTJEo9Ej0Wg0Go1Eo9GjkWg0GoykHoxGR8SODzsUxQ7FjsVCx2KxQ7Fjodix2KFY6CAjdJApyHSQKRScEcrIdBDKOJQRyjgUZAa2kxJJibMlkk5KZDuRlDgpK+mkRFLibImkO7OekDUhS2KWE7NkScySmCXxLAlZE7ImnDUhSyjWv6rFilqt1r+q1fpXpVYpVqv1r2o1uDQaDIYGg9Hg0oOLwdBgNBgaDAZjFwPDvzT33/83/hXBTp06dXTaKdNOHZ06ddqpo1OnTjt1dOrUqaNTx0g0Eo0cjUQj0Ug0EI1EI0cj0Ug0ElksFjsUCx2LHcRix0KxQ7HYsSB2LBQ7FAsOBYdCwUHoIBQKDgWHgtBB6FAQCg5lRuKkk7KdSDrppKSTzko66aSkE0lnOynppMRJJx0mnDVL4lmyZjkxS9YTsmQ9IWuWxLNkTThrlsSzhOKPalWs1r+q1fpXpVao1r+q9a9qVayuBoPBYGgwuhgMBoPBYDQ0GAwGg9GMK8O/NPff/3f+JalTp06lTjt1KnV06rTUqVOnUqdOO0qdOpV2yhCJRKKRSCRwdOVIJBKNRCKRQCQaiURWOxaKDsVih2LBsVjoWCiKHYqFjkWhY6HYQewgdig4FhwLDsWCY8Gx0FHoIHYoOOCkpJtHOumkk0466aSznXTSSSeddFLSyZt00tlOOunOLGfNepbEs2Q9S9azJJ4l61mynjXhrFnOmuXELFkPYrX4o/5VrX9Viz+q9a/6V7Va/FH/qlYXg8FgMBoMBgPBYDAYjAYXDy4eXAwGosO/NPff/g/+FaFOpU6dljqVOpU6LZU6lTqVOi116lTqVOpUJhKJRCJhonEikUgkEicQiUQikTiRQGS14FgodhCLhY4FsdCxIHYoFsSOhWLBsdhR6Ch2LHZ0LHQUO4odO4odio7FjmLHDuOmkzfp5k066aSbN+ls57zZ7nmznXTSzZt00snbdNLJm3Rn1rOcNetZzprlrFnOetYsZz0h61nPkvUsZ816lrNmORR/FLXV+le1Kta/qvWvqlitf1WrYv1rMRoMBIPBYCAYDC4Eo8FAMBgMBoLB8Btz/+3/5BeeVCrtVCqVOk8qLXUqlTqVJy11KpVKpU6FOJFInDCRSJxInEicQCROnEgkTCROZJ0jg0Kx0EEsFhyKBbFDsSB2EAvFgkOxUHRa7Oi02NGx06Jjp8WO0o4dO0o7dip27CjtMG7epJu32zlvt5O3eZNu3qSbt3mTbt6cbt7kbTp5m27epJs3zHLWs54l61nOetYzZD3rWc561rNkPeNZznqWs2Y9y1mPYlWs1r/qX8Uf9a/aqlj/qlbFH7X1r8riwYVgIBgMBAPBYCQYDAQDwWAgGAiG35j7b/8X/4pQaak8qVQqlSeVlsqTSqXypKVSeVKpVCoTJxInTphInDhxAnHWiRMnEiZOnEicOGEicUYdCmKh4FgoCgXHQlEoOBaKBbGDUCw6lnbaqWNpp506LXbaaUenpZ12dFraaaeOnZZ2GDdv8zbdvM3bvMnbvD3dvM3bvM2bvE03b/M2b/Mmb/M23bzN25nxLGc96xnOetaznPWMZz3LGc96lrOe8axnOetZz3DWsx7FH8X6V/2rVK1/FX/UqvWv4o/6V1Vaf7AYCAaCgWAgGsgYCQYCwUAwEAwEgoHwG3P/7f/mF16pPqlUnlYqr1SqTyqVp5WWp5UnleqTSmXixI0TJk6cdY6zTJw4ccLEjRMnzjqHWSdOnDBxVooOhaJQEAsOxYJQFDqIBaEodCwIRWnnddppp047r9PSTjt12nmddlraqfM67bTTTp1X2gH3vORt3uZt3uZt3uYmb8/bvM3bvORt3uZt7qabm7w9b/M2b/N2Zj3jWb/hrGc941nOeNZvPcNZz3rGs3zjWc96hrOe9YzfciyK9b+oFetf9UeLP+pfpWr9q6hV61+V4ELg4ELgYCAQCAYCwUAgGAgEA4FAMPzG3H/8P/zCk+qT6pPqK8WWp5WnlaeVpy1PK08rTyvVysSJGydsnDjrhokbJ07cMOvGCRM3Ttw4YdeJE2ehIBaEgmNBEAtCQSw4FIWCUBQKjkXpm+e8Tjuv087rvE6d13mddl7nddp5Tt8853XaeZ12Xud1mCZv85K75yV38zYveZub8zY3eZuX3M1L3p6bvM1L7uZtXnJz3jDLGb/1jGf9hrOe8VvPeNZvOONZv/GsZ/jWM571G89yxrN+isUftf5TUVsVf9SqVbH+qFr8UasW/7OFQCAQCAQDgUAgEAgeCCwcCAYCgUAg/Mbcf/y//MLTJ9WnlaevVp9Un1afPK2+Wnlaffqk+rRa2Thx44aJu27YOHHjhlk3btwwceMuGydu3DBx11kQCkJREApiQSgIjgWhIBQFoSAWxM7rvM7rPOd1bud1Xud1X+d1Xud1Xud1Xud1nvM6t/O6r7zu6zAmN7mbl9zk5rzNTV5yc27yNje5yUvunpfc5CYv525ecpObvJ0Zv/Gs33iGbz3jGb/1jN9w1m8847ee8RvP8o1n/NYzfuNZP0VRW/8q9Z+K2vpPWKtWRW39J1r/i2IgsHAgEAgEAoFAIBAIEwwEAoHDBAOBDL8w9x//H7/w9Gn16dMnbZ8+rTx9Wvv0SevTp0+rT59Wn1Y3bty4YdcNGxM37rJx48YNG3fdsHHjhl03btwwI4JQEISiQ0EQCqJQEISCIBaEgiDtvM7tvM7tvM7tvs7tvM7tvO7tvM7tvM7tvO7tvM7tvM7tPue+YZq85Obc5Cb3nJvc5CU3uTk3ucnNuclL7slNbs5NbnKTl3OTuzPjN571G7/xjN/4rWf8hm8847ee8Ru/8Yzf+o1n/IZvPOs3fhal/lOp/1Qr/qgVf9QfFeuPivVHxfqjykKYQCBDIBA4TCAQCIQJBAKBQCBDnAMZwm/M/cflF54+ffVp7dOnT5+tPn367NPWp88+fVp99unTp9XEjQm7bkzYuOuGxI0Ju25M3LAx64aNibskbtyFoiAUBEEoCEJREISCIBQEoSCIYrnd27md272d27md272d27lvXvd2bud2bvd2bud2b+d2bud2b4cx+XNyk5tzT25yz7nJPfmT3Jx7cpObc09uck9uzk3+nHOTe3KTm3OXGb/xG7/xLN/4jd/4jWf8xm/8xm884zd+4zd+4zee8Vu/8Rs/RWn9UfFHrfijVvxRK2rVqlStSv2nUmWZwIEwgUAgM4FAmEAgcJhAIEwgQ5jAgTDhN+b+4/ELT599+mr12adPn9Y+ffr02VerT599+rT67NOn1cSNG7Ju3JC4a8LGjQm7bkzYuDHrhsSNuyRu3AFBEAuCIBQEoSAIBUEUCoIgFARpud3buZ3bfZ0/ndt53T+d17nd++Z2bud2b+d2bud2b+d2bvd2bocxuck9+ZNzT25yz7nJTe45f5Kb3JObc09uck9uzp/kntyce3KTe86fZcdv/MYzfuM3fsM3nvEbv/Ebv/Ebz/iN3/iN33jGb/zGb/3GT6lYf1SsPyr+qBW1alGrVqVqrfiflSphFg4EwgQCmQkEwgQOhAkEAmECmQkEwhwIvzH3H49fePrsq9Wnzz59+vTZ6tNnn7Y+ffrs0+rTZ58+rSZu3JC464bEXRM2bkzcZWPCxqwbNyTuuiFx4y4UBKEgCkJBEAqCIBQFoSAIBUGQltu9ndu5ndu9ndt53dv503lvrnvf3M7t3s7t3O7t3M7t3O7t3A6Yc5M/JzfnntzkJvecm/w5uTn35CY3557c5J7zJ7nJPbk59+QmN+eGwW894zd+wzf9hm8802/4xm/8xm884zd+4zee8Vs//MZv/cajU7H+qPijVvxRK/5Ti1q1KvWfSv2nUiUQJhAIEwhkJhAIEzgQJhAIEwgEMhM4TCD8xtx/PH7h2adPX60++/Rp9dmnT58+W3316bNPn1afffq0mrhxQ9aNGxJ3TdywMcvGjQkbs27YmLhh18SNu1AQxIIgCAVBKAhCQRDEgiAUBEFabvd2bud2b+d2Xud2b+d2bue+vZ3bud3buZ3bvZ3buZ3bvZ3bcTy5yT35k3NPbnLPuclN7smfnHtyk5tzT25yz/mT3OSe3Jx7cpObc5dZv/Ebz/BNv+GbfsMZv/Ebv/Ebv/GM3/iN3/iN33jWD7/1Gz9Faf1R8Uet+KNW/KdWpWpVqlal/lOpsnCYQCBMIJCZQCBM4ECYQCBMIBAmkOEwgfAbc//x+IVnn776sPXZp0+f1j59+vTZ6qtPn31affrs06fVxI0bEnfdkLgx64aNCbtuTNiYdcPGxF03JG7chYIgFgShIAhCQRAKgiAUBUEoCNJyu7dzO7fzun86r3O7fzqv86f7OvfN7dzu7dzO7d7O7dzO7d7O7Yjn3OTPyc25Jze559zkJvfkT85N7snNuSc3uef8Se7JTW7OPbnJzblh8Fu/8Qzf9Bu/4RvP+I3f+I3feMZv/MZv/MYz/lfjWT/81m/8lIr1R8X6o6K2Kv5Ti1q1KlWrUv9qUVkmcCAQJhAIE8gQJnAgTCAQJhAIZOZAmED4jbn/ePzC02dfLb767NOn1WefPn367NPWp88+fVp99unTauLGDVk3JmzcuEvixqwbNiZsTNx1Q+KuGxI37oAgCAVRKAiCUBAEoSAKBUEQCoK03O7t3M7r/unczu287u3czp/O6943t3O7t3M7t3O7t3M7t3s7t8OY3JOb/Mm5Jze5OffkJvfkT849ucnNuSc3uSd/cu7JTW7OPbnJzfkTdvzGM37jN37DN37jGb/xG7/xG8/4jd/4jd94xm/8xm/81m88OhXrj4o/akVtVdSqRa1alapVqX+1qCwcJhAIEwiECWQIEzgQJhAIEwgEwmQIcyD8xtx/PH7h6bNPn7Y++/Tp09qnT58+2/r06bNPn1afffq0mrgxYdeNGxI3Ztm4MWHXjQkbE3fZmLgxy8aNu1AQxIIgCAVBKAhCQRSEgiAIBUFabvd2bud2b+d2Xud2/3Ru53Xu29u5ndu9ndu53du5ndu53du5HTDnJvfkT849uck95yY3+XPOTe7JTW7OPbnJPecmf05ucnPuyU3uOX+WHb/xG8/4jd/wjd94xm/8xm/8xjN+4zd+4zd+4xm/8Vu/8Rs/RWn9UbH+qPijVvxR6w+qVqX+U6l/tagsHCYQCBMIhMkQCHNg4TCBQJhAIEwgw2EC4Tfm/uPxC0+ffVp9+tqnT5/WPn369NlXq0+ffVp9+uzTp9XEjRuybkzYuDHLxo0Ju25M2Ji464bEjbskbtwBQRCKgiAUBKEgCEJBEAuCIBQEabnd27md1/nTfZ0/ndf903md27nv/28MDgwbwYEYiJFLqf+W0pdXnPflGwgwW2+9na233no7W2+9na23lkk2+Zxszp5sssmes8mefHL2ZJPN2ZNN9uSTsyebbM6ebLLnrGVzzRmuueaaa651zDXXXHPNMddcc8011xxzh2uuueaAQS1fRZSvIr5KEdDySwUKqEABlX9aAYo08pEiRY4UKXakSJGPFClypEiRI0WKHSnSkSNFf+H9efqDB48+aHnw6IMHD0ofPHjw6IOWB48+eFB48OiDQsKEiTJMSDRhhkQTJiTMaEKiCRkmTJQw0QwJE2akSkhIFUhIlZCQkCohISFVQkJUQkKqhISEWm1n6623s/XWW29n6/e8zD5vvfV2tt56O1tvvfV2tt4acc4me/LJ2ZNNNmdPNtlzPsmebLI5e7LJnrPJJ9lzNtmTTTbZ2Oaaa4655lrXXHPMNddcc80x11xzzTXXHHOHK665wwEXUb6KKF9FfJUifrUCChRQgQIqv6qCRjpypMiRIkWKHCtS5EhHihwpUuRIkSJHinWkyNFfeH+e/uDRBw9eKTz64MGD0gcPHjxaeOXBow8KDx598KCQMGGiDBMmSpgh0YQJiWaYkGhChokmJEzIaMKEsYSEhKiEhFQJCQmpEhJSJSQEUiUkJKRKSKjVdrbeeuvtvHrrT2frV+/zdj71q7ez9dZbb2frrbez9dYyySafk83Zk032nE022ZNPzp5ssjl7ssmefHL2ZHM22ZNN9pzPaMQdjrnmWte91nWPdc0111xzzDXXXHPNNcdcc4cr7nBBoJavIspXEV+lCGj5pQIFVKCAyq+qoEiRI0WOFClS5FiRIh8pUuRIkSJHihQ5VqRIR47+wvvz9AcPHn3wSuHRBw8elD548ODRBy0PHn3woPDogweFhAkTJcyQaMIMiSZMSDTDhEQTMkyYKGHCjBImzEiVkJAqkJAqISEhVUJCQqpAQqqEhIRUCQm12s7WW29n61d/6tfZ+lO/ejv7vPV2tt56O1tvvfV2tt5aImeTPfnk7Mkmm7Mnm3xONmeTPdmcPdlkz/kke7I5m+zJJnvOZzTmmmuOdd1rXXPdY11zzTXXHHPNNddcc801x9zhijscGKDlq4ivUsRXKeKrlC8VKKDyTyv+VxU0UuQjRY4UKVLkWJEiHylS5EiRIkeKFDtSpEhHjv7C+/P0B48+ePCg5dEHDx6UPnjw4NEHhVcefVB48OiDB4WEiSZkmDBRwoSMJkxINMOERBMmZJgoYcKMEibMSJWQkCqQkJAqISFVQkJCqkBCqoSEVAkJCbXaztZbb72drbfeztb7vMx7XrzP29l66+1svfXW29l6a4mcTT7nbLInm2zOnmzyOdmcPdlkc/Zkk885m2yyJ5uzJ5vsOZ/RiDscc63rXnOta4655pprrrnmmGuuueaaa4655g7XHDCo5auI8lXEVyniVyugQAGVf1rxqxWgSJEjRYocKVbkSJEiRzpS5EiRIkWOFDlWpMhHiv7C+/P0Bw8effCg5dEHDx6UPnjw4NHCg1ceffCg8OiDB4WECRNlmDBRwoSMJkxINMOERBMSZpgoYcKMEiaMJSQkpAokJKRKSEiVkJCQKiEhKiEhVUJCQq22s/XW29n61Vt/Oq/e5w9+na33eTtbb731drbeejtbby2TbLLnfJI92WRz9mSTPeeT7Mkmm7Mnm3zO2WSTPdmcPdlkT3Zsc80x11xzrWuuueaYa6655ppjrrnmmmuOueYO11xzQaCWryK+ShFfpQho+aUCBVSggMo/rQCNFPlIkSJHihU5UqTIR4oUOVKkyJEixY4U6ciRor/4DwwBXgTOJH40AAAAAElFTkSuQmCC;" vertex="1" parent="1">
          <mxGeometry x="495" y="410" width="145" height="145" as="geometry" />
        </mxCell>
        <mxCell id="fgFVk5qCwl_wAebh072X-29" value="&lt;font style=&quot;font-size: 18px;&quot;&gt;Label:Fuzzy&lt;/font&gt;" style="text;html=1;strokeColor=none;fillColor=none;align=center;verticalAlign=middle;whiteSpace=wrap;rounded=0;" vertex="1" parent="1">
          <mxGeometry x="537.5" y="380" width="60" height="30" as="geometry" />
        </mxCell>
        <mxCell id="fgFVk5qCwl_wAebh072X-32" value="" style="html=1;shadow=0;dashed=0;align=center;verticalAlign=middle;shape=mxgraph.arrows2.arrow;dy=0.6;dx=40;notch=0;fillColor=#fff2cc;strokeColor=#d6b656;gradientColor=#ffd966;" vertex="1" parent="1">
          <mxGeometry x="300" y="490" width="180" height="50" as="geometry" />
        </mxCell>
        <mxCell id="fgFVk5qCwl_wAebh072X-33" value="&lt;font style=&quot;font-size: 14px;&quot;&gt;Normalize and select data to form chunk&lt;/font&gt;" style="text;html=1;strokeColor=none;fillColor=none;align=center;verticalAlign=middle;whiteSpace=wrap;rounded=0;" vertex="1" parent="1">
          <mxGeometry x="300" y="150" width="140" height="30" as="geometry" />
        </mxCell>
        <mxCell id="fgFVk5qCwl_wAebh072X-34" value="&lt;span style=&quot;font-size: 14px;&quot;&gt;Transform into image&lt;/span&gt;" style="text;html=1;strokeColor=none;fillColor=none;align=center;verticalAlign=middle;whiteSpace=wrap;rounded=0;" vertex="1" parent="1">
          <mxGeometry x="293" y="350" width="140" height="30" as="geometry" />
        </mxCell>
        <mxCell id="fgFVk5qCwl_wAebh072X-36" value="&lt;span style=&quot;font-size: 14px;&quot;&gt;Mask the image with label&lt;/span&gt;" style="text;html=1;strokeColor=none;fillColor=none;align=center;verticalAlign=middle;whiteSpace=wrap;rounded=0;" vertex="1" parent="1">
          <mxGeometry x="293" y="540" width="165" height="30" as="geometry" />
        </mxCell>
      </root>
    </mxGraphModel>
  </diagram>
</mxfile>
